<svg width="326" height="326" viewBox="0 0 326 326" fill="none" xmlns="http://www.w3.org/2000/svg">
<g clip-path="url(#clip0_304_1387)">
<path d="M297.566 203.946C297.566 203.946 310.691 134.54 274.942 95.1919C243.385 60.4338 193.442 46.9439 152.705 75.6319C138.224 85.8683 127.629 105.754 110.677 111.896C91.6712 118.788 67.2407 121.272 49.5911 150.781C31.9414 180.291 38.2789 218.218 61.8096 238.404C85.3402 258.59 126.521 238.893 163.626 237.419C200.731 235.946 278.111 289.592 297.566 203.946Z" fill="#2872E0"/>
<path opacity="0.8" d="M297.566 203.946C297.566 203.946 310.691 134.54 274.942 95.1919C243.385 60.4338 193.442 46.9439 152.705 75.6319C138.224 85.8683 127.629 105.754 110.677 111.896C91.6712 118.788 67.2407 121.272 49.5911 150.781C31.9414 180.291 38.2789 218.218 61.8096 238.404C85.3402 258.59 126.521 238.893 163.626 237.419C200.731 235.946 278.111 289.592 297.566 203.946Z" fill="white"/>
<path d="M169.781 99.1039H211.183V110.879H169.781C168.894 110.879 168.043 110.527 167.416 109.899C166.788 109.272 166.436 108.421 166.436 107.534V102.442C166.438 101.556 166.791 100.707 167.418 100.081C168.045 99.4554 168.895 99.1039 169.781 99.1039Z" fill="#2872E0"/>
<path d="M211.183 84.4143H172.324C170.767 84.4143 169.275 85.0325 168.174 86.133C167.074 87.2335 166.456 88.726 166.456 90.2823C166.456 91.8386 167.074 93.3311 168.174 94.4316C169.275 95.5321 170.767 96.1503 172.324 96.1503H211.183V84.4143Z" fill="#2872E0"/>
<path d="M228.846 70.8723H214.717V110.318H228.846V70.8723Z" fill="#2872E0"/>
<path d="M246.508 70.8723H232.379V110.318H246.508V70.8723Z" fill="#2872E0"/>
<path d="M264.171 70.8723H250.042V110.318H264.171V70.8723Z" fill="#2872E0"/>
<path opacity="0.4" d="M169.781 99.1039H211.183V110.879H169.781C168.894 110.879 168.043 110.527 167.416 109.899C166.788 109.272 166.436 108.421 166.436 107.534V102.442C166.438 101.556 166.791 100.707 167.418 100.081C168.045 99.4554 168.895 99.1039 169.781 99.1039Z" fill="white"/>
<path opacity="0.4" d="M211.183 84.4143H172.324C170.767 84.4143 169.275 85.0325 168.174 86.133C167.074 87.2335 166.456 88.726 166.456 90.2823C166.456 91.8386 167.074 93.3311 168.174 94.4316C169.275 95.5321 170.767 96.1503 172.324 96.1503H211.183V84.4143Z" fill="white"/>
<path opacity="0.4" d="M228.846 70.8723H214.717V110.318H228.846V70.8723Z" fill="white"/>
<path opacity="0.4" d="M246.508 70.8723H232.379V110.318H246.508V70.8723Z" fill="white"/>
<path opacity="0.4" d="M264.171 70.8723H250.042V110.318H264.171V70.8723Z" fill="white"/>
<path d="M272.706 111.375H161.748V117.947H170.752V134.247H176.112V117.947H255.727V134.247H261.087V117.947H272.706V111.375Z" fill="#2872E0"/>
<path opacity="0.1" d="M272.706 111.375H161.748V117.947H170.752V134.247H176.112V117.947H255.727V134.247H261.087V117.947H272.706V111.375Z" fill="black"/>
<path d="M140.18 130.935C138.917 131.345 137.679 131.826 136.47 132.376C137.122 131.887 137.774 131.391 138.426 130.876C141.374 128.516 144.176 125.979 146.817 123.28C143.709 126.296 140.388 129.085 136.881 131.626C137.361 130.785 137.786 129.914 138.152 129.018C138.804 127.375 138.928 125.758 137.357 124.838C135.401 123.756 133.086 125.38 133.706 128.164C134.075 129.709 134.803 131.145 135.831 132.356C133.552 133.937 131.172 135.366 128.705 136.633L128.47 136.75C128.992 135.848 129.451 134.912 129.846 133.947C130.498 132.304 130.628 130.654 129.057 129.768C127.101 128.679 124.78 130.302 125.406 133.093C125.77 134.618 126.484 136.038 127.492 137.239C124.525 138.7 121.461 139.939 118.41 141.288L117.966 141.49C118.562 140.849 119.115 140.17 119.622 139.456C120.613 138.002 121.148 136.431 119.824 135.205C118.201 133.699 115.541 134.736 115.495 137.592C115.498 139.175 115.866 140.737 116.571 142.156C113.72 143.477 111.011 145.084 108.486 146.954L108.408 147.013C108.753 146.474 109.064 145.915 109.34 145.337C110.09 143.746 110.364 142.077 108.864 141.112C108.559 140.9 108.209 140.76 107.841 140.703C107.473 140.646 107.097 140.673 106.741 140.783C106.385 140.893 106.059 141.083 105.788 141.337C105.516 141.592 105.306 141.905 105.174 142.253C104.979 141.941 104.707 141.683 104.385 141.504C102.872 140.63 101.386 141.575 100.115 142.912C99.782 143.257 99.4625 143.629 99.1691 144.007C100.155 141.275 101.392 138.64 102.866 136.138C104.265 136.756 105.776 137.08 107.306 137.089C110.318 137.089 111.59 134.579 110.11 133.021C108.91 131.756 107.215 132.239 105.617 133.158C105.089 133.464 104.574 133.81 104.092 134.162C105.629 131.855 107.375 129.694 109.308 127.707C110.567 128.725 112.03 129.461 113.598 129.865C116.525 130.589 118.364 128.464 117.301 126.605C116.441 125.086 114.693 125.145 112.907 125.653C112.072 125.906 111.253 126.209 110.455 126.56C111.251 125.784 112.079 125.034 112.913 124.297C114.015 123.358 115.15 122.452 116.304 121.572C117.549 122.563 118.988 123.28 120.529 123.678C123.45 124.402 125.288 122.276 124.232 120.418C123.371 118.899 121.624 118.964 119.838 119.472C119.427 119.59 119.009 119.733 118.605 119.883C120.131 118.794 121.683 117.732 123.234 116.669L124.669 115.691C125.964 116.771 127.483 117.55 129.115 117.973C132.043 118.697 133.875 116.571 132.819 114.713C131.958 113.187 130.211 113.252 128.424 113.761C127.731 113.965 127.049 114.209 126.384 114.491C126.684 114.283 126.977 114.067 127.27 113.839C127.818 113.448 128.353 113.05 128.887 112.639C129.539 112.144 130.191 111.59 130.843 111.068C131.208 110.775 131.56 110.462 131.913 110.142C133.206 111.242 134.734 112.031 136.379 112.45C139.306 113.174 141.145 111.055 140.089 109.19C139.228 107.671 137.481 107.73 135.688 108.238C134.707 108.541 133.747 108.905 132.812 109.327C134.005 108.219 135.16 107.065 136.255 105.859C136.333 105.774 136.398 105.689 136.47 105.604C136.946 105.083 137.409 104.555 137.859 104.014C138.309 103.472 138.882 102.71 139.378 102.058C141.386 99.4244 143.037 96.537 144.288 93.4707C142.982 96.5111 141.274 99.362 139.208 101.947C137.174 104.541 134.904 106.942 132.428 109.119L132.16 109.347C132.727 108.371 133.228 107.358 133.66 106.315C134.312 104.672 134.442 103.022 132.871 102.136C130.915 101.053 128.594 102.67 129.22 105.461C129.618 107.102 130.413 108.62 131.534 109.882L130.954 110.377C130.726 110.566 130.491 110.762 130.256 110.944C129.872 111.257 129.481 111.557 129.089 111.851L128.437 112.333C127.877 112.744 127.303 113.155 126.729 113.552L125.836 114.1L124.897 114.752C125.443 113.814 125.925 112.841 126.338 111.838C126.99 110.195 127.12 108.545 125.549 107.658C123.593 106.569 121.272 108.193 121.891 110.983C122.278 112.572 123.038 114.045 124.108 115.28L123.41 115.73L120.802 117.412L120.3 117.745C119.818 118.058 119.342 118.397 118.866 118.703C118.657 118.84 118.449 118.977 118.247 119.12C117.595 119.577 116.91 120.04 116.252 120.516C116.805 119.562 117.295 118.573 117.719 117.556C118.371 115.913 118.501 114.256 116.93 113.376C114.974 112.287 112.652 113.911 113.272 116.695C113.663 118.308 114.439 119.803 115.534 121.05C114.413 121.872 113.304 122.719 112.222 123.6C111.44 124.252 110.664 124.943 109.908 125.634C110.237 125.023 110.531 124.394 110.788 123.75C111.44 122.107 111.57 120.49 109.999 119.57C108.043 118.488 105.722 120.105 106.341 122.895C106.712 124.422 107.428 125.843 108.434 127.049C106.294 129.175 104.365 131.505 102.677 134.006C102.87 133.286 103.016 132.554 103.114 131.815C103.329 130.067 103.075 128.424 101.34 127.948C99.2017 127.362 97.3175 129.5 98.5954 132.056C99.3288 133.459 100.378 134.674 101.66 135.603C99.9985 138.315 98.6095 141.185 97.5131 144.17C97.4856 143.546 97.4224 142.923 97.324 142.305C97.0306 140.571 96.3264 139.046 94.5269 139.104C92.3101 139.143 91.1104 141.712 93.0599 143.818C94.1009 144.902 95.3706 145.739 96.7763 146.27C96.0255 148.581 95.4116 150.934 94.9377 153.318C94.8659 153.696 94.8007 154.074 94.7355 154.452C94.6511 154.519 94.5726 154.593 94.5008 154.674C94.4226 154.348 94.3313 154.022 94.227 153.702C93.6663 152.033 92.7404 150.658 90.967 150.971C88.7828 151.355 88.0004 154.094 90.2433 155.854C91.3863 156.729 92.7054 157.345 94.1096 157.66C94.1301 157.725 94.1563 157.789 94.1879 157.849C93.9466 159.642 93.7641 161.442 93.6532 163.254C93.5706 164.602 93.5163 165.956 93.4902 167.316C91.5994 167.316 90.2302 169.383 91.5733 171.632C92.1196 172.564 92.8208 173.395 93.6467 174.091C93.8097 176.633 94.0575 179.176 94.3965 181.699C94.1292 181.453 93.802 181.28 93.4475 181.199C93.0929 181.118 92.7233 181.131 92.3753 181.236C91.1821 181.556 90.6475 182.54 90.4584 183.694C90.0428 184.133 89.8097 184.714 89.8064 185.318C88.9197 184.014 88.0851 182.651 87.2767 181.282C88.5147 180.331 89.5407 179.132 90.2889 177.761C91.7103 175.108 90.1129 172.8 88.0395 173.367C86.3508 173.823 85.9792 175.544 86.0313 177.39C86.0597 178.088 86.125 178.784 86.2269 179.476L85.4119 177.892C84.6817 176.588 84.0623 175.284 83.3777 173.928C83.2017 173.608 83.0517 173.275 82.9083 172.943C84.3018 172.242 85.5342 171.258 86.5269 170.055C88.4177 167.714 87.2767 165.145 85.1381 165.315C83.3907 165.445 82.7061 167.068 82.4127 168.888C82.2943 169.682 82.2225 170.484 82.1976 171.287L81.5456 169.853C80.2211 166.603 79.1316 163.263 78.2856 159.857C79.8549 159.305 81.2839 158.415 82.4714 157.249C84.5904 155.104 83.7167 152.438 81.5651 152.385C79.8178 152.346 78.9571 153.892 78.4942 155.645C78.2609 156.603 78.0867 157.574 77.9726 158.553C77.5097 156.597 77.112 154.641 76.786 152.64C76.5578 151.407 76.4143 150.162 76.2579 148.917C77.9544 148.588 79.552 147.872 80.9262 146.824C83.306 144.979 82.7779 142.221 80.6523 141.888C78.9311 141.621 77.8879 143.042 77.1837 144.75C76.7716 145.834 76.4276 146.943 76.1535 148.069C76.0166 146.622 75.8667 145.181 75.8015 143.733C75.6124 140.745 75.6254 137.748 75.8406 134.762C75.5342 137.746 75.4296 140.748 75.5276 143.746C75.5276 145.129 75.645 146.504 75.7297 147.887C75.3597 146.947 74.924 146.034 74.4257 145.155C73.526 143.642 72.3198 142.501 70.6572 143.199C68.6034 144.04 68.4273 146.889 70.9962 148.128C72.5106 148.821 74.1708 149.137 75.8341 149.047C75.9514 150.279 76.0557 151.512 76.2383 152.731C76.4991 154.687 76.8316 156.643 77.2163 158.54C76.7964 157.804 76.3281 157.096 75.8145 156.421C74.7191 155.039 73.3825 154.061 71.8177 154.954C69.8617 156.056 70.0834 158.899 72.7957 159.792C74.3327 160.272 75.9614 160.382 77.5488 160.112C78.2967 163.557 79.288 166.945 80.5154 170.25L80.9066 171.241C80.5545 170.791 80.1764 170.328 79.7787 169.937C78.5529 168.672 77.125 167.838 75.658 168.881C73.852 170.185 74.354 172.982 77.112 173.602C78.6557 173.916 80.2512 173.869 81.7738 173.465C81.9107 173.804 82.0476 174.117 82.2106 174.475C82.8626 175.831 83.4625 177.227 84.1666 178.563C84.3622 178.948 84.5643 179.326 84.7664 179.704C84.4209 179.411 84.0623 179.124 83.6907 178.863C82.2563 177.846 80.6915 177.292 79.4461 178.596C77.9205 180.2 78.9115 182.873 81.7673 182.958C83.2378 182.977 84.695 182.677 86.0379 182.078C86.8529 183.558 87.7004 185.018 88.6067 186.452C88.9458 187 89.2979 187.541 89.6499 188.082C89.1325 187.599 88.586 187.149 88.0134 186.733C86.5725 185.716 85.0077 185.161 83.7689 186.465C82.2367 188.069 83.2277 190.743 86.0835 190.827C87.7164 190.846 89.3303 190.475 90.7909 189.745C91.2604 190.397 91.7494 191.049 92.2579 191.701C91.1952 192.933 91.5407 195.026 93.6989 195.952C94.7576 196.39 95.8856 196.637 97.0306 196.682C97.161 196.793 97.2979 196.897 97.4348 196.995L97.5065 197.047C98.0086 198.925 98.5562 200.79 99.13 202.642H89.4543V233.357H113.683V202.622H102.397C101.425 199.303 100.61 196.415 100.441 196.337L100.101 196.174C101.373 195.739 102.555 195.076 103.59 194.218C105.885 192.262 105.233 189.53 103.101 189.302C101.36 189.106 100.382 190.573 99.7624 192.314C99.5838 192.81 99.4315 193.315 99.3061 193.827C99.1822 193.364 99.0583 192.901 98.9409 192.438C98.5889 191.069 98.2889 189.686 97.9629 188.311C99.3441 187.868 100.626 187.162 101.738 186.231C104.033 184.275 103.381 181.549 101.249 181.315C99.5082 181.126 98.5367 182.619 97.9108 184.327C97.7308 184.832 97.5763 185.345 97.4479 185.866C97.2457 184.862 97.0566 183.857 96.8806 182.847C96.7502 182.091 96.6328 181.341 96.522 180.591C96.4764 179.522 96.4633 178.446 96.4764 177.377C96.4764 176.783 96.4764 176.196 96.5285 175.603C97.8218 176.021 99.1814 176.196 100.538 176.118C103.551 175.923 104.659 173.347 103.088 171.88C101.784 170.694 100.147 171.28 98.6084 172.298C97.9277 172.768 97.2746 173.278 96.6524 173.823C96.8372 171.302 97.2209 168.799 97.7999 166.338C98.1431 164.895 98.5654 163.471 99.0648 162.074C100.447 162.552 101.908 162.756 103.368 162.674C106.374 162.485 107.489 159.903 105.917 158.442C104.613 157.249 102.977 157.843 101.438 158.86C100.892 159.23 100.365 159.628 99.8603 160.053C100.44 158.688 101.115 157.365 101.881 156.095C103.417 153.539 105.34 151.237 107.58 149.269C108.734 150.326 110.095 151.132 111.577 151.636C114.445 152.575 116.434 150.592 115.489 148.649C114.745 147.072 112.985 147 111.172 147.345C110.487 147.498 109.811 147.685 109.145 147.906H109.19C111.649 145.983 114.299 144.318 117.099 142.938C118.09 144.232 119.349 145.298 120.789 146.061C123.469 147.443 125.751 145.813 125.158 143.746C124.675 142.064 122.948 141.719 121.102 141.79C120.379 141.831 119.659 141.911 118.944 142.032C121.924 140.623 124.962 139.293 127.896 137.741L127.961 137.709C129.28 138.842 130.842 139.656 132.525 140.089C135.453 140.812 137.292 138.687 136.229 136.829C135.375 135.303 133.621 135.368 131.834 135.877C131.339 136.014 130.85 136.196 130.367 136.379C132.324 135.239 134.222 134.001 136.053 132.669L136.209 132.832C136.206 132.808 136.206 132.784 136.209 132.76C137.526 133.903 139.088 134.728 140.773 135.173C143.701 135.89 145.539 133.771 144.483 131.913C143.688 130.4 141.927 130.4 140.18 130.935ZM93.9857 190.795C93.3924 190.097 92.8186 189.367 92.2644 188.63C92.4014 188.506 92.5448 188.369 92.6883 188.226C93.5131 188.485 94.3675 188.638 95.2311 188.682V188.819L95.6353 188.741C95.8439 189.778 96.0656 190.821 96.2873 191.858C96.0155 191.504 95.6613 191.222 95.2556 191.037C94.8498 190.851 94.4049 190.768 93.9597 190.795H93.9857ZM96.1439 165.927C95.9417 166.703 95.7657 167.486 95.6027 168.268L95.5049 168.131C95.5049 166.523 95.5288 164.917 95.5766 163.313C95.6223 162.185 95.707 161.064 95.8048 159.949C96.3432 160.505 96.94 161.001 97.5848 161.429C97.0145 162.901 96.5248 164.402 96.1178 165.927H96.1439ZM98.8562 158.527C98.8562 158.234 98.9214 157.934 98.9409 157.647C98.9409 157.497 98.9409 157.347 98.9409 157.204C99.1757 157.132 99.4169 157.047 99.6581 156.949C99.3582 157.471 99.1039 157.993 98.8301 158.527H98.8562ZM102.292 152.94C102.178 152.679 102.012 152.445 101.805 152.25C101.597 152.055 101.353 151.904 101.086 151.805C99.456 151.153 98.1324 152.34 97.0827 153.852L97.0306 153.931L96.9263 153.898L96.5872 153.852C96.5872 153.761 96.6198 153.67 96.6329 153.579C97.0522 151.195 97.6161 148.839 98.3215 146.524C99.8381 146.713 101.377 146.593 102.846 146.172C103.745 145.943 104.532 145.4 105.063 144.64C105.359 145.969 105.913 147.227 106.693 148.343C105.064 149.72 103.581 151.26 102.266 152.94H102.292Z" fill="#2872E0"/>
<path d="M153.65 141.653H269.556C270.94 141.653 272.266 142.203 273.245 143.181C274.223 144.159 274.772 145.486 274.772 146.869V228.2H148.454V146.85C148.459 145.473 149.008 144.155 149.982 143.181C150.955 142.208 152.274 141.659 153.65 141.653Z" fill="#263238" stroke="#263238" stroke-width="0.666" stroke-linecap="round" stroke-linejoin="round"/>
<path d="M293.7 266.453H129.507L148.454 228.193H274.753L293.7 266.453Z" fill="white" stroke="#263238" stroke-width="0.666" stroke-linecap="round" stroke-linejoin="round"/>
<path d="M267.105 148.506H156.102V221.341H267.105V148.506Z" fill="#2872E0" stroke="#263238" stroke-width="0.666" stroke-linecap="round" stroke-linejoin="round"/>
<path d="M206.332 240.301L206.554 235.639H199.877L199.434 240.301H206.332Z" fill="#263238" stroke="white" stroke-width="0.666" stroke-linecap="round" stroke-linejoin="round"/>
<path d="M220.128 240.301L219.9 235.639H213.224L213.23 240.301H220.128Z" fill="#263238" stroke="white" stroke-width="0.666" stroke-linecap="round" stroke-linejoin="round"/>
<path d="M256.047 245.289H263.18L261.504 240.301H254.613L256.047 245.289Z" fill="#263238" stroke="white" stroke-width="0.666" stroke-linecap="round" stroke-linejoin="round"/>
<path d="M199.434 240.301L199.877 235.639H193.207L192.542 240.301H199.434Z" fill="#263238" stroke="white" stroke-width="0.666" stroke-linecap="round" stroke-linejoin="round"/>
<path d="M185.644 240.301L186.531 235.639H179.861L178.746 240.301H185.644Z" fill="#263238" stroke="white" stroke-width="0.666" stroke-linecap="round" stroke-linejoin="round"/>
<path d="M247.714 240.301L246.593 235.639H239.923L240.816 240.301H247.714Z" fill="#263238" stroke="white" stroke-width="0.666" stroke-linecap="round" stroke-linejoin="round"/>
<path d="M254.613 240.301L253.269 235.639H246.593L247.714 240.301H254.613Z" fill="#263238" stroke="white" stroke-width="0.666" stroke-linecap="round" stroke-linejoin="round"/>
<path d="M178.746 240.301L179.861 235.639H173.184L171.848 240.301H178.746Z" fill="#263238" stroke="white" stroke-width="0.666" stroke-linecap="round" stroke-linejoin="round"/>
<path d="M227.02 240.301L226.57 235.639H219.9L220.128 240.301H227.02Z" fill="#263238" stroke="white" stroke-width="0.666" stroke-linecap="round" stroke-linejoin="round"/>
<path d="M261.504 240.301L259.939 235.639H253.269L254.612 240.301H261.504Z" fill="#263238" stroke="white" stroke-width="0.666" stroke-linecap="round" stroke-linejoin="round"/>
<path d="M240.816 240.301L239.923 235.639H233.246L233.918 240.301H240.816Z" fill="#263238" stroke="white" stroke-width="0.666" stroke-linecap="round" stroke-linejoin="round"/>
<path d="M233.918 240.301L233.246 235.639H226.57L227.02 240.301H233.918Z" fill="#263238" stroke="white" stroke-width="0.666" stroke-linecap="round" stroke-linejoin="round"/>
<path d="M213.23 240.301L213.223 235.639H206.553L206.332 240.301H213.23Z" fill="#263238" stroke="white" stroke-width="0.666" stroke-linecap="round" stroke-linejoin="round"/>
<path d="M164.956 240.301H158.058L156.154 245.289H163.287L164.956 240.301Z" fill="#263238" stroke="white" stroke-width="0.666" stroke-linecap="round" stroke-linejoin="round"/>
<path d="M166.508 235.639H159.838L158.058 240.301H164.956L166.508 235.639Z" fill="#263238" stroke="white" stroke-width="0.666" stroke-linecap="round" stroke-linejoin="round"/>
<path d="M171.848 240.301L173.184 235.639H166.508L164.956 240.301H171.848Z" fill="#263238" stroke="white" stroke-width="0.666" stroke-linecap="round" stroke-linejoin="round"/>
<path d="M154.113 250.629L151.916 256.366H159.583L161.5 250.629H154.113Z" fill="#263238" stroke="white" stroke-width="0.666" stroke-linecap="round" stroke-linejoin="round"/>
<path d="M163.287 245.289H156.154L154.113 250.629H161.5L163.287 245.289Z" fill="#263238" stroke="white" stroke-width="0.666" stroke-linecap="round" stroke-linejoin="round"/>
<path d="M161.5 250.629L159.583 256.366H167.251L168.894 250.629H161.5Z" fill="#263238" stroke="white" stroke-width="0.666" stroke-linecap="round" stroke-linejoin="round"/>
<path d="M192.542 240.301L193.207 235.639H186.531L185.644 240.301H192.542Z" fill="#263238" stroke="white" stroke-width="0.666" stroke-linecap="round" stroke-linejoin="round"/>
<path d="M191.825 245.289L192.542 240.301H185.644L184.692 245.289H191.825Z" fill="#263238" stroke="white" stroke-width="0.666" stroke-linecap="round" stroke-linejoin="round"/>
<path d="M184.692 245.289L185.644 240.301H178.746L177.559 245.289H184.692Z" fill="#263238" stroke="white" stroke-width="0.666" stroke-linecap="round" stroke-linejoin="round"/>
<path d="M198.964 245.289L199.434 240.301H192.542L191.825 245.289H198.964Z" fill="#263238" stroke="white" stroke-width="0.666" stroke-linecap="round" stroke-linejoin="round"/>
<path d="M171.848 240.301H164.956L163.287 245.289H170.42L171.848 240.301Z" fill="#263238" stroke="white" stroke-width="0.666" stroke-linecap="round" stroke-linejoin="round"/>
<path d="M257.586 250.629H264.979L263.18 245.289H256.047L257.586 250.629Z" fill="#263238" stroke="white" stroke-width="0.666" stroke-linecap="round" stroke-linejoin="round"/>
<path d="M177.559 245.289L178.746 240.301H171.848L170.42 245.289H177.559Z" fill="#263238" stroke="white" stroke-width="0.666" stroke-linecap="round" stroke-linejoin="round"/>
<path d="M163.287 245.289L161.5 250.629H168.894L170.42 245.289H163.287Z" fill="#263238" stroke="white" stroke-width="0.666" stroke-linecap="round" stroke-linejoin="round"/>
<path d="M241.775 245.289L240.816 240.301H233.918L234.642 245.289H241.775Z" fill="#263238" stroke="white" stroke-width="0.666" stroke-linecap="round" stroke-linejoin="round"/>
<path d="M234.642 245.289L233.918 240.301H227.02L227.502 245.289H234.642Z" fill="#263238" stroke="white" stroke-width="0.666" stroke-linecap="round" stroke-linejoin="round"/>
<path d="M256.047 245.289L254.613 240.301H247.714L248.908 245.289H256.047Z" fill="#263238" stroke="white" stroke-width="0.666" stroke-linecap="round" stroke-linejoin="round"/>
<path d="M213.237 245.289L213.23 240.301H206.332L206.097 245.289H213.237Z" fill="#263238" stroke="white" stroke-width="0.666" stroke-linecap="round" stroke-linejoin="round"/>
<path d="M227.502 245.289L227.02 240.301H220.128L220.369 245.289H227.502Z" fill="#263238" stroke="white" stroke-width="0.666" stroke-linecap="round" stroke-linejoin="round"/>
<path d="M220.369 245.289L220.128 240.301H213.23L213.237 245.289H220.369Z" fill="#263238" stroke="white" stroke-width="0.666" stroke-linecap="round" stroke-linejoin="round"/>
<path d="M206.097 245.289L206.332 240.301H199.434L198.964 245.289H206.097Z" fill="#263238" stroke="white" stroke-width="0.666" stroke-linecap="round" stroke-linejoin="round"/>
<path d="M227.502 245.289L228.024 250.629H235.411L234.642 245.289H227.502Z" fill="#263238" stroke="white" stroke-width="0.666" stroke-linecap="round" stroke-linejoin="round"/>
<path d="M234.642 245.289L235.411 250.629H242.805L241.774 245.289H234.642Z" fill="#263238" stroke="white" stroke-width="0.666" stroke-linecap="round" stroke-linejoin="round"/>
<path d="M170.42 245.289L168.894 250.629H176.288L177.559 245.289H170.42Z" fill="#263238" stroke="white" stroke-width="0.666" stroke-linecap="round" stroke-linejoin="round"/>
<path d="M241.775 245.289L242.805 250.629H250.192L248.907 245.289H241.775Z" fill="#263238" stroke="white" stroke-width="0.666" stroke-linecap="round" stroke-linejoin="round"/>
<path d="M213.237 245.289V250.629H220.63L220.369 245.289H213.237Z" fill="#263238" stroke="white" stroke-width="0.666" stroke-linecap="round" stroke-linejoin="round"/>
<path d="M248.907 245.289L250.192 250.629H257.586L256.047 245.289H248.907Z" fill="#263238" stroke="white" stroke-width="0.666" stroke-linecap="round" stroke-linejoin="round"/>
<path d="M220.369 245.289L220.63 250.629H228.024L227.502 245.289H220.369Z" fill="#263238" stroke="white" stroke-width="0.666" stroke-linecap="round" stroke-linejoin="round"/>
<path d="M184.692 245.289L183.675 250.629H191.068L191.825 245.289H184.692Z" fill="#263238" stroke="white" stroke-width="0.666" stroke-linecap="round" stroke-linejoin="round"/>
<path d="M177.559 245.289L176.288 250.629H183.675L184.692 245.289H177.559Z" fill="#263238" stroke="white" stroke-width="0.666" stroke-linecap="round" stroke-linejoin="round"/>
<path d="M206.097 245.289L205.849 250.629H213.237V245.289H206.097Z" fill="#263238" stroke="white" stroke-width="0.666" stroke-linecap="round" stroke-linejoin="round"/>
<path d="M198.964 245.289L198.456 250.629H205.849L206.097 245.289H198.964Z" fill="#263238" stroke="white" stroke-width="0.666" stroke-linecap="round" stroke-linejoin="round"/>
<path d="M191.825 245.289L191.068 250.629H198.456L198.964 245.289H191.825Z" fill="#263238" stroke="white" stroke-width="0.666" stroke-linecap="round" stroke-linejoin="round"/>
<path d="M248.907 245.289L247.714 240.301H240.816L241.775 245.289H248.907Z" fill="#263238" stroke="white" stroke-width="0.666" stroke-linecap="round" stroke-linejoin="round"/>
<path d="M166.508 235.639L168.105 230.867H161.657L159.838 235.639H166.508Z" fill="#263238" stroke="white" stroke-width="0.666" stroke-linecap="round" stroke-linejoin="round"/>
<path d="M159.838 235.639H153.676L151.688 240.301H158.058L159.838 235.639Z" fill="#263238" stroke="white" stroke-width="0.666" stroke-linecap="round" stroke-linejoin="round"/>
<path d="M161.657 230.867H155.711L153.676 235.639H159.838L161.657 230.867Z" fill="#263238" stroke="white" stroke-width="0.666" stroke-linecap="round" stroke-linejoin="round"/>
<path d="M158.058 240.301H151.688L149.569 245.289H156.154L158.058 240.301Z" fill="#263238" stroke="white" stroke-width="0.666" stroke-linecap="round" stroke-linejoin="round"/>
<path d="M156.154 245.289H149.569L147.287 250.629H154.113L156.154 245.289Z" fill="#263238" stroke="white" stroke-width="0.666" stroke-linecap="round" stroke-linejoin="round"/>
<path d="M154.113 250.629H147.287L144.842 256.366H151.916L154.113 250.629Z" fill="#263238" stroke="white" stroke-width="0.666" stroke-linecap="round" stroke-linejoin="round"/>
<path d="M268.402 240.301L270.319 245.289H276.631L274.505 240.301H268.402Z" fill="#263238" stroke="white" stroke-width="0.666" stroke-linecap="round" stroke-linejoin="round"/>
<path d="M272.366 250.629H278.906L276.63 245.289H270.319L272.366 250.629Z" fill="#263238" stroke="white" stroke-width="0.666" stroke-linecap="round" stroke-linejoin="round"/>
<path d="M274.57 256.366H281.351L278.906 250.629H272.366L274.57 256.366Z" fill="#263238" stroke="white" stroke-width="0.666" stroke-linecap="round" stroke-linejoin="round"/>
<path d="M219.9 235.639L219.665 230.867H213.224V235.639H219.9Z" fill="#263238" stroke="white" stroke-width="0.666" stroke-linecap="round" stroke-linejoin="round"/>
<path d="M268.402 240.301H274.505L272.516 235.639H266.616L268.402 240.301Z" fill="#263238" stroke="white" stroke-width="0.666" stroke-linecap="round" stroke-linejoin="round"/>
<path d="M264.979 250.629H272.366L270.319 245.289H263.18L264.979 250.629Z" fill="#263238" stroke="white" stroke-width="0.666" stroke-linecap="round" stroke-linejoin="round"/>
<path d="M173.184 235.639L174.547 230.867H168.105L166.508 235.639H173.184Z" fill="#263238" stroke="white" stroke-width="0.666" stroke-linecap="round" stroke-linejoin="round"/>
<path d="M259.939 235.639L261.504 240.301H268.402L266.616 235.639H259.939Z" fill="#263238" stroke="white" stroke-width="0.666" stroke-linecap="round" stroke-linejoin="round"/>
<path d="M272.516 235.639L270.482 230.867H264.784L266.616 235.639H272.516Z" fill="#263238" stroke="white" stroke-width="0.666" stroke-linecap="round" stroke-linejoin="round"/>
<path d="M266.616 235.639L264.784 230.867H258.335L259.939 235.639H266.616Z" fill="#263238" stroke="white" stroke-width="0.666" stroke-linecap="round" stroke-linejoin="round"/>
<path d="M242.805 250.629L243.907 256.366H251.574L250.192 250.629H242.805Z" fill="#263238" stroke="white" stroke-width="0.666" stroke-linecap="round" stroke-linejoin="round"/>
<path d="M266.903 256.366H274.57L272.366 250.629H264.979L266.903 256.366Z" fill="#263238" stroke="white" stroke-width="0.666" stroke-linecap="round" stroke-linejoin="round"/>
<path d="M259.939 235.639L258.335 230.867H251.894L253.269 235.639H259.939Z" fill="#263238" stroke="white" stroke-width="0.666" stroke-linecap="round" stroke-linejoin="round"/>
<path d="M257.586 250.629L259.242 256.366H266.903L264.979 250.629H257.586Z" fill="#263238" stroke="white" stroke-width="0.666" stroke-linecap="round" stroke-linejoin="round"/>
<path d="M250.192 250.629L251.574 256.366H259.242L257.586 250.629H250.192Z" fill="#263238" stroke="white" stroke-width="0.666" stroke-linecap="round" stroke-linejoin="round"/>
<path d="M263.18 245.289H270.319L268.402 240.301H261.504L263.18 245.289Z" fill="#263238" stroke="white" stroke-width="0.666" stroke-linecap="round" stroke-linejoin="round"/>
<path d="M199.877 235.639L200.333 230.867H193.885L193.207 235.639H199.877Z" fill="#263238" stroke="white" stroke-width="0.666" stroke-linecap="round" stroke-linejoin="round"/>
<path d="M253.269 235.639L251.894 230.867H245.445L246.593 235.639H253.269Z" fill="#263238" stroke="white" stroke-width="0.666" stroke-linecap="round" stroke-linejoin="round"/>
<path d="M193.207 235.639L193.885 230.867H187.443L186.531 235.639H193.207Z" fill="#263238" stroke="white" stroke-width="0.666" stroke-linecap="round" stroke-linejoin="round"/>
<path d="M213.224 235.639V230.867H206.775L206.554 235.639H213.224Z" fill="#263238" stroke="white" stroke-width="0.666" stroke-linecap="round" stroke-linejoin="round"/>
<path d="M186.531 235.639L187.443 230.867H180.995L179.861 235.639H186.531Z" fill="#263238" stroke="white" stroke-width="0.666" stroke-linecap="round" stroke-linejoin="round"/>
<path d="M179.861 235.639L180.995 230.867H174.547L173.184 235.639H179.861Z" fill="#263238" stroke="white" stroke-width="0.666" stroke-linecap="round" stroke-linejoin="round"/>
<path d="M206.554 235.639L206.775 230.867H200.333L199.877 235.639H206.554Z" fill="#263238" stroke="white" stroke-width="0.666" stroke-linecap="round" stroke-linejoin="round"/>
<path d="M246.593 235.639L245.445 230.867H239.004L239.923 235.639H246.593Z" fill="#263238" stroke="white" stroke-width="0.666" stroke-linecap="round" stroke-linejoin="round"/>
<path d="M239.923 235.639L239.004 230.867H232.555L233.246 235.639H239.923Z" fill="#263238" stroke="white" stroke-width="0.666" stroke-linecap="round" stroke-linejoin="round"/>
<path d="M226.57 235.639L226.114 230.867H219.665L219.9 235.639H226.57Z" fill="#263238" stroke="white" stroke-width="0.666" stroke-linecap="round" stroke-linejoin="round"/>
<path d="M242.805 250.629H235.411H228.024H220.63H213.237H205.849H198.456H191.069H183.675H176.288H168.894L167.251 256.366H174.919H182.58H190.247H197.915H205.582H213.243H220.911H228.578H236.239H243.907L242.805 250.629Z" fill="#263238" stroke="white" stroke-width="0.666" stroke-linecap="round" stroke-linejoin="round"/>
<path d="M233.246 235.639L232.555 230.867H226.114L226.57 235.639H233.246Z" fill="#263238" stroke="white" stroke-width="0.666" stroke-linecap="round" stroke-linejoin="round"/>
<path d="M293.772 266.446H129.507V268.774H293.772V266.446Z" fill="#263238" stroke="#263238" stroke-width="0.666" stroke-linecap="round" stroke-linejoin="round"/>
<path opacity="0.15" d="M255.525 165.119V227.77L237.315 251.509L234.251 252.656L140.832 266.44V269.504L106.615 271.343V237.726H164.956V164.819L255.525 165.119Z" fill="black"/>
<path d="M85.6336 231.003C81.4282 231.212 76.8708 234.42 76.8708 234.42L29.34 271.343H106.615C106.615 271.343 155.404 234.524 156.865 233.468C159.179 231.799 163.769 230.951 163.769 230.951L161.598 231.003H85.6336Z" fill="white" stroke="#263238" stroke-width="0.666" stroke-linecap="round" stroke-linejoin="round"/>
<path d="M263.408 165.178H159.994" stroke="#263238" stroke-width="0.666" stroke-linecap="round" stroke-linejoin="round"/>
<path d="M247.812 142.892C246.798 142.891 245.795 143.09 244.858 143.478C243.921 143.866 243.07 144.435 242.354 145.152C241.637 145.869 241.069 146.72 240.683 147.657C240.296 148.594 240.097 149.598 240.099 150.612V245.419C240.097 246.67 239.794 247.901 239.218 249.011C238.642 250.12 237.808 251.076 236.786 251.796C235.764 252.517 234.585 252.983 233.346 253.154C232.107 253.325 230.846 253.197 229.667 252.78L171.163 232.001C168.094 230.908 164.776 230.723 161.605 231.466V150.612C161.605 148.566 162.417 146.604 163.864 145.158C165.31 143.711 167.272 142.899 169.318 142.899L247.812 142.892Z" fill="white"/>
<mask id="mask0_304_1387" style="mask-type:luminance" maskUnits="userSpaceOnUse" x="161" y="142" width="87" height="112">
<path d="M247.812 142.892C246.798 142.891 245.795 143.09 244.858 143.478C243.921 143.866 243.07 144.435 242.354 145.152C241.637 145.869 241.069 146.72 240.683 147.657C240.296 148.594 240.097 149.598 240.099 150.612V245.419C240.097 246.67 239.794 247.901 239.218 249.011C238.642 250.12 237.808 251.076 236.786 251.796C235.764 252.517 234.585 252.983 233.346 253.154C232.107 253.325 230.846 253.197 229.667 252.78L171.163 232.001C168.094 230.908 164.776 230.723 161.605 231.466V150.612C161.605 148.566 162.417 146.604 163.864 145.158C165.31 143.711 167.272 142.899 169.318 142.899L247.812 142.892Z" fill="white"/>
</mask>
<g mask="url(#mask0_304_1387)">
<path d="M178.348 234.557L229.661 252.78C230.839 253.197 232.101 253.325 233.34 253.154C234.578 252.983 235.758 252.517 236.779 251.796C237.801 251.076 238.635 250.12 239.212 249.011C239.788 247.901 240.09 246.67 240.093 245.419V234.557H178.348Z" fill="#2872E0"/>
<path opacity="0.6" d="M178.348 234.557L229.661 252.78C230.839 253.197 232.101 253.325 233.34 253.154C234.578 252.983 235.758 252.517 236.779 251.796C237.801 251.076 238.635 250.12 239.212 249.011C239.788 247.901 240.09 246.67 240.093 245.419V234.557H178.348Z" fill="white"/>
<path d="M178.348 247.043L229.661 265.299C230.84 265.716 232.102 265.844 233.341 265.672C234.58 265.501 235.76 265.035 236.782 264.313C237.804 263.591 238.638 262.635 239.214 261.525C239.79 260.414 240.091 259.182 240.093 257.931V247.043H178.348Z" fill="#2872E0"/>
</g>
<path d="M247.812 142.892C246.798 142.891 245.795 143.09 244.858 143.478C243.921 143.866 243.07 144.435 242.354 145.152C241.637 145.869 241.069 146.72 240.683 147.657C240.296 148.594 240.097 149.598 240.099 150.612V245.419C240.097 246.67 239.794 247.901 239.218 249.011C238.642 250.12 237.808 251.076 236.786 251.796C235.764 252.517 234.585 252.983 233.346 253.154C232.107 253.325 230.846 253.197 229.667 252.78L171.163 232.001C168.094 230.908 164.776 230.723 161.605 231.466V150.612C161.605 148.566 162.417 146.604 163.864 145.158C165.31 143.711 167.272 142.899 169.318 142.899L247.812 142.892Z" stroke="#263238" stroke-width="0.666" stroke-linecap="round" stroke-linejoin="round"/>
<path d="M164.923 231.004H161.598" stroke="#263238" stroke-width="0.666" stroke-linecap="round" stroke-linejoin="round"/>
<path d="M232.288 253.243H153.787C152.898 253.239 152.016 253.083 151.179 252.78L137.624 248.014L154.478 235.039C156.754 233.121 159.492 231.832 162.42 231.299C165.348 230.766 168.364 231.008 171.17 232.001L229.674 252.78C230.512 253.083 231.396 253.24 232.288 253.243Z" fill="white"/>
<mask id="mask1_304_1387" style="mask-type:luminance" maskUnits="userSpaceOnUse" x="137" y="231" width="96" height="23">
<path d="M232.288 253.243H153.787C152.898 253.239 152.016 253.083 151.179 252.78L137.624 248.014L154.478 235.039C156.754 233.121 159.492 231.832 162.42 231.299C165.348 230.766 168.364 231.008 171.17 232.001L229.674 252.78C230.512 253.083 231.396 253.24 232.288 253.243Z" fill="white"/>
</mask>
<g mask="url(#mask1_304_1387)">
<path d="M232.288 253.243H153.787C152.898 253.239 152.016 253.083 151.179 252.78L136.783 247.76L154.465 235.039C156.741 233.121 159.479 231.832 162.407 231.299C165.335 230.766 168.351 231.008 171.157 232.001L229.66 252.78C230.503 253.085 231.392 253.241 232.288 253.243Z" fill="#2872E0"/>
<path opacity="0.2" d="M232.288 253.243H153.787C152.898 253.239 152.016 253.083 151.179 252.78L136.783 247.76L154.465 235.039C156.741 233.121 159.479 231.832 162.407 231.299C165.335 230.766 168.351 231.008 171.157 232.001L229.66 252.78C230.503 253.085 231.392 253.241 232.288 253.243Z" fill="black"/>
</g>
<path d="M232.288 253.243H153.787C152.898 253.239 152.016 253.083 151.179 252.78L137.624 248.014L154.478 235.039C156.754 233.121 159.492 231.832 162.42 231.299C165.348 230.766 168.364 231.008 171.17 232.001L229.674 252.78C230.512 253.083 231.396 253.24 232.288 253.243Z" stroke="#263238" stroke-width="0.666" stroke-linecap="round" stroke-linejoin="round"/>
<path d="M153.788 253.243H153.618" stroke="#263238" stroke-width="0.666" stroke-linecap="round" stroke-linejoin="round"/>
<path d="M232.437 253.243H232.288" stroke="#263238" stroke-width="0.666" stroke-linecap="round" stroke-linejoin="round"/>
<path d="M253.263 145.155C252.549 144.436 251.7 143.865 250.764 143.477C249.829 143.089 248.825 142.89 247.812 142.892C239.78 142.892 240.099 150.605 240.099 150.605V165.119H255.525V150.612C255.528 149.598 255.329 148.593 254.941 147.657C254.552 146.72 253.982 145.87 253.263 145.155Z" fill="white"/>
<mask id="mask2_304_1387" style="mask-type:luminance" maskUnits="userSpaceOnUse" x="240" y="142" width="16" height="24">
<path d="M253.263 145.155C252.549 144.436 251.7 143.865 250.764 143.477C249.829 143.089 248.825 142.89 247.812 142.892C239.78 142.892 240.099 150.605 240.099 150.605V165.119H255.525V150.612C255.528 149.598 255.329 148.593 254.941 147.657C254.552 146.72 253.982 145.87 253.263 145.155Z" fill="white"/>
</mask>
<g mask="url(#mask2_304_1387)">
<path d="M253.263 145.155C252.549 144.436 251.7 143.865 250.764 143.477C249.829 143.089 248.825 142.89 247.812 142.892C239.78 142.892 240.099 150.605 240.099 150.605V165.119H255.525V150.612C255.528 149.598 255.329 148.593 254.941 147.657C254.552 146.72 253.982 145.87 253.263 145.155Z" fill="#2872E0"/>
<path opacity="0.2" d="M253.263 145.155C252.549 144.436 251.7 143.865 250.764 143.477C249.829 143.089 248.825 142.89 247.812 142.892C239.78 142.892 240.099 150.605 240.099 150.605V165.119H255.525V150.612C255.528 149.598 255.329 148.593 254.941 147.657C254.552 146.72 253.982 145.87 253.263 145.155Z" fill="black"/>
</g>
<path d="M253.263 145.155C252.549 144.436 251.7 143.865 250.764 143.477C249.829 143.089 248.825 142.89 247.812 142.892C239.78 142.892 240.099 150.605 240.099 150.605V165.119H255.525V150.612C255.528 149.598 255.329 148.593 254.941 147.657C254.552 146.72 253.982 145.87 253.263 145.155Z" stroke="#263238" stroke-width="0.666" stroke-linecap="round" stroke-linejoin="round"/>
<g opacity="0.15">
<path d="M168.803 156.18V156.317V159.609V159.746V163.039V163.176V166.462V166.599V169.892V170.028V173.321V173.458V176.744V176.881V180.174V180.31V183.603V183.74V187.026V187.163V190.456V190.593V194.022H176.255V190.593V190.456V187.163V187.026V183.74V183.603V180.31V180.174V176.881V176.744V173.458V173.321V170.028V169.892V166.599V166.462V163.176V163.039V159.746V159.609V156.317V156.18V152.757H168.803V156.18Z" fill="black"/>
<path d="M227.561 152.757H227.404H220.272H220.109H212.976H212.813H205.686H205.523H198.39H198.227H191.101H190.938H183.805H183.642H176.353V156.317H183.642H183.805H190.938H191.101H198.227H198.39H205.523H205.686H212.813H212.976H220.109H220.272H227.404H227.561H234.857V152.757H227.561Z" fill="black"/>
</g>
<path d="M176.255 152.757H168.803V156.323H176.255V152.757Z" stroke="#263238" stroke-width="0.1665" stroke-linecap="round" stroke-linejoin="round"/>
<path d="M176.255 156.18H168.803V159.746H176.255V156.18Z" stroke="#263238" stroke-width="0.1665" stroke-linecap="round" stroke-linejoin="round"/>
<path d="M176.255 159.609H168.803V163.176H176.255V159.609Z" stroke="#263238" stroke-width="0.1665" stroke-linecap="round" stroke-linejoin="round"/>
<path d="M176.255 163.039H168.803V166.606H176.255V163.039Z" stroke="#263238" stroke-width="0.1665" stroke-linecap="round" stroke-linejoin="round"/>
<path d="M176.255 166.462H168.803V170.028H176.255V166.462Z" stroke="#263238" stroke-width="0.1665" stroke-linecap="round" stroke-linejoin="round"/>
<path d="M176.255 169.892H168.803V173.458H176.255V169.892Z" stroke="#263238" stroke-width="0.1665" stroke-linecap="round" stroke-linejoin="round"/>
<path d="M176.255 173.321H168.803V176.887H176.255V173.321Z" stroke="#263238" stroke-width="0.1665" stroke-linecap="round" stroke-linejoin="round"/>
<path d="M176.255 176.744H168.803V180.31H176.255V176.744Z" stroke="#263238" stroke-width="0.1665" stroke-linecap="round" stroke-linejoin="round"/>
<path d="M176.255 180.174H168.803V183.74H176.255V180.174Z" stroke="#263238" stroke-width="0.1665" stroke-linecap="round" stroke-linejoin="round"/>
<path d="M176.255 183.603H168.803V187.17H176.255V183.603Z" stroke="#263238" stroke-width="0.1665" stroke-linecap="round" stroke-linejoin="round"/>
<path d="M176.255 187.026H168.803V190.593H176.255V187.026Z" stroke="#263238" stroke-width="0.1665" stroke-linecap="round" stroke-linejoin="round"/>
<path d="M176.255 190.456H168.803V194.022H176.255V190.456Z" stroke="#263238" stroke-width="0.1665" stroke-linecap="round" stroke-linejoin="round"/>
<path d="M183.805 152.757H176.353V156.323H183.805V152.757Z" stroke="#263238" stroke-width="0.1665" stroke-linecap="round" stroke-linejoin="round"/>
<path d="M191.095 152.757H183.642V156.323H191.095V152.757Z" stroke="#263238" stroke-width="0.1665" stroke-linecap="round" stroke-linejoin="round"/>
<path d="M198.39 152.757H190.938V156.323H198.39V152.757Z" stroke="#263238" stroke-width="0.1665" stroke-linecap="round" stroke-linejoin="round"/>
<path d="M205.68 152.757H198.228V156.323H205.68V152.757Z" stroke="#263238" stroke-width="0.1665" stroke-linecap="round" stroke-linejoin="round"/>
<path d="M212.976 152.757H205.523V156.323H212.976V152.757Z" stroke="#263238" stroke-width="0.1665" stroke-linecap="round" stroke-linejoin="round"/>
<path d="M220.265 152.757H212.813V156.323H220.265V152.757Z" stroke="#263238" stroke-width="0.1665" stroke-linecap="round" stroke-linejoin="round"/>
<path d="M227.561 152.757H220.109V156.323H227.561V152.757Z" stroke="#263238" stroke-width="0.1665" stroke-linecap="round" stroke-linejoin="round"/>
<path d="M234.857 152.757H227.405V156.323H234.857V152.757Z" stroke="#263238" stroke-width="0.1665" stroke-linecap="round" stroke-linejoin="round"/>
<path d="M234.85 156.317H176.255V194.016H234.85V156.317Z" stroke="#263238" stroke-width="0.1665" stroke-linecap="round" stroke-linejoin="round"/>
<path d="M183.708 156.317V194.009" stroke="#263238" stroke-width="0.1665" stroke-linecap="round" stroke-linejoin="round"/>
<path d="M191.003 156.317V194.009" stroke="#263238" stroke-width="0.1665" stroke-linecap="round" stroke-linejoin="round"/>
<path d="M198.299 156.317V194.009" stroke="#263238" stroke-width="0.1665" stroke-linecap="round" stroke-linejoin="round"/>
<path d="M205.595 156.317V194.009" stroke="#263238" stroke-width="0.1665" stroke-linecap="round" stroke-linejoin="round"/>
<path d="M212.885 156.317V194.009" stroke="#263238" stroke-width="0.1665" stroke-linecap="round" stroke-linejoin="round"/>
<path d="M220.18 156.317V194.009" stroke="#263238" stroke-width="0.1665" stroke-linecap="round" stroke-linejoin="round"/>
<path d="M227.476 156.317V194.009" stroke="#263238" stroke-width="0.1665" stroke-linecap="round" stroke-linejoin="round"/>
<path d="M176.255 159.746H234.811" stroke="#263238" stroke-width="0.1665" stroke-linecap="round" stroke-linejoin="round"/>
<path d="M176.255 163.163H234.811" stroke="#263238" stroke-width="0.1665" stroke-linecap="round" stroke-linejoin="round"/>
<path d="M176.255 166.579H234.811" stroke="#263238" stroke-width="0.1665" stroke-linecap="round" stroke-linejoin="round"/>
<path d="M176.255 169.996H234.811" stroke="#263238" stroke-width="0.1665" stroke-linecap="round" stroke-linejoin="round"/>
<path d="M176.255 173.412H234.811" stroke="#263238" stroke-width="0.1665" stroke-linecap="round" stroke-linejoin="round"/>
<path d="M176.255 176.822H234.811" stroke="#263238" stroke-width="0.1665" stroke-linecap="round" stroke-linejoin="round"/>
<path d="M176.255 180.239H234.811" stroke="#263238" stroke-width="0.1665" stroke-linecap="round" stroke-linejoin="round"/>
<path d="M176.255 183.655H234.811" stroke="#263238" stroke-width="0.1665" stroke-linecap="round" stroke-linejoin="round"/>
<path d="M176.255 187.072H234.811" stroke="#263238" stroke-width="0.1665" stroke-linecap="round" stroke-linejoin="round"/>
<path d="M176.255 190.488H234.811" stroke="#263238" stroke-width="0.1665" stroke-linecap="round" stroke-linejoin="round"/>
<path d="M138.902 240.184H76.0818L80.4176 236.891H143.238L138.902 240.184Z" fill="#2872E0"/>
<path d="M42.8364 266.616H41.2977L80.4177 236.891H81.963L42.8364 266.616Z" fill="#2872E0"/>
<path d="M125.06 250.681H62.2465L67.156 247.004H129.97L125.06 250.681Z" fill="#263238"/>
<path d="M103.916 266.766H41.0956L80.4177 236.891H143.238L103.916 266.766Z" stroke="#263238" stroke-width="0.1665" stroke-linecap="round" stroke-linejoin="round"/>
<path d="M86.892 237.002L47.7394 266.746" stroke="#263238" stroke-width="0.1665" stroke-linecap="round" stroke-linejoin="round"/>
<path d="M93.2035 237.002L54.0509 266.746" stroke="#263238" stroke-width="0.1665" stroke-linecap="round" stroke-linejoin="round"/>
<path d="M99.5082 237.002L60.3556 266.746" stroke="#263238" stroke-width="0.1665" stroke-linecap="round" stroke-linejoin="round"/>
<path d="M105.82 237.002L66.667 266.746" stroke="#263238" stroke-width="0.1665" stroke-linecap="round" stroke-linejoin="round"/>
<path d="M112.131 237.002L72.9784 266.746" stroke="#263238" stroke-width="0.1665" stroke-linecap="round" stroke-linejoin="round"/>
<path d="M118.442 237.002L79.2832 266.746" stroke="#263238" stroke-width="0.1665" stroke-linecap="round" stroke-linejoin="round"/>
<path d="M124.747 237.002L85.5946 266.746" stroke="#263238" stroke-width="0.1665" stroke-linecap="round" stroke-linejoin="round"/>
<path d="M131.058 237.002L91.9059 266.746" stroke="#263238" stroke-width="0.1665" stroke-linecap="round" stroke-linejoin="round"/>
<path d="M137.37 237.002L98.2107 266.746" stroke="#263238" stroke-width="0.1665" stroke-linecap="round" stroke-linejoin="round"/>
<path d="M72.235 243.189H134.866" stroke="#263238" stroke-width="0.1665" stroke-linecap="round" stroke-linejoin="round"/>
<path d="M67.2343 246.991H129.865" stroke="#263238" stroke-width="0.1665" stroke-linecap="round" stroke-linejoin="round"/>
<path d="M62.2334 250.792H124.865" stroke="#263238" stroke-width="0.1665" stroke-linecap="round" stroke-linejoin="round"/>
<path d="M57.2325 254.586H119.864" stroke="#263238" stroke-width="0.1665" stroke-linecap="round" stroke-linejoin="round"/>
<path d="M52.2318 258.388H114.863" stroke="#263238" stroke-width="0.1665" stroke-linecap="round" stroke-linejoin="round"/>
<path d="M47.2308 262.189H109.862" stroke="#263238" stroke-width="0.1665" stroke-linecap="round" stroke-linejoin="round"/>
<path d="M234.955 196.897H168.744V199.329H234.955V196.897Z" fill="#2872E0"/>
<path d="M170.368 196.897H168.744V228.219H170.368V196.897Z" fill="#2872E0"/>
<path d="M234.955 196.897H168.744V228.382H234.955V196.897Z" stroke="#263238" stroke-width="0.1665" stroke-linecap="round" stroke-linejoin="round"/>
<path d="M175.721 197.015V228.363" stroke="#263238" stroke-width="0.1665" stroke-linecap="round" stroke-linejoin="round"/>
<path d="M182.371 197.015V228.363" stroke="#263238" stroke-width="0.1665" stroke-linecap="round" stroke-linejoin="round"/>
<path d="M189.021 197.015V228.363" stroke="#263238" stroke-width="0.1665" stroke-linecap="round" stroke-linejoin="round"/>
<path d="M195.672 197.015V228.363" stroke="#263238" stroke-width="0.1665" stroke-linecap="round" stroke-linejoin="round"/>
<path d="M202.322 197.015V228.363" stroke="#263238" stroke-width="0.1665" stroke-linecap="round" stroke-linejoin="round"/>
<path d="M208.972 197.015V228.363" stroke="#263238" stroke-width="0.1665" stroke-linecap="round" stroke-linejoin="round"/>
<path d="M215.623 197.015V228.363" stroke="#263238" stroke-width="0.1665" stroke-linecap="round" stroke-linejoin="round"/>
<path d="M222.267 197.015V228.363" stroke="#263238" stroke-width="0.1665" stroke-linecap="round" stroke-linejoin="round"/>
<path d="M228.917 197.015V228.363" stroke="#263238" stroke-width="0.1665" stroke-linecap="round" stroke-linejoin="round"/>
<path d="M168.855 203.535H234.87" stroke="#263238" stroke-width="0.1665" stroke-linecap="round" stroke-linejoin="round"/>
<path d="M168.855 207.545H234.87" stroke="#263238" stroke-width="0.1665" stroke-linecap="round" stroke-linejoin="round"/>
<path d="M168.855 211.548H234.87" stroke="#263238" stroke-width="0.1665" stroke-linecap="round" stroke-linejoin="round"/>
<path d="M168.855 215.551H234.87" stroke="#263238" stroke-width="0.1665" stroke-linecap="round" stroke-linejoin="round"/>
<path d="M168.855 219.554H234.87" stroke="#263238" stroke-width="0.1665" stroke-linecap="round" stroke-linejoin="round"/>
<path d="M168.855 223.558H234.87" stroke="#263238" stroke-width="0.1665" stroke-linecap="round" stroke-linejoin="round"/>
<path d="M213.034 216.992H210.276V223.434H213.034V216.992Z" fill="#263238" stroke="#263238" stroke-width="0.333" stroke-miterlimit="10"/>
<path d="M217.455 213.132H214.697V223.44H217.455V213.132Z" fill="#2872E0" stroke="#263238" stroke-width="0.333" stroke-miterlimit="10"/>
<path d="M221.869 206.69H219.111V223.44H221.869V206.69Z" fill="#263238" stroke="#263238" stroke-width="0.333" stroke-miterlimit="10"/>
<path d="M226.29 212.943H223.532V223.434H226.29V212.943Z" fill="#2872E0" stroke="#263238" stroke-width="0.333" stroke-miterlimit="10"/>
<path d="M230.704 206.69H227.946V223.44H230.704V206.69Z" fill="#263238" stroke="#263238" stroke-width="0.333" stroke-miterlimit="10"/>
<path d="M184.64 215.695V223.349C182.61 223.349 180.663 222.543 179.227 221.107C177.792 219.672 176.985 217.725 176.985 215.695C176.985 213.664 177.792 211.717 179.227 210.282C180.663 208.846 182.61 208.04 184.64 208.04V215.695Z" fill="#2872E0" stroke="#263238" stroke-width="0.333" stroke-miterlimit="10"/>
<path d="M184.64 215.695L191.916 213.328C192.229 214.284 192.351 215.293 192.274 216.296C192.196 217.3 191.922 218.278 191.466 219.175C191.009 220.072 190.381 220.87 189.616 221.524C188.85 222.177 187.964 222.674 187.007 222.984C186.244 223.239 185.444 223.367 184.64 223.362V215.695Z" fill="white" stroke="#263238" stroke-width="0.333" stroke-miterlimit="10"/>
<path d="M184.64 215.695V208.04C186.26 208.021 187.843 208.526 189.154 209.478C190.465 210.431 191.434 211.781 191.916 213.328L184.64 215.695Z" fill="#263238" stroke="#263238" stroke-width="0.333" stroke-miterlimit="10"/>
</g>
<defs>
<clipPath id="clip0_304_1387">
<rect width="326" height="326" fill="white"/>
</clipPath>
</defs>
</svg>
