<svg width="326" height="326" viewBox="0 0 326 326" fill="none" xmlns="http://www.w3.org/2000/svg">
<path d="M101.673 27.1167H99.0649L98.6411 28.1859H97.0176L99.6256 22.1354H101.249L103.785 28.1859H102.103L101.673 27.1167ZM101.21 25.9105L100.408 23.7523L99.5669 25.9105H101.21Z" fill="#E0E0E0"/>
<path d="M31.2961 262.306C30.3011 262.318 29.3161 262.107 28.4135 261.689C27.5108 261.27 26.7135 260.655 26.0801 259.887L27.8796 257.214C28.6708 258.16 29.7964 258.765 31.0222 258.903C31.9872 258.903 32.587 258.309 32.587 257.175V250.368H27.4623V247.141H36.5121V257.26C36.5121 260.468 34.5561 262.306 31.2961 262.306Z" fill="#E0E0E0"/>
<path d="M103.081 204.976L100.356 200.914L99.0062 202.413V204.976H96.2678V194.479H99.0062V198.86L102.918 194.459H106.093L102.181 198.801L106.309 204.956L103.081 204.976Z" fill="#E0E0E0"/>
<path d="M31.5764 199.942L36.5121 206.502V199.942H39.1527V210.837H36.6751L31.7329 204.317V210.837H29.0728V199.942H31.5764Z" fill="#E0E0E0"/>
<path d="M260.311 177.429L261.915 180.963L263.519 177.429H265.247V183.486H263.851V179.646L262.45 182.906H261.413L260.005 179.646V183.486H258.583V177.429H260.311Z" fill="#E0E0E0"/>
<path d="M211.404 20.864L213.008 24.3979L214.612 20.864H216.34V26.9146H214.945V23.0808L213.537 26.3408H212.506L211.098 23.0808V26.9146H209.69V20.864H211.404Z" fill="#E0E0E0"/>
<path d="M308.539 205.471V214.117H313.253V216.594H305.638V205.471H308.539Z" fill="#E0E0E0"/>
<path d="M265.514 22.168V26.8754H268.083V28.2185H263.936V22.168H265.514Z" fill="#E0E0E0"/>
<path d="M152.725 50.3669V55.0744H155.287V56.424H151.14V50.3669H152.725Z" fill="#E0E0E0"/>
<path d="M298.649 107.815C297.292 107.815 296.399 108.31 296.399 109.295C296.399 112.868 307.777 110.833 307.777 118.605C307.777 123.013 303.865 125.262 299.079 125.262C295.469 125.251 291.966 124.037 289.123 121.813L291.314 117.406C293.53 119.316 296.895 120.666 299.138 120.666C300.8 120.666 301.85 120.014 301.85 118.905C301.85 115.241 290.473 117.458 290.473 109.81C290.473 105.774 293.896 103.212 299.105 103.212C302.155 103.217 305.144 104.063 307.744 105.657L305.619 110.129C303.337 108.832 300.435 107.815 298.649 107.815Z" fill="#E0E0E0"/>
<path d="M234.068 214.012C232.712 214.012 231.819 214.508 231.819 215.493C231.819 219.072 243.196 217.038 243.196 224.803C243.196 229.211 239.284 231.467 234.505 231.467C230.892 231.454 227.387 230.238 224.542 228.011L226.733 223.603C228.95 225.514 232.314 226.863 234.557 226.863C236.22 226.863 237.269 226.244 237.269 225.103C237.269 221.439 225.892 223.656 225.892 216.008C225.892 211.972 229.315 209.416 234.524 209.416C237.585 209.413 240.586 210.257 243.196 211.854L241.071 216.327C238.769 215.03 235.874 214.012 234.068 214.012Z" fill="#E0E0E0"/>
<path d="M171.378 82.0802C171.378 87.5831 167.349 91.3256 161.37 91.3256H153.598V72.861H161.553C167.401 72.861 171.378 76.6034 171.378 82.0802ZM166.456 82.1324C166.456 78.9441 164.376 76.786 161.448 76.786H158.436V87.4266H161.696C164.48 87.4266 166.456 85.2946 166.456 82.152V82.1324Z" fill="#E0E0E0"/>
<path d="M266.903 146.576L265.266 143.44H263.082V146.55H260.148V135.342H265.195C268.174 135.342 269.876 136.783 269.876 139.254C269.928 139.986 269.767 140.718 269.411 141.36C269.056 142.002 268.522 142.528 267.874 142.873L270.208 146.544L266.903 146.576ZM263.082 141.125H265.214C266.401 141.125 267.092 140.519 267.092 139.378C267.092 138.237 266.401 137.683 265.214 137.683H263.082V141.125Z" fill="#E0E0E0"/>
<path d="M278.052 205.986V209.768H272.79V223.538H268.226V209.768H263.01V205.986H278.052Z" fill="#E0E0E0"/>
<path d="M235.841 169.931C235.843 170.653 235.598 171.353 235.148 171.918C234.697 172.482 234.068 172.876 233.364 173.034C234.211 173.179 234.977 173.626 235.519 174.293C236.061 174.96 236.342 175.801 236.311 176.659C236.311 179.111 234.159 180.643 230.788 180.643H223.708V166.299H230.521C233.775 166.306 235.841 167.72 235.841 169.931ZM231.995 170.583C231.995 169.722 231.343 169.214 230.319 169.233H227.45V172.017H230.319C231.362 172.017 231.995 171.476 231.995 170.583ZM232.445 176.19C232.445 175.29 231.623 174.716 230.319 174.736H227.45V177.742H230.319C231.623 177.742 232.445 177.168 232.445 176.19Z" fill="#E0E0E0"/>
<path d="M298.212 37.4117C298.213 38.1345 297.969 38.8362 297.519 39.4015C297.068 39.9667 296.439 40.3618 295.734 40.5218C296.58 40.6664 297.345 41.1128 297.887 41.7781C298.429 42.4435 298.711 43.2828 298.681 44.1404C298.681 46.5984 296.536 48.1306 293.159 48.1306H286.078V33.7866H292.892C296.145 33.7931 298.212 35.208 298.212 37.4117ZM294.365 38.0637C294.365 37.2031 293.713 36.688 292.689 36.7141H289.827V39.4916H292.689C293.733 39.4981 294.365 38.97 294.365 38.0703V38.0637ZM294.815 43.6644C294.815 42.7647 294 42.1909 292.689 42.217H289.827V45.2227H292.689C294 45.2292 294.815 44.6555 294.815 43.684V43.6644Z" fill="#E0E0E0"/>
<path d="M129.689 174.566C128.655 174.625 127.683 175.077 126.971 175.83C126.26 176.583 125.864 177.58 125.864 178.615C125.864 179.651 126.26 180.648 126.971 181.401C127.683 182.153 128.655 182.606 129.689 182.664C131.047 182.582 132.321 181.982 133.249 180.989L135.44 183.336C133.884 184.973 131.745 185.929 129.487 185.996C125.171 185.996 121.957 182.847 121.957 178.635C121.957 174.423 125.256 171.391 129.631 171.391C131.81 171.413 133.891 172.297 135.42 173.849L133.249 176.457C132.825 175.907 132.287 175.454 131.674 175.127C131.06 174.801 130.383 174.61 129.689 174.566Z" fill="#E0E0E0"/>
<path d="M290.01 249.749C288.976 249.807 288.003 250.259 287.292 251.012C286.58 251.765 286.184 252.762 286.184 253.797C286.184 254.833 286.58 255.83 287.292 256.583C288.003 257.336 288.976 257.788 290.01 257.846C291.367 257.764 292.641 257.164 293.57 256.171L295.76 258.524C294.203 260.16 292.065 261.116 289.808 261.185C288.823 261.221 287.841 261.057 286.921 260.701C286.002 260.346 285.164 259.807 284.46 259.118C283.755 258.429 283.199 257.603 282.823 256.692C282.448 255.781 282.262 254.803 282.277 253.817C282.277 249.69 285.57 246.58 289.951 246.58C292.129 246.6 294.211 247.481 295.741 249.031L293.57 251.639C293.146 251.088 292.609 250.634 291.995 250.308C291.381 249.982 290.704 249.791 290.01 249.749Z" fill="#E0E0E0"/>
<path d="M248.21 57.5651H238.867L237.328 61.3858H231.532L240.836 39.772H246.632L255.701 61.3858H249.716L248.21 57.5651ZM246.541 53.2488L243.581 45.5357L240.588 53.2488H246.541Z" fill="#E0E0E0"/>
<path d="M198.906 47.6352V52.1992H195.189V47.7395L189.941 37.9595H193.644L197.015 44.0818L200.314 37.9595H204.076L198.906 47.6352Z" fill="#E0E0E0"/>
<path d="M123.704 71.068C125.549 71.068 126.827 69.8161 126.827 67.7428V58.4844H130.993V67.7493C130.993 71.9612 128.17 74.6279 123.684 74.6279C119.199 74.6279 116.284 71.9612 116.284 67.7493V58.4844H120.45V67.7493C120.42 68.1873 120.484 68.6266 120.636 69.0385C120.788 69.4503 121.025 69.8253 121.332 70.1388C121.64 70.4523 122.01 70.6971 122.419 70.8573C122.827 71.0174 123.265 71.0892 123.704 71.068Z" fill="#E0E0E0"/>
<path d="M72.372 211.75V215.375H63.896V219.255H71.72V222.88H63.896V229.165H59.332V211.75H72.372Z" fill="#E0E0E0"/>
<path d="M18.0213 155.743V161.044H23.2373V155.743H26.6277V168.744H23.2373V163.75H18.0213V168.744H14.6244V155.743H18.0213Z" fill="#E0E0E0"/>
<path d="M257.84 86.064V98.9931H254.469V86.064H257.84Z" fill="#E0E0E0"/>
<path d="M158.684 26.569C158.684 31.0808 155.124 34.4647 150.351 34.4647C145.579 34.4647 142.012 31.0808 142.012 26.569C142.012 22.0572 145.579 18.745 150.351 18.745C155.124 18.745 158.684 22.1028 158.684 26.569ZM146.146 26.569C146.121 27.722 146.555 28.8376 147.352 29.6712C148.149 30.5048 149.244 30.9883 150.397 31.0156C150.959 30.998 151.513 30.8692 152.025 30.6368C152.537 30.4044 152.999 30.0728 153.382 29.6613C153.766 29.2498 154.064 28.7664 154.26 28.2391C154.456 27.7117 154.546 27.1507 154.524 26.5886C154.55 26.0256 154.464 25.4631 154.269 24.9342C154.075 24.4053 153.777 23.9206 153.392 23.5087C153.007 23.0968 152.544 22.7659 152.03 22.5357C151.516 22.3054 150.96 22.1804 150.397 22.168C149.826 22.1738 149.262 22.2934 148.738 22.5197C148.213 22.7461 147.74 23.0746 147.344 23.4862C146.948 23.8978 146.638 24.3841 146.433 24.9168C146.227 25.4495 146.129 26.0178 146.146 26.5886V26.569Z" fill="#E0E0E0"/>
<path d="M292.918 159.655L296.771 170.804L300.637 159.655H304.777L298.746 175.075H294.567L288.588 159.655H292.918Z" fill="#E0E0E0"/>
<path d="M216.288 82.804L218.42 88.9654L220.559 82.804H222.841L219.509 91.3191H217.201L213.902 82.804H216.288Z" fill="#E0E0E0"/>
<path d="M28.1664 48.9913C28.1664 51.6841 26.4777 53.2554 23.5568 53.2554H21.516V56.4241H18.5233V44.988H23.5568C26.4777 44.988 28.1664 46.442 28.1664 48.9913ZM25.3237 49.0891C25.3237 47.9612 24.6195 47.3548 23.4068 47.3548H21.516V50.856H23.4068C24.6195 50.856 25.3237 50.2497 25.3237 49.0891Z" fill="#E0E0E0"/>
<path d="M299.32 69.2946L301.693 74.5106L304.06 69.2946H306.61V78.24H304.549V72.5806L302.469 77.3533H300.937L298.864 72.5806V78.24H296.784V69.3076L299.32 69.2946Z" fill="#E0E0E0"/>
<path d="M47.1658 103.466V107.971H35.7558V112.007H46.0508V116.48H35.7558V120.555H47.4918V125.054H30.116V103.466H47.1658Z" fill="#E0E0E0"/>
<path d="M75.632 30.5787V34.2756L64.2024 47.6546H75.795V52.2186H56.6458V48.5218L68.0558 35.1101H57.05V30.5461L75.632 30.5787Z" fill="#E0E0E0"/>
<path d="M311.206 293.009C311.206 293.107 244.526 293.178 162.296 293.178C80.0656 293.178 13.366 293.107 13.366 293.009C13.366 292.911 80.033 292.839 162.296 292.839C244.559 292.839 311.206 292.917 311.206 293.009Z" fill="#263238"/>
<path d="M120.939 51.221C120.891 51.0615 120.812 50.9131 120.706 50.7844C120.6 50.6557 120.469 50.5492 120.322 50.471C120.175 50.3929 120.014 50.3446 119.848 50.3289C119.682 50.3133 119.514 50.3306 119.355 50.3799L113.644 52.1599L35.3123 72.9391L63.2048 181.647L72.9131 186.752L152.64 164.584C152.948 164.499 153.236 164.353 153.486 164.155C153.737 163.956 153.946 163.71 154.1 163.43C154.255 163.15 154.351 162.842 154.385 162.524C154.418 162.206 154.388 161.885 154.296 161.579L120.939 51.221Z" fill="#2872E0"/>
<path d="M112.079 46.9114L119.883 51.4884L153.298 162.824L72.7827 185.813L63.6351 180.845L112.079 46.9114Z" fill="#F5F5F5"/>
<path d="M142.351 158.195L63.2049 181.667L31.2047 73.6759C31.0043 72.9938 31.0791 72.2603 31.4131 71.6327C31.747 71.005 32.3135 70.5331 32.9912 70.3181L111.29 45.7377C111.482 45.6778 111.683 45.6569 111.883 45.6761C112.083 45.6954 112.277 45.7544 112.454 45.8498C112.631 45.9452 112.787 46.075 112.913 46.2315C113.039 46.3881 113.132 46.5682 113.187 46.7614L144.125 154.993C144.308 155.653 144.225 156.358 143.894 156.957C143.562 157.556 143.008 158.001 142.351 158.195Z" fill="#2872E0"/>
<path d="M73.3303 177.077C73.2456 177.077 65.878 152.953 56.8869 123.078C47.8958 93.2033 40.6717 69.0011 40.7629 68.962C40.8542 68.9228 48.2153 93.086 57.2129 122.967C66.2105 152.848 73.4216 177.051 73.3303 177.077Z" fill="#263238"/>
<path d="M70.5398 179.867C70.4485 179.9 63.0875 155.743 54.0964 125.869C45.1053 95.9939 37.8811 71.7981 37.9724 71.7525C38.0637 71.7069 45.4248 95.8765 54.4159 125.758C63.4069 155.639 70.6311 179.841 70.5398 179.867Z" fill="#263238"/>
<path d="M67.0778 98.4519C67.6059 100.121 66.7387 101.647 64.9196 102.214L62.592 102.964L60.8251 97.3566L63.2375 96.5937C64.9848 96.033 66.5562 96.7893 67.0778 98.4519ZM65.5847 98.9409C65.5359 98.7273 65.4429 98.5263 65.3118 98.3508C65.1807 98.1752 65.0143 98.029 64.8234 97.9216C64.6324 97.8141 64.4211 97.7478 64.203 97.7268C63.9849 97.7059 63.7649 97.7308 63.557 97.7999L62.6376 98.0868L63.6548 101.347L64.6458 101.034C64.8533 100.97 65.0449 100.863 65.2076 100.719C65.3703 100.575 65.5004 100.398 65.5893 100.2C65.6782 100.002 65.7237 99.7871 65.7229 99.57C65.7221 99.3529 65.675 99.1384 65.5847 98.9409Z" fill="white"/>
<path d="M68.3882 94.9572L70.1551 100.564L68.6947 101.027L66.9277 95.4201L68.3882 94.9572Z" fill="white"/>
<path d="M72.5219 94.9767C72.1193 95.1231 71.7887 95.4192 71.599 95.8033C71.4094 96.1874 71.3753 96.6299 71.504 97.0385C71.6326 97.4472 71.914 97.7904 72.2895 97.9966C72.665 98.2028 73.1056 98.2561 73.5195 98.1454C74.039 97.9431 74.4629 97.5518 74.7061 97.0501L75.8471 97.7021C75.4406 98.5322 74.724 99.1692 73.852 99.4755C73.4698 99.6123 73.0638 99.6701 72.6586 99.6454C72.2534 99.6207 71.8575 99.514 71.4948 99.3318C71.132 99.1496 70.8101 98.8956 70.5484 98.5853C70.2867 98.275 70.0907 97.9148 69.9723 97.5265C69.8539 97.1382 69.8156 96.7299 69.8596 96.3264C69.9037 95.9228 70.0292 95.5324 70.2285 95.1788C70.4279 94.8252 70.697 94.5158 71.0195 94.2692C71.3419 94.0226 71.7111 93.8441 72.1046 93.7444C72.9599 93.4837 73.8838 93.5728 74.6735 93.9922L74.1454 95.2962C73.9136 95.1295 73.6486 95.0147 73.3684 94.9596C73.0883 94.9044 72.7996 94.9103 72.5219 94.9767Z" fill="white"/>
<path d="M79.3353 91.5082L79.7134 92.7144L78.0378 93.249L79.4266 97.6435L77.9596 98.1064L76.5708 93.7054L74.9082 94.2335L74.53 93.0273L79.3353 91.5082Z" fill="white"/>
<path d="M81.3956 90.8627L83.1625 96.4699L81.6955 96.9328L79.9286 91.3256L81.3956 90.8627Z" fill="white"/>
<path d="M89.0697 91.5212C89.303 92.1176 89.3513 92.7705 89.2082 93.3948C89.0652 94.0191 88.7374 94.5858 88.2677 95.0211C87.7979 95.4564 87.208 95.7402 86.5746 95.8355C85.9413 95.9307 85.294 95.833 84.717 95.5551C84.14 95.2771 83.66 94.8319 83.3397 94.2773C83.0194 93.7227 82.8735 93.0845 82.921 92.4458C82.9686 91.8071 83.2074 91.1976 83.6064 90.6966C84.0053 90.1956 84.5459 89.8263 85.1577 89.6369C85.5379 89.4975 85.9422 89.4358 86.3466 89.4555C86.7511 89.4752 87.1475 89.5759 87.5123 89.7516C87.8771 89.9273 88.2029 90.1745 88.4705 90.4785C88.738 90.7824 88.9418 91.137 89.0697 91.5212ZM84.5057 92.9621C84.6285 93.3844 84.9135 93.7408 85.2984 93.9534C85.6833 94.1661 86.1367 94.2175 86.5595 94.0966C86.9514 93.9343 87.2683 93.631 87.4475 93.2465C87.6267 92.8621 87.6552 92.4244 87.5275 92.0199C87.3998 91.6154 87.125 91.2735 86.7575 91.0617C86.39 90.8498 85.9564 90.7835 85.5424 90.8757C85.3376 90.9448 85.1484 91.0536 84.9857 91.196C84.8231 91.3383 84.6901 91.5113 84.5944 91.7052C84.4987 91.899 84.4421 92.1098 84.4281 92.3255C84.414 92.5412 84.4426 92.7575 84.5122 92.9621H84.5057Z" fill="white"/>
<path d="M90.2042 88.0852L93.8098 90.6932L92.747 87.3158L94.1097 86.8855L95.8766 92.4927L94.5726 92.8969L90.9736 90.3411L92.0298 93.6989L90.6671 94.1292L88.8937 88.522L90.2042 88.0852Z" fill="white"/>
<path d="M100.408 89.9759L97.989 90.7387L97.9043 91.8602L96.4047 92.3296L97.0567 85.9661L98.5628 85.4901L102.677 90.3606L101.119 90.8496L100.408 89.9759ZM99.6255 88.9979L98.2237 87.2375L98.0738 89.4869L99.6255 88.9979Z" fill="white"/>
<path d="M106.53 89.1023L105.226 87.7983L104.17 88.1308L104.659 89.6826L103.192 90.1455L101.425 84.5383L103.942 83.7429C105.435 83.2734 106.504 83.7429 106.902 84.9751C107.043 85.3332 107.077 85.7244 107.001 86.1015C106.924 86.4786 106.741 86.8256 106.472 87.1007L108.219 88.5611L106.53 89.1023ZM103.766 86.9833L104.828 86.6508C104.955 86.6289 105.074 86.579 105.179 86.505C105.283 86.4309 105.37 86.3344 105.433 86.2226C105.495 86.1107 105.532 85.9864 105.54 85.8586C105.548 85.7307 105.528 85.6027 105.48 85.4837C105.45 85.3598 105.392 85.2443 105.311 85.1459C105.23 85.0475 105.127 84.9687 105.011 84.9154C104.895 84.8622 104.769 84.8357 104.641 84.8382C104.514 84.8406 104.388 84.8718 104.274 84.9295L103.212 85.262L103.766 86.9833Z" fill="white"/>
<path d="M111.283 85.6336L111.851 87.4266L110.384 87.8895L109.836 86.1356L106.576 82.9343L108.036 82.4714L110.123 84.4274L110.664 81.6107L112.124 81.1478L111.283 85.6336Z" fill="white"/>
<path d="M85.7183 115.678L79.3483 117.686L79.1396 120.613L75.182 121.865L76.8707 105.128L80.8218 103.883L91.6515 116.708L87.5504 118.012L85.7183 115.678ZM83.6515 113.07L79.9807 108.454L79.5765 114.322L83.6515 113.07Z" fill="white"/>
<path d="M95.844 106.928L96.6003 109.321L91.0257 111.081L90.2694 108.682L95.844 106.928Z" fill="white"/>
<path d="M108.278 95.2311L109.073 97.7543L104.17 109.327L112.079 106.837L113.05 109.927L100.01 114.041L99.2213 111.544L104.118 99.945L96.6133 102.312L95.6418 99.2148L108.278 95.2311Z" fill="white"/>
<path d="M146.491 161.044L146.309 161.116L145.755 161.305L143.629 161.957L135.805 164.408L109.901 172.363L83.9645 180.226L76.0818 182.56L73.9367 183.212L73.376 183.368C73.3129 183.39 73.2471 183.404 73.1804 183.408C73.2381 183.376 73.2994 183.352 73.363 183.336L73.9172 183.147L76.0427 182.495L83.8667 180.043L109.777 172.082L135.707 164.226L143.577 161.879L145.722 161.227L146.283 161.077C146.35 161.056 146.421 161.045 146.491 161.044Z" fill="#263238"/>
<path d="M102.11 172.591L90.1063 176.275C92.9285 181.445 94.9343 187.02 96.0526 192.803C97.7602 190.171 98.6932 187.112 98.7453 183.975C100.775 186.407 102.987 188.68 105.363 190.775C105.529 184.555 104.422 178.367 102.11 172.591Z" fill="#455A64"/>
<path d="M145.024 159.557C145.024 159.557 144.966 159.59 144.842 159.636L144.294 159.818L142.169 160.47L134.345 162.915L108.441 170.876L82.5105 178.739L74.6409 181.086L72.4958 181.706L71.9351 181.856L71.7395 181.901C71.7968 181.868 71.8581 181.841 71.9221 181.823L72.4697 181.641L74.6018 180.956L82.4258 178.511L108.33 170.55L134.266 162.687L142.136 160.392L144.281 159.773L144.842 159.623L145.024 159.557Z" fill="#263238"/>
<path d="M147.456 156.48C147.416 156.391 147.383 156.3 147.358 156.206L147.117 155.398L146.224 152.294C145.455 149.582 144.346 145.683 142.964 140.871C140.226 131.221 136.411 117.895 132.115 103.205C127.818 88.5154 123.88 75.2472 120.959 65.6433C119.518 60.8511 118.351 56.9717 117.529 54.2659C117.138 52.9619 116.825 51.8926 116.61 51.1689C116.512 50.8298 116.434 50.5625 116.382 50.3669C116.351 50.2755 116.327 50.1818 116.31 50.0865C116.351 50.1734 116.385 50.2626 116.415 50.3539C116.473 50.5495 116.564 50.8103 116.675 51.1493C116.903 51.873 117.236 52.9032 117.66 54.2267C118.494 56.9195 119.701 60.7924 121.194 65.5715C124.147 75.1559 128.157 88.4242 132.46 103.12C136.763 117.816 140.532 131.156 143.212 140.812C144.516 145.637 145.611 149.543 146.354 152.268L147.189 155.391C147.274 155.737 147.345 156.004 147.391 156.206C147.437 156.408 147.456 156.48 147.456 156.48Z" fill="#263238"/>
<path d="M113.005 70.931C113.005 70.931 113.005 70.8528 112.926 70.7093L112.711 70.0573C112.52 69.4662 112.246 68.6186 111.89 67.5145C111.185 65.2977 110.162 62.0703 108.864 57.9953L108.988 58.0605L49.4867 76.6817L49.5975 76.4665C50.9863 80.9131 52.3424 85.262 53.6399 89.4413L53.4313 89.3305L95.8439 76.1796L108.395 72.3198L111.792 71.2831L112.679 71.0158L112.985 70.931L112.705 71.0353L111.844 71.3092L108.519 72.3719L96.0264 76.2839L53.5291 89.6565L53.3661 89.7021L53.3139 89.5456C52.0099 85.3663 50.6538 81.0175 49.2715 76.5773L49.2194 76.4143L49.3824 76.3622L108.93 57.8715L109.021 57.8389V57.9301C110.279 62.0443 111.27 65.2977 111.961 67.5406C112.287 68.636 112.548 69.4966 112.724 70.0704C112.809 70.3507 112.868 70.5594 112.913 70.7224C112.95 70.789 112.98 70.8589 113.005 70.931Z" fill="white"/>
<path d="M270.977 111.246C284.829 105.601 291.483 89.7958 285.839 75.9435C280.194 62.0913 264.389 55.4376 250.537 61.0822C236.684 66.7267 230.031 82.532 235.675 96.3842C241.32 110.236 257.125 116.89 270.977 111.246Z" fill="white"/>
<path d="M238.632 112.946C238.599 112.946 238.632 112.653 238.456 112.157C238.23 111.455 237.793 110.84 237.204 110.397C236.809 110.081 236.348 109.858 235.854 109.745C235.293 109.63 234.711 109.682 234.179 109.895C233.557 110.112 233.015 110.512 232.625 111.044C232.235 111.575 232.015 112.212 231.995 112.871C231.974 113.53 232.154 114.179 232.51 114.734C232.866 115.289 233.382 115.722 233.99 115.978C234.509 116.217 235.086 116.303 235.652 116.225C236.15 116.147 236.624 115.96 237.041 115.678C237.655 115.273 238.129 114.687 238.397 114.002C238.58 113.513 238.593 113.213 238.619 113.22C238.628 113.291 238.628 113.363 238.619 113.435C238.617 113.521 238.604 113.606 238.58 113.689C238.562 113.807 238.532 113.923 238.489 114.035C238.278 114.648 237.907 115.194 237.414 115.615C236.921 116.036 236.324 116.317 235.685 116.428C235.077 116.527 234.452 116.443 233.892 116.186C233.266 115.906 232.732 115.454 232.353 114.882C231.926 114.286 231.698 113.569 231.701 112.835C231.737 112.101 232.007 111.397 232.471 110.827C232.889 110.293 233.446 109.885 234.081 109.647C234.657 109.427 235.285 109.382 235.887 109.516C236.418 109.646 236.912 109.899 237.328 110.253C237.929 110.729 238.363 111.385 238.567 112.124C238.596 112.24 238.617 112.358 238.632 112.476C238.644 112.563 238.644 112.651 238.632 112.737C238.639 112.807 238.639 112.877 238.632 112.946Z" fill="#263238"/>
<path d="M256.184 113.102L256.627 113.142L257.931 113.285L258.877 113.389C259.229 113.389 259.613 113.389 260.031 113.389H261.374C261.622 113.401 261.871 113.39 262.117 113.357L262.906 113.292C265.53 113.095 268.108 112.501 270.554 111.531C273.802 110.269 276.777 108.394 279.317 106.009L280.38 104.992C280.712 104.633 281.032 104.242 281.364 103.864L281.866 103.29C282.037 103.098 282.196 102.895 282.342 102.683L283.248 101.379C283.398 101.164 283.555 100.956 283.705 100.727L284.103 100.03C284.363 99.5604 284.637 99.091 284.904 98.615C285.172 98.139 285.361 97.6109 285.596 97.1089C285.713 96.8546 285.824 96.5938 285.941 96.3395C285.993 96.2091 286.059 96.0852 286.104 95.9548L286.241 95.5506C286.639 94.4658 286.961 93.3547 287.206 92.2254C287.323 91.6516 287.48 91.0844 287.571 90.4911C287.662 89.8978 287.708 89.3044 287.78 88.7046C287.812 88.4047 287.865 88.1048 287.878 87.7983C287.891 87.4919 287.878 87.192 287.878 86.8855C287.878 86.2726 287.91 85.6532 287.878 85.0338C287.813 83.7757 287.665 82.5233 287.434 81.2848L287.258 80.3394C287.258 80.183 287.206 80.0265 287.167 79.8635L287.037 79.4006C286.854 78.7486 286.678 78.1552 286.495 77.5293C286.313 76.9034 286.019 76.3101 285.785 75.6907C285.654 75.3908 285.55 75.0387 285.4 74.7779L284.944 73.8912C284.334 72.6875 283.643 71.5264 282.877 70.416C282.459 69.8748 282.036 69.3402 281.612 68.799L281.292 68.3883L280.934 68.0166L280.217 67.2603L279.499 66.504L278.71 65.852L277.928 65.2L277.53 64.8544C277.393 64.7501 277.243 64.6523 277.1 64.548L275.366 63.3157L273.508 62.253C268.34 59.48 262.407 58.4726 256.614 59.3842L254.508 59.7754L252.461 60.3622L251.952 60.5121L251.463 60.7077L250.485 61.0989L249.514 61.4836L248.582 61.9596L247.662 62.4355L247.199 62.6768L246.769 62.9506L245.035 64.059C243.946 64.8592 242.911 65.7304 241.938 66.667L241.24 67.3451C240.999 67.5733 240.797 67.8406 240.588 68.0884C240.164 68.5904 239.714 69.0729 239.284 69.588L238.156 71.1723L237.876 71.57C237.791 71.707 237.713 71.8439 237.634 71.9873C237.471 72.2612 237.315 72.5415 237.159 72.8154C236.532 73.9099 235.979 75.0447 235.502 76.2123C235.281 76.7926 235.105 77.3859 234.903 77.9662C234.811 78.253 234.714 78.5464 234.616 78.8333C234.518 79.1202 234.479 79.4266 234.407 79.72C234.277 80.3134 234.146 80.8936 234.016 81.4804C233.885 82.0672 233.866 82.654 233.788 83.2343C233.65 84.3808 233.589 85.5353 233.605 86.6899V87.1137C233.605 87.2572 233.605 87.3941 233.638 87.5375C233.638 87.8179 233.683 88.0982 233.703 88.3721C233.762 88.9263 233.775 89.4805 233.859 90.0216C233.944 90.5628 234.055 91.0974 234.153 91.6256C234.205 91.8864 234.251 92.1537 234.296 92.4145L234.511 93.1773C234.661 93.6859 234.805 94.1879 234.948 94.6834C235.013 94.9311 235.098 95.1731 235.203 95.4072C235.294 95.6484 235.385 95.8831 235.483 96.1178C235.672 96.5873 235.841 97.0567 236.044 97.5066C236.246 97.9565 236.487 98.3868 236.696 98.8106C238.307 101.901 240.498 104.653 243.15 106.915C243.437 107.163 243.718 107.417 244.005 107.652L244.891 108.304L245.745 108.917C245.889 109.014 246.026 109.119 246.169 109.203L246.599 109.451L248.236 110.397C248.764 110.677 249.299 110.886 249.788 111.12L250.505 111.44C250.728 111.55 250.959 111.641 251.196 111.714L252.467 112.144C252.865 112.274 253.23 112.411 253.563 112.503L254.495 112.718L255.76 113.011L256.19 113.115C256.19 113.115 256.04 113.115 255.754 113.037L254.489 112.763L253.55 112.561C253.211 112.477 252.846 112.34 252.448 112.216L251.144 111.798C250.906 111.727 250.675 111.635 250.453 111.525L249.729 111.205C249.234 110.977 248.699 110.775 248.164 110.494L246.528 109.536L246.091 109.288C245.947 109.203 245.817 109.099 245.674 109.001L244.813 108.395L243.913 107.743L243.053 107C240.373 104.737 238.159 101.976 236.533 98.8693C236.304 98.439 236.083 98.0021 235.881 97.5653C235.678 97.1284 235.502 96.6394 235.313 96.17C235.222 95.9288 235.124 95.694 235.026 95.4528C234.921 95.2169 234.836 94.9727 234.772 94.7226C234.629 94.2205 234.479 93.7185 234.335 93.2099C234.257 92.9556 234.179 92.7014 234.114 92.4406C234.048 92.1798 234.016 91.9124 233.964 91.6451C233.866 91.1105 233.768 90.5758 233.664 90.0347C233.559 89.4935 233.559 88.9263 233.507 88.3721C233.507 88.0917 233.455 87.8114 233.436 87.5245C233.436 87.3876 233.403 87.2441 233.403 87.1007V86.716C233.381 85.5528 233.44 84.3894 233.579 83.2343C233.657 82.654 233.696 82.0542 233.807 81.4674L234.198 79.694C234.27 79.394 234.316 79.0941 234.407 78.8007L234.7 77.9205C234.896 77.3402 235.072 76.7404 235.3 76.1536C235.776 74.9763 236.332 73.8326 236.963 72.7306L237.439 71.8895C237.524 71.7461 237.595 71.6026 237.687 71.4657L237.98 71.068C238.358 70.542 238.736 70.0074 239.115 69.4641C239.519 68.949 239.975 68.46 240.419 67.9514C240.64 67.7037 240.842 67.4364 241.071 67.2082L241.801 66.5105C242.784 65.5742 243.827 64.7031 244.924 63.9025L246.671 62.7876L247.108 62.5072L247.571 62.266L248.503 61.7835L249.442 61.3076L250.427 60.9098L251.411 60.5186L251.907 60.323L252.415 60.1731L254.482 59.5732L256.608 59.182C262.455 58.2603 268.442 59.277 273.657 62.0769L275.535 63.1527L277.283 64.3915C277.426 64.4958 277.576 64.5936 277.719 64.7045L278.117 65.0566L278.919 65.7477L279.721 66.4453L280.445 67.2082L281.169 67.9645C281.286 68.0949 281.41 68.2188 281.521 68.3492L281.847 68.7599L283.151 70.3899C283.92 71.5122 284.615 72.684 285.23 73.8977L285.687 74.7909C285.843 75.0908 285.948 75.4429 286.072 75.7168C286.313 76.3688 286.58 76.949 286.789 77.575L287.336 79.4592L287.467 79.9287C287.506 80.0852 287.532 80.2482 287.565 80.4046C287.623 80.7241 287.682 81.0566 287.734 81.3566C287.968 82.6055 288.116 83.869 288.178 85.1382C288.178 85.7902 288.178 86.39 288.178 87.0094C288.178 87.3158 288.178 87.6223 288.178 87.9287C288.178 88.2352 288.112 88.5416 288.08 88.8415L287.865 90.6476C287.773 91.2409 287.617 91.8146 287.499 92.3949C287.248 93.5311 286.919 94.6486 286.515 95.7397L286.378 96.1439C286.332 96.2743 286.267 96.4047 286.208 96.5351L285.863 97.311C285.628 97.8196 285.426 98.3346 285.165 98.8236L284.272 100.199L283.868 100.904C283.718 101.125 283.561 101.34 283.411 101.556L282.492 102.86C282.348 103.074 282.186 103.277 282.01 103.466L281.508 104.046C281.169 104.424 280.856 104.816 280.51 105.181L279.441 106.198C276.871 108.588 273.862 110.456 270.58 111.701C268.124 112.671 265.534 113.26 262.899 113.448L262.111 113.507C261.863 113.529 261.615 113.529 261.367 113.507H260.018C259.6 113.507 259.209 113.507 258.864 113.474L257.912 113.357L256.608 113.187L256.184 113.102Z" fill="#263238"/>
<path d="M254.28 80.196H258.101C258.101 79.7618 258.187 79.3319 258.356 78.9316C258.524 78.5314 258.77 78.1687 259.081 77.8651C259.391 77.5614 259.759 77.3228 260.163 77.1632C260.567 77.0037 260.998 76.9264 261.432 76.936C262.072 76.9127 262.704 77.0882 263.24 77.4385C263.775 77.7888 264.19 78.2966 264.425 78.892C264.627 79.3922 264.707 79.9329 264.659 80.4701C264.612 81.0072 264.438 81.5255 264.151 81.9824C263.499 83.0517 262.084 84.0232 259.509 83.5668V92.1797H263.284V87.1398C264.836 86.6844 266.195 85.7321 267.152 84.4293C268.11 83.1265 268.613 81.5453 268.585 79.9286C268.585 74.341 263.578 73.05 261.413 73.05C259.776 73.0892 254.195 73.4804 254.28 80.196Z" fill="#263238"/>
<path d="M263.323 93.9923H259.49V97.5718H263.323V93.9923Z" fill="#263238"/>
<path d="M164.428 93.3534C160.614 90.4389 160.164 84.4079 162.726 80.3525C165.289 76.297 170.159 74.1259 174.945 73.7803C178.421 73.5606 181.9 74.1661 185.098 75.5474C188.295 76.9287 191.121 79.0466 193.344 81.7282C195.711 84.6426 197.51 88.3264 200.933 89.8652C203.939 91.2213 207.453 90.5172 210.681 91.2539C215.004 92.2058 218.472 95.6419 220.383 99.6321C222.293 103.622 222.821 108.108 222.951 112.548C223.069 116.61 222.997 121.024 225.527 124.219C228.057 127.414 232.223 128.301 235.424 130.628C241.442 135.016 242.668 144.672 237.934 150.416C236.428 152.255 234.348 153.872 233.983 156.219C233.651 158.358 234.876 160.405 235.346 162.518C236.559 167.968 231.669 173.882 226.088 173.712C223.271 173.621 220.363 172.265 217.742 173.295C215.121 174.325 213.947 177.246 212.148 179.391C210.321 181.464 207.837 182.845 205.112 183.303C202.388 183.761 199.589 183.269 197.184 181.908C195.228 180.715 193.416 178.876 191.108 178.831C188.8 178.785 186.837 180.571 184.549 180.787C181.556 181.093 178.954 178.681 177.416 176.092C175.877 173.504 174.912 170.524 172.852 168.333C170.152 165.465 166.084 164.46 162.485 162.85C158.497 161.071 154.937 158.457 152.047 155.183C149.157 151.91 147.004 148.054 145.734 143.876C144.463 139.698 144.105 135.296 144.683 130.967C145.262 126.639 146.763 122.486 149.086 118.788" fill="#263238"/>
<path d="M202.465 149.882C203.455 148.991 204.645 148.351 205.934 148.017L205.686 147.984C205.921 147.945 206.159 147.926 206.397 147.926C206.833 147.839 207.283 147.842 207.718 147.935C208.153 148.028 208.564 148.209 208.927 148.467C210.309 149.108 211.402 150.243 211.991 151.649C212.436 152.887 212.531 154.224 212.267 155.514C212.002 156.803 211.388 157.994 210.492 158.958C208.959 160.646 206.482 161.618 204.324 160.914C202.368 160.262 200.998 158.273 200.601 156.213C200.353 155.086 200.395 153.915 200.721 152.808C201.047 151.701 201.647 150.695 202.465 149.882Z" fill="#455A64"/>
<path d="M208.757 122.413C208.718 110.944 201.99 96.483 190.534 96.985L154.465 103.851C152.787 103.926 151.197 104.63 150.013 105.821C148.828 107.013 148.134 108.607 148.069 110.286L143.094 206.971L183.916 206.756C184.412 199.838 186.237 180.363 186.237 180.428C186.237 180.493 202.126 178.915 206.28 160.059C208.353 150.697 208.796 135.147 208.757 122.413Z" fill="#FFBF9D"/>
<path d="M200.197 138.022C200.166 138.658 199.888 139.258 199.421 139.691C198.954 140.125 198.336 140.359 197.699 140.343C197.387 140.35 197.077 140.294 196.787 140.179C196.497 140.064 196.233 139.892 196.01 139.674C195.788 139.455 195.612 139.194 195.492 138.905C195.372 138.617 195.311 138.308 195.313 137.996C195.343 137.359 195.622 136.759 196.088 136.324C196.555 135.889 197.173 135.654 197.81 135.668C198.123 135.662 198.433 135.719 198.723 135.834C199.013 135.95 199.277 136.123 199.5 136.342C199.722 136.561 199.898 136.823 200.018 137.112C200.138 137.4 200.198 137.71 200.197 138.022Z" fill="#263238"/>
<path d="M204.93 128.992C204.611 129.292 202.844 127.812 200.21 127.688C197.575 127.564 195.58 128.737 195.313 128.398C195.183 128.248 195.528 127.694 196.402 127.133C197.576 126.418 198.942 126.081 200.314 126.169C201.689 126.228 203.008 126.729 204.076 127.596C204.852 128.268 205.087 128.861 204.93 128.992Z" fill="#263238"/>
<path d="M176.562 136.398C176.531 137.035 176.253 137.634 175.786 138.068C175.319 138.502 174.701 138.736 174.064 138.72C173.752 138.727 173.441 138.671 173.151 138.555C172.86 138.44 172.596 138.267 172.373 138.048C172.15 137.828 171.974 137.566 171.855 137.277C171.735 136.988 171.675 136.678 171.678 136.366C171.71 135.73 171.989 135.132 172.455 134.698C172.922 134.265 173.539 134.03 174.175 134.045C174.488 134.039 174.798 134.095 175.088 134.211C175.378 134.327 175.642 134.499 175.865 134.718C176.087 134.938 176.263 135.199 176.383 135.488C176.503 135.777 176.563 136.086 176.562 136.398Z" fill="#263238"/>
<path d="M179.078 127.942C178.752 128.242 176.985 126.762 174.358 126.638C171.73 126.514 169.729 127.688 169.461 127.349C169.331 127.199 169.67 126.645 170.55 126.084C171.724 125.367 173.09 125.03 174.462 125.119C175.83 125.194 177.139 125.703 178.198 126.573C178.994 127.218 179.235 127.792 179.078 127.942Z" fill="#263238"/>
<path d="M187.45 148.004C187.45 147.854 189.093 147.665 191.76 147.489C192.412 147.489 193.064 147.358 193.22 146.909C193.377 146.459 193.168 145.696 192.894 144.894L191.212 139.678C188.891 132.239 187.254 126.136 187.554 126.045C187.854 125.953 189.98 131.913 192.301 139.345C192.855 141.184 193.39 142.931 193.892 144.601C194.1 145.376 194.485 146.27 194.087 147.254C193.976 147.485 193.814 147.687 193.613 147.845C193.411 148.003 193.177 148.113 192.927 148.167C192.548 148.248 192.16 148.279 191.773 148.258C189.08 148.232 187.45 148.147 187.45 148.004Z" fill="#263238"/>
<path d="M186.4 180.193C186.4 180.193 174.664 180.298 162.459 171.913C162.459 171.913 166.71 186.524 185.872 185.879L186.4 180.193Z" fill="#FF9A6C"/>
<path d="M186.687 154.218C186.147 153.316 185.397 152.56 184.499 152.013C183.602 151.467 182.585 151.147 181.536 151.081C180.85 151.047 180.165 151.181 179.542 151.472C178.92 151.763 178.378 152.202 177.963 152.751C177.544 153.373 177.304 154.1 177.271 154.85C177.238 155.6 177.412 156.344 177.774 157.002C178.21 157.684 178.841 158.22 179.585 158.538C180.33 158.857 181.153 158.944 181.947 158.788C183.453 158.521 184.738 157.575 185.957 156.63C186.318 156.386 186.622 156.069 186.85 155.698C186.966 155.493 187.026 155.261 187.026 155.026C187.026 154.791 186.966 154.56 186.85 154.355" fill="#FF9A6C"/>
<path d="M179.606 149.354C180.037 149.354 179.874 152.203 182.214 154.374C184.555 156.545 187.587 156.408 187.587 156.813C187.587 156.995 186.876 157.328 185.592 157.282C183.92 157.202 182.328 156.54 181.093 155.411C179.922 154.317 179.221 152.812 179.137 151.212C179.052 150.012 179.417 149.308 179.606 149.354Z" fill="#263238"/>
<path d="M180.884 117.197C180.578 117.895 177.976 117.399 174.873 117.588C171.769 117.777 169.227 118.468 168.855 117.803C168.692 117.484 169.161 116.838 170.211 116.206C171.602 115.436 173.15 114.994 174.738 114.914C176.325 114.833 177.91 115.117 179.372 115.743C180.48 116.265 181.015 116.864 180.884 117.197Z" fill="#263238"/>
<path d="M204.545 119.896C204.05 120.464 202.276 119.74 200.099 119.577C197.921 119.414 196.056 119.74 195.672 119.088C195.502 118.775 195.828 118.195 196.663 117.679C197.788 117.064 199.071 116.798 200.348 116.914C201.625 117.03 202.839 117.523 203.835 118.331C204.552 118.983 204.767 119.616 204.545 119.896Z" fill="#263238"/>
<path d="M221.934 118.253C221.282 115.332 219.913 112.477 217.559 110.625C216.255 109.614 214.73 108.93 213.55 107.795C211 105.337 210.7 101.425 209.279 98.1847C208.341 96.0978 206.919 94.2646 205.131 92.837C203.342 91.4095 201.24 90.4287 198.997 89.976C195.267 89.2588 191.29 90.0477 187.704 88.8024C185.051 87.8766 182.834 85.9075 180.135 85.1447C174.873 83.6581 169.566 87.055 165.347 90.5367C164.995 94.364 167.825 97.1936 170.563 99.9125C171.937 101.264 173.587 102.303 175.4 102.956C177.214 103.608 179.147 103.86 181.067 103.694C184.033 103.42 187.365 102.227 189.758 104.007C192.275 105.878 192.034 109.875 194.211 112.157C197.328 115.378 202.928 113.102 207.101 114.765C210.316 116.036 212.102 119.381 214.065 122.23C216.027 125.08 219.098 127.903 222.488 127.212C222.521 124.199 222.567 121.181 221.934 118.253Z" fill="#263238"/>
<path d="M183.212 98.5303C180.878 97.6305 176.105 95.6484 175.003 93.4512C172.61 88.6851 167.955 85.1708 162.896 84.9752C160.273 84.9496 157.713 85.7735 155.598 87.3236C153.482 88.8737 151.925 91.0668 151.16 93.5751C145.07 93.0861 138.772 96.3852 135.362 101.882C134.931 102.572 134.547 103.291 134.214 104.033C133.118 105.63 132.383 107.447 132.062 109.357C131.741 111.267 131.841 113.224 132.356 115.091C133.008 117.327 134.195 119.864 132.904 121.8C131.613 123.737 128.711 123.58 126.384 124.154C124.39 124.71 122.656 125.949 121.483 127.655C120.31 129.36 119.774 131.423 119.968 133.484C120.15 134.951 120.711 136.451 120.281 137.865C119.851 139.28 118.462 140.291 117.366 141.373C116.008 142.734 115.03 144.427 114.53 146.284C114.03 148.141 114.026 150.096 114.519 151.955C115.011 153.814 115.982 155.511 117.335 156.877C118.688 158.243 120.376 159.23 122.23 159.74C123.913 160.196 125.764 160.288 127.166 161.331C128.763 162.518 129.324 164.624 130.38 166.319C131.427 167.93 132.938 169.185 134.713 169.917C136.489 170.65 138.446 170.825 140.323 170.42C141.074 170.234 141.796 169.947 142.468 169.566C143.473 171.254 145.168 172.487 148.239 172.754L151.062 132.649C151.239 133.16 151.537 133.619 151.932 133.988C152.326 134.357 152.804 134.625 153.324 134.768C159.623 136.783 161.729 123.626 160.607 119.909C163.117 118.051 165.654 116.167 167.655 113.696C169.657 111.225 171.854 104.216 171.763 100.962C174.084 101.314 184.223 98.9215 183.212 98.5303Z" fill="#263238"/>
<path d="M152.568 136.072C152.718 131.984 147.815 130.674 144.092 132.402C142.051 133.347 140.376 135.472 140.18 139.808C139.639 151.368 151.355 149.53 151.394 149.197C151.407 148.995 152.366 140.832 152.568 136.072Z" fill="#FFBF9D"/>
<path d="M148.063 144.653C148.01 144.614 147.854 144.783 147.502 144.92C147.014 145.103 146.474 145.089 145.996 144.881C144.796 144.379 143.857 142.39 143.896 140.317C143.918 139.325 144.158 138.35 144.601 137.461C144.725 137.104 144.934 136.783 145.21 136.525C145.486 136.268 145.821 136.081 146.185 135.981C146.419 135.933 146.663 135.967 146.876 136.077C147.089 136.188 147.257 136.368 147.352 136.588C147.489 136.92 147.404 137.148 147.463 137.174C147.521 137.2 147.724 136.992 147.652 136.522C147.6 136.232 147.45 135.967 147.228 135.773C146.922 135.52 146.529 135.396 146.133 135.427C145.653 135.497 145.199 135.69 144.815 135.987C144.431 136.284 144.131 136.675 143.942 137.122C143.403 138.099 143.111 139.194 143.094 140.31C143.055 142.645 144.151 144.874 145.8 145.442C146.105 145.547 146.43 145.583 146.751 145.546C147.071 145.509 147.379 145.399 147.652 145.227C148.004 144.927 148.102 144.672 148.063 144.653Z" fill="#FF9A6C"/>
<path d="M167.603 94.0184C167.675 94.1488 166.41 94.2466 165.132 95.7397C163.854 97.2328 163.176 100.18 163.58 103.635L163.619 103.929L163.332 103.974C161.638 104.272 160.034 104.956 158.647 105.974C157.259 106.992 156.125 108.315 155.332 109.842C154.897 110.708 154.611 111.64 154.485 112.6C154.422 113.627 154.452 114.657 154.576 115.678C154.709 116.779 154.76 117.888 154.726 118.997C154.703 120.207 154.277 121.375 153.513 122.315C151.89 124.369 149.49 125.236 147.417 126.103C145.378 126.798 143.466 127.822 141.758 129.135C138.928 131.464 137.087 134.78 136.607 138.413C136.307 140.868 136.611 143.359 137.494 145.67C138.146 147.306 138.7 148.115 138.628 148.161C138.455 147.992 138.306 147.801 138.185 147.593C137.806 147.02 137.476 146.416 137.2 145.787C136.172 143.451 135.77 140.887 136.033 138.348C136.447 134.538 138.315 131.034 141.249 128.568C143.01 127.178 144.994 126.098 147.117 125.373C149.191 124.506 151.453 123.632 152.868 121.82C154.302 120.183 153.931 117.849 153.781 115.756C153.655 114.674 153.629 113.583 153.702 112.496C153.849 111.447 154.168 110.429 154.648 109.484C155.501 107.86 156.722 106.458 158.214 105.392C159.707 104.325 161.428 103.623 163.241 103.342L162.987 103.681C162.615 100.069 163.43 96.9981 164.878 95.4789C165.414 94.8923 166.086 94.4448 166.834 94.1749C167.083 94.091 167.341 94.0384 167.603 94.0184Z" fill="#455A64"/>
<path d="M143.375 148.584C144.365 147.693 145.554 147.054 146.843 146.72L146.589 146.68C146.827 146.648 147.066 146.628 147.306 146.622C147.743 146.535 148.193 146.54 148.628 146.634C149.063 146.728 149.474 146.91 149.836 147.169C151.218 147.806 152.31 148.94 152.894 150.345C153.341 151.584 153.438 152.922 153.174 154.212C152.911 155.502 152.297 156.695 151.401 157.66C149.862 159.342 147.391 160.32 145.233 159.616C143.277 158.964 141.908 157.008 141.51 154.915C141.26 153.788 141.299 152.616 141.626 151.509C141.952 150.402 142.554 149.395 143.375 148.584Z" fill="#455A64"/>
<path d="M101.96 201.031C101.96 201.031 52.16 249.357 52.6098 264.96C52.5835 265.219 52.5311 265.474 52.4534 265.723C50.6408 275.972 58.0866 285.576 68.4143 286.88L87.6614 289.273L128.776 236.246L117.647 206.619L101.96 201.031Z" fill="#2872E0"/>
<path d="M84.76 224.829C84.76 224.829 92.7926 211.242 101.966 201.031C110.651 191.375 122.211 188.643 124.786 188.5C134.305 188.05 174.443 190.762 200.19 191.76C209.755 192.144 219.202 197.699 225.455 204.95C239.454 221.185 264.001 250.12 268.93 259.033C275.92 271.656 271.017 300.396 266.114 304.23C261.211 308.064 110.768 301.537 110.768 301.537L84.76 224.829Z" fill="#2872E0"/>
<path d="M253.928 259.066C253.824 259.08 253.719 259.08 253.615 259.066L252.715 259.033L252.063 259C251.828 259 251.568 259 251.294 259C250.669 259.001 250.044 259.033 249.422 259.098L248.34 259.209C247.962 259.248 247.577 259.34 247.173 259.405C246.365 259.522 245.53 259.763 244.637 259.985C240.797 261.082 237.255 263.035 234.277 265.697C233.631 266.276 233.015 266.887 232.431 267.529C232.164 267.835 231.884 268.115 231.642 268.409C231.401 268.702 231.186 268.996 230.99 269.269C230.605 269.759 230.246 270.268 229.915 270.795C229.758 271.03 229.608 271.239 229.484 271.447L229.171 272.008C228.989 272.314 228.845 272.575 228.721 272.784C228.598 272.992 228.552 273.051 228.539 273.045C228.568 272.943 228.607 272.845 228.656 272.751C228.767 272.536 228.898 272.269 229.054 271.943L229.347 271.362C229.465 271.154 229.608 270.939 229.752 270.71C230.072 270.167 230.422 269.643 230.801 269.139C231.01 268.852 231.232 268.559 231.453 268.259C231.675 267.959 231.968 267.666 232.236 267.353C232.819 266.696 233.435 266.069 234.081 265.475C237.077 262.758 240.668 260.779 244.565 259.698C245.424 259.466 246.295 259.279 247.173 259.137C247.577 259.079 247.969 258.994 248.353 258.961L249.449 258.87C250.078 258.821 250.709 258.805 251.339 258.824C251.62 258.824 251.874 258.824 252.115 258.824L252.767 258.883L253.667 258.981C253.757 258.997 253.845 259.026 253.928 259.066Z" fill="#263238"/>
<path d="M120.992 257.018C120.935 256.874 120.896 256.723 120.874 256.569L120.594 255.265C120.34 254.13 119.942 252.494 119.349 250.492C117.775 245.297 115.923 240.191 113.8 235.196C111.349 229.328 108.832 224.112 106.869 220.467C106.387 219.541 105.93 218.713 105.52 217.996C105.109 217.279 104.77 216.647 104.47 216.151L103.818 214.991C103.732 214.859 103.659 214.72 103.603 214.573C103.706 214.693 103.798 214.821 103.877 214.958L104.607 216.086C104.926 216.568 105.259 217.188 105.709 217.898C106.159 218.609 106.609 219.431 107.104 220.35C109.695 225.123 112.03 230.031 114.1 235.053C116.231 240.058 118.058 245.188 119.57 250.414C120.124 252.428 120.496 254.078 120.711 255.225C120.803 255.78 120.874 256.216 120.926 256.529C120.966 256.69 120.988 256.854 120.992 257.018Z" fill="#263238"/>
<path d="M220.376 214.971C220.382 215.025 220.382 215.08 220.376 215.134V215.61C220.376 216.06 220.376 216.673 220.376 217.449C220.376 219.052 220.278 221.361 220.154 224.216C219.92 229.928 219.424 237.811 218.55 246.495C217.677 255.18 216.594 262.997 215.675 268.663C215.225 271.486 214.834 273.762 214.541 275.333C214.397 276.102 214.28 276.702 214.195 277.146L214.097 277.615C214.092 277.67 214.077 277.723 214.052 277.772C214.049 277.717 214.049 277.663 214.052 277.609C214.052 277.478 214.091 277.322 214.117 277.133C214.182 276.689 214.28 276.083 214.397 275.314C214.645 273.703 214.997 271.402 215.427 268.624C216.268 262.978 217.325 255.154 218.198 246.456C219.072 237.758 219.6 229.908 219.907 224.203C220.043 221.374 220.154 219.072 220.233 217.449C220.272 216.673 220.298 216.053 220.317 215.61C220.317 215.414 220.317 215.258 220.35 215.134C220.352 215.079 220.36 215.024 220.376 214.971Z" fill="#263238"/>
<path d="M192.64 187.013C192.08 186.69 191.448 186.511 190.801 186.492L146.048 181.589C144.522 181.419 142.788 181.308 141.627 182.312C140.147 183.584 140.382 185.937 141.047 187.776C141.712 189.615 142.71 191.479 142.351 193.396L190.384 196.409C190.084 194.674 191.46 193.149 192.477 191.74C193.494 190.332 194.074 188.024 192.64 187.013Z" fill="#2872E0"/>
<path d="M194.778 195.483C194.609 195.546 194.435 195.594 194.257 195.626L192.731 195.959C192.079 196.102 191.251 196.272 190.299 196.421C189.347 196.571 188.271 196.78 187.039 196.91L185.155 197.152C184.503 197.23 183.805 197.276 183.095 197.341C181.68 197.491 180.154 197.543 178.531 197.621C175.051 197.726 171.569 197.643 168.099 197.373C164.629 197.069 161.18 196.575 157.764 195.893C156.2 195.554 154.706 195.241 153.331 194.863C152.64 194.681 151.968 194.524 151.336 194.335L149.51 193.794C148.343 193.461 147.313 193.077 146.4 192.77C145.487 192.464 144.711 192.164 144.085 191.91L142.638 191.329C142.468 191.267 142.302 191.193 142.142 191.108C142.32 191.146 142.495 191.199 142.664 191.264L144.131 191.786C144.783 192.02 145.546 192.301 146.465 192.588C147.385 192.875 148.421 193.24 149.582 193.559L151.401 194.087C152.053 194.263 152.705 194.413 153.396 194.596C154.772 194.961 156.265 195.248 157.83 195.587C164.638 196.941 171.579 197.519 178.518 197.308C180.115 197.243 181.634 197.197 183.049 197.06C183.76 197.002 184.444 196.963 185.096 196.891L186.987 196.676C188.187 196.558 189.269 196.369 190.247 196.232C191.225 196.095 192.014 195.952 192.679 195.828L194.211 195.554C194.398 195.513 194.588 195.489 194.778 195.483Z" fill="#263238"/>
<g opacity="0.3">
<path d="M85.3663 242.922C81.0798 243.676 77.0837 245.596 73.8162 248.472C70.5488 251.347 68.1362 255.066 66.843 259.222C69.0794 258.485 71.2114 256.562 72.8414 254.854C77.0859 250.401 82.3215 247.421 88.4373 246.769C92.6492 246.313 96.6785 247.421 100.617 248.966C102.397 249.67 104.385 250.062 105.976 251.137L108.082 251.62C103.133 244.5 93.9271 241.54 85.3663 242.922Z" fill="black"/>
</g>
<g opacity="0.3">
<path d="M145.513 192.34C151.87 198.104 160.196 202.198 168.757 202.818C177.318 203.437 185.52 200.699 192.64 195.9C175.251 198.625 159.427 197.699 145.513 192.34Z" fill="black"/>
</g>
<g opacity="0.3">
<path d="M254.73 254.11C253.328 253.224 251.548 253.243 249.899 253.458C239.558 254.684 229.55 261.726 228.526 273.084C232.881 264.66 241.84 258.485 251.287 259.3C252.878 259.437 254.769 259.626 255.786 258.394C256.803 257.162 256.125 255.004 254.73 254.11Z" fill="black"/>
</g>
<path d="M56.5674 308.396L141.367 307.966C141.367 307.966 140.806 309.602 144.32 309.602L172.356 309.407C172.356 309.407 174.429 309.602 174.462 307.966C174.462 307.966 240.203 309.074 256.445 309.53C257.657 309.563 259.809 308.826 258.798 307.281L253.132 300.494L159.336 291.366L92.8317 298.355L70.0117 290.114H69.2554C68.9478 290.113 68.6445 290.186 68.371 290.326C68.0975 290.467 67.8619 290.671 67.684 290.922L55.948 307.222C55.8708 307.335 55.8259 307.467 55.818 307.603C55.8102 307.739 55.8397 307.875 55.9035 307.996C55.9672 308.117 56.0628 308.218 56.1798 308.289C56.2968 308.359 56.4308 308.396 56.5674 308.396Z" fill="#455A64"/>
<path opacity="0.2" d="M92.421 306.433L243.489 307.601L207.962 296.595L163.672 297.84L119.355 296.073L92.421 306.433Z" fill="black"/>
<path d="M158.495 303.447L159.336 284.859C159.336 284.859 159.505 274.635 147.189 271.225C134.873 267.816 119.525 272.158 105.187 272.934C90.8497 273.71 91.0192 272.621 91.0192 272.621L79.381 290.59L125.093 297.253C125.093 297.253 151.577 298.799 152.079 298.955C152.581 299.112 158.495 303.447 158.495 303.447Z" fill="white"/>
<path d="M158.345 304.106L159.336 286.639C159.336 286.639 159.166 276.448 171.476 273.012C183.786 269.576 199.134 273.938 213.471 274.714C223.506 275.255 226.616 275.164 227.581 275.059C227.715 275.045 227.851 275.067 227.973 275.123C228.096 275.179 228.202 275.268 228.278 275.379L239.284 292.37L193.579 299.033C193.579 299.033 167.095 300.585 166.586 300.735C166.077 300.885 158.345 304.106 158.345 304.106Z" fill="white"/>
<path d="M59.4753 307.014L79.3809 290.59C79.3809 290.59 120.62 283.62 134.605 286.098C148.591 288.575 156.571 293.38 158.495 303.604L145.063 307.014C139.515 304.2 133.405 302.667 127.186 302.528C117.067 302.372 91.7624 307.02 91.7624 307.02L59.4753 307.014Z" fill="#E0E0E0"/>
<path d="M172.741 307.014L158.566 303.447C158.566 303.447 159.577 287.206 182.599 284.494C182.599 284.494 189.119 282.381 212.206 286.717C235.294 291.053 237.68 290.903 237.68 290.903L256.888 307.94C256.888 307.94 245.419 308.872 235.972 307.014C226.524 305.156 209.996 298.799 192.118 300.663C174.24 302.528 172.741 307.014 172.741 307.014Z" fill="#E0E0E0"/>
<path d="M79.381 290.59L90.6475 273.201L70.6637 289.149L58.041 307.014H59.4754L79.381 290.59Z" fill="#E0E0E0"/>
<path d="M237.602 290.903L228.422 275.477C228.422 275.477 246.71 291.372 246.867 291.822C247.023 292.272 256.829 307.94 256.829 307.94L237.602 290.903Z" fill="#E0E0E0"/>
<path d="M144.32 307.014H172.663L158.495 303.447L157.751 303.604" fill="#263238"/>
<path d="M158.495 303.447C158.397 303.447 158.495 299.385 158.703 294.391C158.912 289.397 159.166 285.341 159.258 285.348C159.349 285.354 159.258 289.403 159.042 294.404C158.827 299.405 158.586 303.454 158.495 303.447Z" fill="#263238"/>
<path d="M99.2409 287.721C99.1163 287.764 98.9872 287.792 98.8562 287.806L97.7283 288.001L93.5424 288.653L79.4071 290.792L79.4853 290.759L76.7665 292.852L63.57 302.913L59.5471 305.938L58.4387 306.746C58.3132 306.846 58.1802 306.935 58.041 307.014C58.1479 306.894 58.2682 306.787 58.3996 306.694L59.4624 305.834L63.42 302.717L76.5578 292.546L79.2767 290.459H79.3158H79.3549L93.5163 288.471L97.7087 287.91L98.8432 287.78C98.9732 287.746 99.1066 287.726 99.2409 287.721Z" fill="#263238"/>
<path d="M156.63 293.693C156.63 293.693 156.584 293.654 156.506 293.563L156.16 293.146C155.861 292.787 155.404 292.259 154.772 291.627C152.976 289.845 150.918 288.35 148.669 287.193C145.326 285.492 141.731 284.341 138.022 283.783C133.473 283.121 128.88 282.816 124.284 282.87C115.928 282.84 107.582 283.473 99.3256 284.761C96.1569 285.256 93.6076 285.745 91.8472 286.098L89.8194 286.508L89.2913 286.613C89.2308 286.621 89.1693 286.621 89.1088 286.613L89.2848 286.554L89.8064 286.424C90.2628 286.313 90.9409 286.143 91.8211 285.948C93.5684 285.556 96.1178 285.028 99.2865 284.507C107.549 283.144 115.91 282.476 124.284 282.512C128.899 282.455 133.51 282.771 138.074 283.457C141.81 284.033 145.427 285.218 148.78 286.965C151.042 288.149 153.098 289.69 154.869 291.529C155.348 292.025 155.796 292.55 156.213 293.1L156.532 293.537C156.572 293.584 156.605 293.637 156.63 293.693Z" fill="#263238"/>
<path d="M156.63 291.444C156.63 291.444 156.584 291.405 156.513 291.32L156.193 290.942C156.056 290.766 155.88 290.564 155.665 290.329C155.45 290.094 155.209 289.814 154.915 289.521C153.264 287.858 151.385 286.44 149.334 285.309C146.276 283.643 142.976 282.466 139.554 281.821C135.363 281.055 131.113 280.664 126.853 280.653C119.11 280.496 111.365 280.903 103.681 281.873C100.727 282.251 98.3541 282.622 96.7111 282.896L94.8268 283.209L94.3313 283.288H94.1617L94.3247 283.242L94.8137 283.131C95.2375 283.04 95.87 282.903 96.6915 282.753C98.3215 282.44 100.701 282.029 103.648 281.625C111.339 280.584 119.1 280.148 126.86 280.321C131.138 280.333 135.407 280.734 139.613 281.521C143.055 282.186 146.37 283.397 149.432 285.107C151.492 286.26 153.365 287.719 154.987 289.436C155.274 289.742 155.521 290.016 155.724 290.27C155.926 290.525 156.102 290.727 156.226 290.922L156.519 291.327C156.561 291.361 156.598 291.4 156.63 291.444Z" fill="#263238"/>
<path d="M156.63 289.156C156.63 289.156 156.584 289.123 156.513 289.038L156.2 288.66C156.065 288.482 155.889 288.28 155.672 288.054C155.454 287.828 155.206 287.56 154.928 287.252C153.3 285.599 151.442 284.189 149.412 283.066C146.396 281.403 143.138 280.224 139.756 279.571C135.608 278.804 131.398 278.414 127.179 278.404C119.509 278.23 111.837 278.614 104.222 279.552C101.295 279.91 98.941 280.269 97.311 280.536L95.4398 280.843L94.9508 280.914C94.8948 280.926 94.8372 280.926 94.7812 280.914L94.9443 280.869L95.4267 280.764C95.8571 280.68 96.483 280.543 97.2915 280.393C98.9084 280.086 101.262 279.688 104.19 279.297C111.814 278.291 119.504 277.874 127.192 278.052C131.429 278.071 135.655 278.483 139.815 279.284C143.224 279.957 146.503 281.17 149.53 282.877C151.566 284.029 153.419 285.48 155.026 287.18C155.313 287.48 155.548 287.754 155.75 288.001C155.952 288.249 156.121 288.458 156.252 288.653L156.539 289.051C156.573 289.083 156.603 289.118 156.63 289.156Z" fill="#263238"/>
<path d="M156.63 286.88C156.63 286.88 156.584 286.847 156.513 286.763L156.206 286.391C155.939 286.065 155.554 285.589 154.974 285.009C151.027 280.938 145.967 278.124 140.428 276.917C136.711 276.089 132.506 276.05 128.111 276.109C119.309 276.161 111.348 276.539 105.617 277.146C102.749 277.433 100.401 277.739 98.8431 277.98L97.0045 278.254L96.522 278.319C96.4681 278.329 96.4129 278.329 96.359 278.319C96.4122 278.302 96.4667 278.289 96.522 278.28L96.9914 278.176C97.4087 278.098 98.0216 277.974 98.8171 277.843C100.408 277.563 102.729 277.191 105.591 276.898C113.074 276.147 120.591 275.779 128.111 275.796C132.499 275.744 136.744 275.796 140.499 276.644C143.828 277.362 146.995 278.688 149.843 280.556C151.762 281.792 153.515 283.269 155.059 284.95C155.479 285.407 155.875 285.886 156.245 286.384L156.532 286.776C156.568 286.808 156.6 286.843 156.63 286.88Z" fill="#263238"/>
<path d="M156.63 284.618C156.63 284.618 156.591 284.618 156.519 284.5L156.213 284.129C155.952 283.803 155.561 283.32 155.026 282.72C153.54 281.023 151.849 279.516 149.993 278.234C148.712 277.358 147.342 276.622 145.905 276.037C144.243 275.385 142.519 274.902 140.76 274.596C136.718 273.921 132.617 273.668 128.522 273.84C119.792 274.101 111.916 274.942 106.204 275.385C103.349 275.613 101.04 275.783 99.4365 275.874L97.5979 275.966H97.1154L97.5913 275.92L99.43 275.763L106.185 275.164C111.89 274.662 119.766 273.781 128.516 273.521C132.637 273.34 136.765 273.595 140.832 274.283C142.617 274.603 144.365 275.103 146.048 275.776C147.5 276.378 148.882 277.136 150.169 278.039C152.028 279.345 153.707 280.891 155.163 282.635C155.685 283.248 156.063 283.744 156.304 284.089L156.584 284.481C156.603 284.525 156.619 284.571 156.63 284.618Z" fill="#263238"/>
<path d="M160.724 293.074C160.724 293.074 160.757 293.015 160.829 292.918L161.155 292.494C161.582 291.949 162.041 291.431 162.531 290.942C164.335 289.143 166.418 287.646 168.698 286.508C172.083 284.822 175.722 283.703 179.469 283.196C184.042 282.594 188.656 282.363 193.266 282.505C201.641 282.623 209.992 283.443 218.231 284.957C221.387 285.543 223.923 286.117 225.67 286.541C226.544 286.75 227.215 286.932 227.672 287.05L228.187 287.193C228.248 287.205 228.307 287.225 228.363 287.252C228.303 287.262 228.241 287.262 228.18 287.252L227.652 287.141L225.638 286.691C223.884 286.313 221.347 285.772 218.185 285.224C209.954 283.78 201.622 282.993 193.266 282.87C188.672 282.725 184.074 282.943 179.515 283.522C175.796 284.012 172.179 285.095 168.803 286.73C166.532 287.844 164.447 289.302 162.622 291.053C161.97 291.672 161.513 292.187 161.207 292.546L160.855 292.957L160.724 293.074Z" fill="#263238"/>
<path d="M160.764 290.792L160.861 290.649L161.161 290.251C161.292 290.075 161.468 289.866 161.676 289.599C161.885 289.332 162.133 289.077 162.426 288.784C164.081 287.096 165.982 285.669 168.066 284.552C171.155 282.897 174.49 281.748 177.944 281.149C182.163 280.439 186.438 280.116 190.716 280.184C198.478 280.162 206.23 280.747 213.902 281.931C216.842 282.388 219.209 282.844 220.839 283.19C221.654 283.353 222.28 283.503 222.71 283.6L223.193 283.718C223.249 283.729 223.303 283.747 223.356 283.77C223.299 283.779 223.242 283.779 223.186 283.77L222.697 283.685L220.813 283.34C219.176 283.033 216.809 282.616 213.862 282.186C206.197 281.075 198.461 280.526 190.716 280.543C186.459 280.474 182.204 280.786 178.002 281.475C174.574 282.055 171.259 283.171 168.177 284.781C166.102 285.871 164.195 287.257 162.517 288.895C162.218 289.182 161.963 289.449 161.755 289.684C161.546 289.918 161.35 290.12 161.213 290.29L160.887 290.662L160.764 290.792Z" fill="#263238"/>
<path d="M160.809 288.536C160.809 288.536 160.809 288.484 160.9 288.393L161.2 288.001C161.358 287.775 161.528 287.557 161.709 287.349C161.943 287.066 162.191 286.793 162.452 286.534C164.089 284.863 165.969 283.448 168.027 282.336C171.083 280.681 174.385 279.53 177.807 278.926C181.983 278.199 186.217 277.863 190.456 277.922C198.146 277.886 205.828 278.444 213.432 279.591C216.347 280.034 218.694 280.477 220.304 280.81C221.113 280.973 221.739 281.123 222.162 281.214L222.638 281.331C222.695 281.339 222.75 281.357 222.801 281.384C222.745 281.392 222.688 281.392 222.632 281.384L222.149 281.305L220.278 280.96C218.661 280.666 216.307 280.262 213.393 279.851C205.795 278.774 198.129 278.248 190.456 278.28C186.238 278.224 182.024 278.549 177.866 279.252C174.472 279.842 171.192 280.959 168.144 282.564C166.094 283.652 164.21 285.029 162.55 286.652C162.257 286.932 162.002 287.199 161.794 287.434C161.585 287.669 161.396 287.865 161.259 288.028L160.933 288.406C160.855 288.497 160.816 288.543 160.809 288.536Z" fill="#263238"/>
<path d="M160.848 284.618C161.324 283.94 161.873 283.317 162.485 282.759C164.161 281.24 166.09 280.024 168.183 279.167C169.613 278.554 171.073 278.016 172.558 277.556C174.251 276.984 175.98 276.529 177.735 276.194C181.465 275.496 185.644 275.542 189.973 275.692C198.671 275.966 206.482 277.041 212.141 277.7L218.831 278.508L220.65 278.724L221.119 278.789L221.282 278.821H221.119H220.643L218.818 278.665C217.233 278.521 214.938 278.28 212.115 277.967C206.456 277.361 198.651 276.331 189.98 276.057C185.644 275.92 181.504 275.855 177.807 276.526C176.063 276.847 174.343 277.283 172.656 277.83C171.059 278.326 169.592 278.841 168.288 279.395C166.207 280.228 164.279 281.4 162.583 282.864C162.318 283.094 162.066 283.338 161.826 283.594C161.639 283.77 161.463 283.957 161.298 284.155L160.979 284.513C160.894 284.585 160.855 284.624 160.848 284.618Z" fill="#263238"/>
<path d="M189.171 290.531V301.563L192.829 298.257L196.408 301.394L196.617 290.649C196.617 290.649 190.736 290.336 189.171 290.531Z" fill="#2872E0"/>
<path d="M230.528 296.94L230.339 296.908L229.797 296.784L227.731 296.288C225.931 295.858 223.323 295.265 220.083 294.626C216.842 293.987 212.969 293.322 208.653 292.605L201.892 291.49C199.483 291.062 197.047 290.801 194.602 290.707C192.155 290.604 189.704 290.639 187.261 290.812C184.987 290.952 182.729 291.288 180.513 291.816C176.76 292.743 173.239 294.437 170.172 296.79C168.999 297.695 167.884 298.673 166.834 299.718C165.895 300.637 165.132 301.472 164.513 302.156L163.111 303.754L162.746 304.171C162.661 304.262 162.615 304.308 162.609 304.301L162.72 304.145L163.059 303.715C163.359 303.33 163.815 302.776 164.415 302.072C165.015 301.367 165.771 300.52 166.697 299.588C167.737 298.519 168.848 297.521 170.022 296.601C173.103 294.192 176.658 292.459 180.454 291.516C182.686 290.971 184.962 290.624 187.254 290.479C189.71 290.301 192.175 290.264 194.635 290.368C197.093 290.462 199.542 290.728 201.963 291.164L208.725 292.298C213.034 293.022 216.914 293.72 220.148 294.391C223.382 295.063 226.016 295.695 227.783 296.158C228.676 296.386 229.367 296.582 229.837 296.719L230.365 296.875C230.422 296.888 230.477 296.91 230.528 296.94Z" fill="#263238"/>
<path d="M153.65 304.484C153.65 304.484 153.592 304.432 153.487 304.321L153.037 303.825C152.835 303.61 152.601 303.33 152.301 303.024C152.001 302.717 151.649 302.372 151.244 301.98C148.938 299.823 146.331 298.011 143.505 296.601C139.305 294.531 134.795 293.161 130.152 292.546C124.459 291.849 118.7 291.891 113.018 292.67C106.961 293.42 101.282 294.626 96.0657 295.695C90.8497 296.764 86.2009 297.69 82.2302 298.264C79.0995 298.731 75.9457 299.027 72.7828 299.151C71.6613 299.183 70.7876 299.196 70.1748 299.183C70.7616 299.183 71.6287 299.144 72.7502 299.092C75.9032 298.918 79.0455 298.585 82.165 298.094C86.1227 297.501 90.7975 296.556 95.9744 295.486C101.151 294.417 106.863 293.178 112.926 292.429C118.638 291.648 124.426 291.615 130.146 292.331C134.819 292.966 139.355 294.369 143.57 296.484C146.41 297.889 149.027 299.706 151.336 301.876L152.379 302.945C152.672 303.265 152.894 303.552 153.09 303.773L153.52 304.288C153.573 304.347 153.617 304.413 153.65 304.484Z" fill="#263238"/>
<path d="M153.65 306.773C153.65 306.773 153.592 306.72 153.487 306.61L153.037 306.114C152.835 305.899 152.601 305.618 152.301 305.312L151.244 304.269C148.936 302.113 146.33 300.302 143.505 298.89C139.305 296.819 134.795 295.449 130.152 294.834C124.459 294.138 118.7 294.179 113.018 294.958C106.961 295.708 101.282 296.914 96.0657 297.984C90.8497 299.053 86.2009 299.985 82.2302 300.552C79.0996 301.021 75.9458 301.319 72.7828 301.446C71.6613 301.446 70.7876 301.485 70.1748 301.446C70.7616 301.446 71.6287 301.407 72.7502 301.354C75.9032 301.183 79.0455 300.852 82.165 300.363C86.1227 299.764 90.7975 298.825 95.9744 297.723C101.151 296.621 106.863 295.421 112.926 294.665C118.638 293.884 124.426 293.851 130.146 294.567C134.818 295.205 139.354 296.609 143.57 298.72C146.401 300.161 149.002 302.013 151.29 304.217L152.333 305.286C152.627 305.605 152.848 305.892 153.044 306.114L153.474 306.636C153.611 306.707 153.657 306.766 153.65 306.773Z" fill="#263238"/>
<path d="M146.948 304.83C146.821 304.751 146.701 304.661 146.589 304.562C146.354 304.386 146.035 304.093 145.579 303.767C144.327 302.818 142.999 301.974 141.608 301.244C139.545 300.16 137.372 299.299 135.127 298.675C132.377 297.913 129.557 297.431 126.71 297.234C121.522 296.975 116.322 297.235 111.186 298.01L106.504 298.662L105.2 298.838C105.053 298.854 104.904 298.854 104.757 298.838C104.899 298.791 105.045 298.756 105.194 298.733L106.459 298.499C107.554 298.297 109.145 298.023 111.127 297.729C116.276 296.888 121.499 296.595 126.71 296.856C129.579 297.052 132.42 297.548 135.186 298.336C137.45 298.979 139.636 299.869 141.706 300.989C143.086 301.738 144.396 302.611 145.618 303.597C146.061 303.943 146.367 304.249 146.589 304.445C146.726 304.556 146.846 304.685 146.948 304.83Z" fill="#263238"/>
<path d="M121.846 258.688L144.874 253.713C144.874 253.713 153.507 251.972 155.176 252.891C156.845 253.811 166.462 261.504 167.29 262.221C168.118 262.939 177.311 273.957 177.311 273.957C177.311 273.957 177.103 277.446 172.056 276.044C169.448 275.327 158.416 265.677 158.416 265.677L155.828 263.643C155.828 263.643 159.851 269.876 159.773 271.923C159.694 273.97 157.132 278.058 156.252 278.619C155.372 279.18 150.964 278.411 150.964 278.411C150.964 278.411 147.834 281.788 145.376 279.128C145.376 279.128 141.184 283.49 137.781 280.96L135.955 277.38L134.214 276.031C134.214 276.031 133.947 278.495 132.258 278.769C130.57 279.043 111.629 274.961 111.629 274.961L118.149 257.142L121.846 258.688Z" fill="#FFBF9D"/>
<path d="M146.328 264.992C146.521 265.083 146.699 265.201 146.856 265.344C147.182 265.599 147.645 265.996 148.16 266.472C149.586 267.769 150.859 269.224 151.955 270.808C152.258 271.276 152.507 271.777 152.698 272.301C152.909 272.794 152.975 273.337 152.887 273.866C152.767 274.731 152.534 275.577 152.196 276.383C151.987 276.93 151.718 277.453 151.394 277.941C151.283 278.126 151.134 278.286 150.957 278.411C150.957 278.411 151.088 278.221 151.283 277.869C151.56 277.365 151.792 276.837 151.975 276.292C152.271 275.498 152.475 274.674 152.581 273.833C152.604 273.597 152.604 273.359 152.581 273.123C152.537 272.881 152.471 272.643 152.385 272.412C152.194 271.915 151.951 271.438 151.662 270.991C150.58 269.439 149.356 267.991 148.004 266.668C146.987 265.618 146.296 265.031 146.328 264.992Z" fill="#FF9A6C"/>
<path d="M134.442 267.04C134.665 266.924 134.905 266.847 135.153 266.811C135.823 266.665 136.514 266.637 137.194 266.727C139.457 267.059 141.497 268.27 142.873 270.098C143.586 271.117 144.126 272.247 144.47 273.442C144.758 274.403 144.976 275.384 145.122 276.376C145.253 277.217 145.324 277.908 145.363 278.384C145.393 278.631 145.393 278.881 145.363 279.128C145.305 279.128 145.187 278.085 144.868 276.415C144.68 275.442 144.436 274.479 144.138 273.534C143.791 272.37 143.261 271.269 142.566 270.274C141.837 269.319 140.924 268.521 139.88 267.926C139.027 267.435 138.093 267.099 137.122 266.935C136.229 266.836 135.325 266.871 134.442 267.04Z" fill="#FF9A6C"/>
<path d="M148.082 258.225C148.082 258.225 148.213 258.159 148.473 258.101C148.634 258.069 148.799 258.058 148.962 258.068C149.182 258.064 149.401 258.089 149.614 258.14C150.828 258.453 151.947 259.057 152.874 259.9C153.817 260.695 154.662 261.599 155.391 262.593C155.726 262.981 155.994 263.422 156.187 263.897C155.826 263.539 155.488 263.157 155.176 262.756C154.399 261.818 153.547 260.946 152.627 260.148C151.737 259.341 150.686 258.732 149.543 258.361C149.062 258.267 148.572 258.221 148.082 258.225Z" fill="#FF9A6C"/>
<path d="M117.803 254.73L106.276 250.238L85.0534 251.326L74.4779 265.592L70.2334 286.137C70.2334 286.137 109.099 277.602 110.331 277.485C111.564 277.367 113.546 275.372 113.546 275.372L117.692 276.239L123.006 258.44L117.803 254.73Z" fill="#2872E0"/>
<path d="M124.747 257.488L124.591 257.449L124.147 257.286L122.432 256.634L116.167 254.215L106.889 250.59L101.419 248.432C99.4862 247.614 97.4993 246.932 95.4723 246.391C93.4454 245.867 91.3418 245.705 89.2587 245.915C87.3216 246.116 85.4203 246.577 83.6059 247.284C80.5297 248.516 77.6518 250.195 75.0647 252.265C72.8283 254 71.1527 255.525 69.9465 256.601L68.5903 257.82L68.2317 258.127C68.147 258.199 68.1013 258.231 68.1013 258.225C68.1305 258.181 68.1656 258.141 68.2056 258.107L68.5447 257.768L69.8487 256.503C71.0027 255.421 72.6784 253.843 74.9017 252.076C77.4891 249.962 80.3792 248.247 83.4755 246.991C85.3161 246.266 87.246 245.792 89.2131 245.582C91.3328 245.369 93.4735 245.53 95.5375 246.058C97.5815 246.603 99.5839 247.294 101.529 248.125L106.993 250.303L116.245 253.993L122.472 256.51L124.16 257.214L124.591 257.403L124.747 257.488Z" fill="#263238"/>
<path d="M219.359 288.738C218.896 287.962 218.707 286.86 219.835 285.537L222.938 284.155C223.292 283.193 223.806 282.298 224.457 281.508C225.253 280.784 226.413 279.858 226.413 279.858C226.413 279.858 228.128 277.485 229.778 276.494C231.427 275.503 235.457 274.446 236.845 273.234C238.234 272.021 242.59 268.213 245.628 269.667C248.666 271.121 250.844 276.226 253.217 277.302C255.59 278.378 256.477 281.944 257.377 283.398C258.277 284.852 259.294 285.909 259.424 287.03C259.555 288.151 262.13 290.401 262.593 293.433C263.056 296.464 262.795 297.527 261.406 298.649C260.018 299.77 257.312 302.019 254.606 302.417C253.087 302.639 251.007 302.776 249.475 302.854C248.866 302.886 248.262 302.735 247.739 302.421C247.216 302.108 246.799 301.646 246.541 301.094L246.352 300.696C246.352 300.696 239.421 304.197 236.122 303.734C232.823 303.271 234.166 300.435 234.166 300.435C234.166 300.435 230.795 303.695 228.682 303.076C226.57 302.456 225.422 302.548 225.253 300.696C225.083 298.844 226.635 296.732 226.635 296.732C226.635 296.732 223.466 296.803 223.206 294.691C223.115 293.188 223.409 291.687 224.06 290.329L221.517 290.042C221.081 290.004 220.661 289.867 220.287 289.641C219.912 289.415 219.595 289.106 219.359 288.738Z" fill="#FFBF9D"/>
<path d="M237.1 274.59C237.021 274.85 236.916 275.101 236.787 275.34C236.654 275.63 236.501 275.911 236.33 276.181C236.121 276.547 235.893 276.902 235.646 277.243C235.004 278.137 234.296 278.98 233.527 279.767C232.666 280.653 231.675 281.586 230.619 282.544C229.563 283.503 228.585 284.428 227.724 285.309C226.968 286.085 226.268 286.916 225.631 287.793C224.549 289.305 224.131 290.401 224.06 290.355C224.132 290.094 224.231 289.841 224.353 289.599C224.469 289.3 224.611 289.012 224.777 288.738C224.973 288.365 225.191 288.004 225.429 287.656C226.05 286.748 226.744 285.891 227.502 285.094C228.35 284.194 229.341 283.255 230.391 282.296C231.44 281.338 232.438 280.419 233.305 279.552C234.074 278.783 234.791 277.964 235.45 277.1C236.565 275.62 237.034 274.551 237.1 274.59Z" fill="#FF9A6C"/>
<path d="M245.7 277.452C245.683 277.545 245.655 277.634 245.615 277.719C245.55 277.895 245.452 278.143 245.308 278.463C244.907 279.359 244.452 280.23 243.946 281.071C242.274 283.884 240.057 286.336 237.426 288.282C235.907 289.442 234.394 290.446 233.044 291.379C231.695 292.311 230.495 293.185 229.543 293.987C228.786 294.599 228.064 295.252 227.378 295.943C227.147 296.219 226.896 296.478 226.629 296.719C226.818 296.41 227.036 296.119 227.281 295.852C227.933 295.11 228.637 294.415 229.387 293.772C230.332 292.957 231.519 292.057 232.862 291.105C234.205 290.153 235.711 289.149 237.217 287.995C238.636 286.929 239.946 285.725 241.129 284.402C242.088 283.314 242.96 282.152 243.737 280.927C244.389 279.878 244.865 278.971 245.185 278.371C245.333 278.053 245.505 277.745 245.7 277.452Z" fill="#FF9A6C"/>
<path d="M246.762 278.274C246.821 278.345 246.325 278.893 245.641 279.493C244.956 280.093 244.337 280.523 244.298 280.451C244.259 280.38 244.735 279.838 245.419 279.239C245.799 278.832 246.256 278.504 246.762 278.274Z" fill="#FF9A6C"/>
<path d="M250.87 286.228C250.814 286.518 250.724 286.8 250.603 287.069C250.307 287.819 249.926 288.532 249.468 289.195C247.912 291.355 245.936 293.18 243.659 294.561C241.051 296.23 238.619 297.599 236.917 298.681C236.063 299.216 235.379 299.666 234.909 299.985C234.675 300.162 234.426 300.319 234.166 300.455C234.361 300.24 234.58 300.047 234.818 299.881C235.268 299.529 235.933 299.053 236.774 298.486C238.449 297.345 240.875 295.943 243.463 294.28C245.704 292.919 247.67 291.15 249.26 289.064C249.873 288.164 250.411 287.216 250.87 286.228Z" fill="#FF9A6C"/>
<path d="M257.618 290.525C257.555 290.721 257.465 290.907 257.351 291.079C257.168 291.424 256.868 291.907 256.477 292.487C255.436 293.993 254.236 295.383 252.898 296.634C252.159 297.317 251.382 297.957 250.57 298.551C249.898 299.028 249.197 299.464 248.471 299.855C248.164 300.024 247.877 300.155 247.623 300.272C247.369 300.389 247.147 300.481 246.971 300.546C246.786 300.636 246.588 300.696 246.384 300.722C246.384 300.67 247.167 300.344 248.34 299.64C249.04 299.229 249.717 298.781 250.368 298.297C251.098 297.742 251.881 297.103 252.657 296.386C253.973 295.143 255.181 293.791 256.269 292.344C257.11 291.235 257.54 290.499 257.618 290.525Z" fill="#FF9A6C"/>
<path d="M225.664 283.059C224.74 283.568 223.779 284.004 222.788 284.363C221.83 284.81 220.843 285.193 219.835 285.511C219.783 285.406 221.041 284.728 222.658 284.05C224.275 283.372 225.625 282.968 225.664 283.059Z" fill="#FF9A6C"/>
<path d="M227.548 270.952C228.679 270.916 229.811 270.951 230.938 271.056C228.678 271.204 226.411 271.204 224.151 271.056C225.28 270.951 226.415 270.916 227.548 270.952Z" fill="#2872E0"/>
</svg>
