<svg width="88" height="117" viewBox="0 0 88 117" fill="none" xmlns="http://www.w3.org/2000/svg">
<path d="M30.9516 57.9251C30.9516 57.9251 6.04593 58.2549 5.26993 60.028C4.49393 61.8012 0.951488 83.277 0.730328 90.68C0.509168 98.0831 0.400528 102.968 1.17265 103.853C1.94477 104.737 14.0154 111.713 14.0154 111.713C14.0154 111.713 8.37004 131.529 10.1354 132.196C11.9008 132.863 22.7571 135.626 29.7294 135.738C36.7018 135.851 43.5694 135.847 44.1242 135.847C44.6791 135.847 62.4999 136.511 68.7002 135.071C74.9004 133.632 76.7783 133.519 76.7783 131.086C76.7783 128.654 75.2263 125.654 75.1177 125.111C75.009 124.568 79.3275 82.598 76.8908 72.3043C74.4542 62.0107 71.2454 58.0221 68.8088 57.3586C66.3722 56.6951 48.9936 57.1374 48.9936 57.1374L30.9516 57.9251Z" fill="#48E5C2"/>
<path d="M53.6806 136.216C50.9646 136.216 47.9344 136.173 44.6674 136.08H44.1281C42.8865 136.08 36.3681 136.08 29.7333 135.971C22.6445 135.859 11.796 133.061 10.0733 132.413C9.68532 132.274 8.80456 131.94 11.2373 121.701C12.3004 117.192 13.5653 112.703 13.7981 111.845C12.4207 111.05 1.78952 104.881 1.04068 104.019C0.221999 103.084 0.315117 98.5875 0.547917 90.715C0.772957 83.2149 4.37359 61.6499 5.10303 59.9776C5.87903 58.1812 26.7728 57.8126 30.9594 57.7582L49.0014 56.9822C49.7153 56.9628 66.4613 56.5477 68.8747 57.2112C70.3724 57.5992 74.1631 59.9039 77.0964 72.2966C79.1024 80.7783 76.5804 110.22 75.6298 121.301C75.4474 123.431 75.3155 124.971 75.3272 125.123C75.4144 125.393 75.5154 125.658 75.6298 125.918C76.1032 127.082 76.9878 129.271 76.9878 131.125C76.9878 133.453 75.4086 133.795 70.7138 134.854L68.7738 135.3C66.0966 135.913 60.8625 136.216 53.6806 136.216ZM60.0244 57.2112C54.7515 57.2112 49.1022 57.3508 49.0014 57.3547L30.9594 58.1307C21.3758 58.2588 5.97992 58.9067 5.45224 60.1173C4.72668 61.774 1.1532 83.2382 0.928156 90.7111C0.734156 97.2411 0.563436 102.883 1.31616 103.752C1.93308 104.458 10.7601 109.634 14.1202 111.57C14.1575 111.592 14.1866 111.625 14.2028 111.665C14.2189 111.705 14.2213 111.75 14.2094 111.791C11.4507 121.448 9.20419 131.645 10.2091 132.033C11.9202 132.673 22.695 135.451 29.7372 135.564C36.3758 135.669 42.8865 135.673 44.1281 135.673H44.679C56.5169 136.006 65.0335 135.731 68.6574 134.897C69.3675 134.73 70.0193 134.586 70.6168 134.45C75.203 133.414 76.5882 133.1 76.5882 131.098C76.5882 129.321 75.7229 127.183 75.2573 126.035C75.1307 125.749 75.0218 125.456 74.9314 125.158C74.912 125.045 74.9663 124.362 75.234 121.239C76.1808 110.173 78.6989 80.7822 76.7045 72.3509C73.8217 60.16 70.19 57.9406 68.7622 57.5487C67.7417 57.2926 63.9898 57.2112 60.0244 57.2112Z" fill="#263238"/>
<path d="M41.6295 68.339C41.5915 68.3396 41.5542 68.3289 41.5224 68.3082C41.4906 68.2874 41.4658 68.2576 41.451 68.2226C41.4408 68.1992 41.4352 68.174 41.4347 68.1484C41.4342 68.1228 41.4388 68.0974 41.4482 68.0736C41.4576 68.0498 41.4716 68.0281 41.4894 68.0097C41.5072 67.9913 41.5284 67.9766 41.5519 67.9665C42.4341 67.5897 43.292 67.1582 44.1205 66.6745C44.1426 66.6617 44.1671 66.6535 44.1924 66.6502C44.2178 66.6469 44.2436 66.6487 44.2682 66.6553C44.2929 66.662 44.316 66.6735 44.3363 66.6891C44.3565 66.7047 44.3735 66.7241 44.3863 66.7463C44.399 66.7684 44.4072 66.7929 44.4105 66.8182C44.4138 66.8436 44.4121 66.8693 44.4054 66.894C44.3987 66.9187 44.3873 66.9418 44.3717 66.9621C44.3561 66.9823 44.3366 66.9993 44.3145 67.012C43.4721 67.503 42.6 67.941 41.7032 68.3235C41.6802 68.3342 41.6549 68.3395 41.6295 68.339Z" fill="#263238"/>
<path d="M45.3891 66.3136C45.3571 66.3133 45.3256 66.3054 45.2973 66.2906C45.269 66.2758 45.2445 66.2544 45.2261 66.2283C45.1984 66.185 45.189 66.1326 45.1999 66.0824C45.2108 66.0322 45.2411 65.9884 45.2843 65.9605C48.3686 63.9062 51.0763 61.3364 53.2887 58.3635C53.3034 58.3425 53.3222 58.3247 53.3438 58.311C53.3654 58.2972 53.3896 58.288 53.4148 58.2836C53.4401 58.2793 53.466 58.28 53.4909 58.2857C53.5159 58.2915 53.5395 58.3021 53.5603 58.3169C53.5812 58.3313 53.599 58.3497 53.6126 58.371C53.6263 58.3923 53.6356 58.4161 53.6399 58.441C53.6442 58.466 53.6436 58.4915 53.6379 58.5162C53.6322 58.5408 53.6217 58.5641 53.6069 58.5847C51.3647 61.5962 48.6217 64.2 45.4977 66.2826C45.4656 66.3039 45.4276 66.3148 45.3891 66.3136Z" fill="#263238"/>
<path d="M47.6705 67.4C47.6356 67.3997 47.6015 67.3902 47.5716 67.3725C47.5416 67.3548 47.5168 67.3295 47.4997 67.2992C47.4874 67.2767 47.4797 67.2521 47.477 67.2267C47.4742 67.2013 47.4765 67.1756 47.4837 67.1511C47.4909 67.1266 47.5029 67.1037 47.519 67.0839C47.535 67.064 47.5549 67.0475 47.5773 67.0353C49.5173 65.9955 51.7871 62.8255 51.8104 62.7945C51.8241 62.7713 51.8425 62.7513 51.8643 62.7356C51.8862 62.72 51.9111 62.709 51.9374 62.7035C51.9637 62.6979 51.9909 62.6979 52.0172 62.7035C52.0435 62.709 52.0684 62.7199 52.0903 62.7356C52.1121 62.7512 52.1305 62.7713 52.1442 62.7944C52.1579 62.8176 52.1667 62.8433 52.1699 62.87C52.1732 62.8967 52.1708 62.9238 52.163 62.9495C52.1552 62.9752 52.1422 62.9991 52.1247 63.0195C52.0316 63.1514 49.7967 66.2942 47.7597 67.3767C47.7325 67.3922 47.7017 67.4002 47.6705 67.4Z" fill="#263238"/>
<path d="M36.1431 98.5719C36.1023 98.5714 36.0627 98.5579 36.03 98.5335C35.9972 98.5092 35.973 98.4751 35.9608 98.4361L35.3089 96.4108C35.3005 96.3866 35.297 96.361 35.2988 96.3354C35.3005 96.3099 35.3074 96.2849 35.319 96.2621C35.3305 96.2393 35.3466 96.219 35.3663 96.2026C35.3859 96.1861 35.4086 96.1738 35.4331 96.1663C35.482 96.1504 35.5352 96.1546 35.581 96.1778C35.6268 96.2011 35.6615 96.2416 35.6775 96.2905L36.3294 98.3158C36.3453 98.3647 36.3411 98.4179 36.3179 98.4638C36.2946 98.5096 36.2541 98.5443 36.2052 98.5603C36.1854 98.5679 36.1644 98.5719 36.1431 98.5719Z" fill="#263238"/>
<path d="M39.6972 109.607C39.6562 109.607 39.6164 109.594 39.5835 109.569C39.5506 109.545 39.5266 109.51 39.5148 109.471L36.6281 100.512C36.6122 100.461 36.6173 100.405 36.6424 100.357C36.6675 100.309 36.7105 100.274 36.762 100.258C36.8134 100.242 36.8691 100.247 36.9168 100.272C36.9644 100.297 37.0002 100.34 37.0161 100.392L39.9028 109.354C39.9177 109.403 39.9131 109.456 39.89 109.502C39.8668 109.547 39.8269 109.582 39.7787 109.599L39.6972 109.607Z" fill="#263238"/>
<path d="M40.5857 109.828C40.5483 109.83 40.5114 109.819 40.4809 109.797C40.4592 109.783 40.4404 109.766 40.4255 109.745C40.4107 109.724 40.4001 109.701 40.3943 109.676C40.3885 109.651 40.3877 109.625 40.3919 109.6C40.3962 109.575 40.4053 109.551 40.4188 109.529L43.2978 104.993C43.3109 104.971 43.3283 104.952 43.3491 104.937C43.3698 104.922 43.3934 104.911 43.4184 104.905C43.4434 104.899 43.4693 104.899 43.4946 104.903C43.5199 104.908 43.544 104.917 43.5655 104.931C43.6085 104.959 43.639 105.003 43.6506 105.053C43.6622 105.103 43.6539 105.155 43.6276 105.199L40.7486 109.739C40.7309 109.766 40.7067 109.788 40.6783 109.804C40.6499 109.819 40.6181 109.827 40.5857 109.828Z" fill="#263238"/>
<path d="M47.1157 107.17C47.0778 107.171 47.0404 107.161 47.0083 107.141C46.9761 107.121 46.9507 107.092 46.9353 107.057C46.9199 107.023 46.9151 106.984 46.9217 106.947C46.9283 106.91 46.9458 106.875 46.9722 106.848L53.9562 98.9871C53.9906 98.9485 54.039 98.9252 54.0907 98.9223C54.1423 98.9194 54.193 98.9371 54.2316 98.9716C54.2702 99.0061 54.2935 99.0544 54.2965 99.1061C54.2994 99.1578 54.2816 99.2085 54.2472 99.2471L47.2632 107.108C47.2446 107.128 47.2217 107.145 47.1963 107.155C47.1708 107.166 47.1433 107.171 47.1157 107.17Z" fill="#263238"/>
<path d="M30.7964 8.6995C30.7964 8.6995 22.9782 6.90306 21.4844 8.9129C19.9906 10.9227 22.9666 12.8239 22.5437 13.2469C22.1208 13.6698 13.0299 18.318 13.7671 22.8654C14.5043 27.4127 20.6386 32.061 20.852 33.3414C21.0654 34.6218 13.7671 35.0331 12.8165 36.9343C11.8659 38.8355 10.4885 47.8215 18.4192 50.782C26.35 53.7424 36.2672 48.7721 39.0298 48.7721C41.7924 48.7721 44.5278 54.1653 47.6977 53.8472C49.6289 53.6262 51.4047 52.6821 52.668 51.2049C52.668 51.2049 55.9427 55.7523 60.6996 53.8472C65.4565 51.9421 70.9544 45.284 68.6303 43.2781C66.3062 41.2721 63.66 40.6358 65.3517 38.8393C67.0434 37.0429 70.5315 32.286 70.0077 28.1616C69.4839 24.0371 64.6145 23.7229 62.7133 22.4541C60.8121 21.1853 64.8279 19.0707 64.7232 15.5826C64.6184 12.0945 62.077 6.27062 49.1838 2.39062C36.2905 -1.48938 29.9467 0.380779 29.3104 3.65938C29.1115 4.5566 29.1435 5.48961 29.4034 6.37108C29.6633 7.25256 30.1426 8.05369 30.7964 8.6995Z" fill="#263238"/>
<path d="M58.4026 54.4913C55.3801 54.4913 53.2461 52.1904 52.6757 51.4998C51.3928 52.9237 49.6332 53.8291 47.7287 54.0451C45.9633 54.2235 44.3648 52.753 42.8244 51.3291C41.5052 50.1107 40.2558 48.9623 39.0414 48.9623C38.3003 48.9623 36.9695 49.3503 35.2856 49.8469C30.843 51.1467 24.1267 53.11 18.3649 50.9605C15.6101 49.9323 13.7089 48.1048 12.6846 45.5285C11.3266 42.0675 11.9939 38.1565 12.6535 36.845C13.1967 35.7625 15.5092 35.1572 17.5501 34.6257C18.974 34.2377 20.7433 33.7915 20.6541 33.3685C20.5648 32.9456 19.7772 32.1075 18.8344 31.091C16.937 29.0385 14.0658 25.9383 13.5731 22.9042C12.9251 18.9272 19.2961 15.0317 21.6978 13.565C22.0315 13.3594 22.3496 13.177 22.4001 13.1149C22.2741 12.9022 22.1313 12.6998 21.9733 12.5097C21.3292 11.6716 20.2506 10.2631 21.3253 8.80427C22.629 7.03499 28.3093 8.02827 30.2183 8.38911C29.691 7.72361 29.3194 6.94852 29.1308 6.12069C28.9421 5.29286 28.9412 4.4333 29.128 3.60506C29.2441 3.10581 29.4655 2.6371 29.7773 2.23027C30.0891 1.82345 30.4842 1.48789 30.9361 1.24602C34.1681 -0.693976 40.8456 -0.360296 49.2458 2.18886C62.6551 6.2551 64.824 12.3234 64.9249 15.5826C64.9753 17.3364 64.0364 18.7371 63.2798 19.8506C62.7637 20.6266 62.3214 21.2785 62.4145 21.7557C62.4443 21.8672 62.4964 21.9716 62.5678 22.0623C62.6392 22.153 62.7283 22.2282 62.8297 22.2834C63.4773 22.6575 64.1627 22.9618 64.8744 23.1913C67.0744 24.0061 69.8098 25.0227 70.2056 28.1305C70.7255 32.1851 67.4896 36.8489 65.503 38.9635C65.3566 39.0849 65.2381 39.2365 65.1557 39.4079C65.0733 39.5794 65.029 39.7666 65.0258 39.9568C65.0879 40.5233 65.8522 41.0393 66.8222 41.6873C67.497 42.1266 68.1448 42.606 68.7622 43.1229C69.0252 43.3727 69.217 43.688 69.3179 44.0364C69.4188 44.3848 69.4252 44.7538 69.3364 45.1055C68.8476 48.0233 64.5291 52.5202 60.7811 54.0295C60.0247 54.3331 59.2175 54.4898 58.4026 54.4913ZM52.6796 50.9993C52.7095 50.9997 52.7389 51.0073 52.7652 51.0215C52.7916 51.0357 52.8141 51.056 52.8309 51.0807C52.8658 51.1234 56.0785 55.4807 60.6375 53.6571C64.2847 52.1982 68.4829 47.8371 68.9523 45.0396C69.0726 44.3179 68.9252 43.7708 68.51 43.4139C67.9034 42.9107 67.2673 42.4442 66.6049 42.0171C65.5534 41.3109 64.7231 40.7522 64.6378 40.0111C64.6338 39.7636 64.6842 39.5182 64.7854 39.2922C64.8867 39.0663 65.0363 38.8653 65.2236 38.7035C67.0317 36.7635 70.3258 32.1075 69.8214 28.1849C69.4528 25.3137 66.8377 24.3437 64.7386 23.5638C63.9984 23.3242 63.2857 23.0069 62.6124 22.6171C62.4687 22.5334 62.3435 22.4215 62.2441 22.2881C62.1448 22.1548 62.0734 22.0027 62.0343 21.8411C61.9101 21.2086 62.3718 20.518 62.9577 19.645C63.6833 18.5663 64.5835 17.2239 64.5369 15.5943C64.4399 12.4398 62.3136 6.55774 49.1333 2.56134C40.8378 0.043224 34.2768 -0.313736 31.1378 1.5797C30.7327 1.7937 30.3777 2.0916 30.0967 2.45355C29.8157 2.81551 29.6151 3.2332 29.5083 3.67879C29.3133 4.54699 29.3409 5.45038 29.5885 6.30507C29.8361 7.15975 30.2956 7.93802 30.9244 8.56759C30.9567 8.59676 30.9786 8.63556 30.987 8.6782C30.9954 8.72085 30.9898 8.76506 30.971 8.80427C30.9513 8.84298 30.9192 8.87396 30.8798 8.89225C30.8404 8.91054 30.796 8.91508 30.7537 8.90515C28.612 8.41239 22.8036 7.48119 21.6513 9.04095C20.7511 10.267 21.6513 11.431 22.2953 12.2846C22.6833 12.7774 22.9511 13.1382 22.6833 13.3982C22.4376 13.5866 22.1782 13.7565 21.9073 13.9065C19.7927 15.1985 13.3713 19.1289 13.965 22.8499C14.4383 25.7676 17.2591 28.8173 19.1293 30.8349C20.2351 32.0299 20.9645 32.8176 21.046 33.3142C21.174 34.0902 19.6919 34.4782 17.6432 35.0098C15.7769 35.4948 13.4567 36.1001 12.9872 37.0274C12.3742 38.2535 11.7301 42.0908 13.0299 45.3927C13.5035 46.6069 14.2374 47.7027 15.1798 48.6029C16.1223 49.5031 17.2505 50.186 18.4852 50.6035C24.1267 52.7103 30.7654 50.7665 35.1692 49.4822C36.8841 48.9817 38.2344 48.582 39.0492 48.582C40.4149 48.582 41.7186 49.7809 43.096 51.0497C44.5743 52.4116 46.103 53.8161 47.6977 53.6571C49.5741 53.4369 51.2995 52.5202 52.5322 51.0885C52.5484 51.0635 52.5701 51.0424 52.5957 51.027C52.6212 51.0115 52.6499 51.0021 52.6796 50.9993Z" fill="#263238"/>
<path d="M32.2049 42.6146C32.2049 42.6146 29.5626 59.1046 29.4579 59.6323C29.3531 60.1599 34.1139 64.9168 40.5547 64.071C44.3275 63.6175 47.795 61.7716 50.278 58.8951L48.272 42.5098C48.272 42.5098 42.774 45.1521 39.3907 45.0473C36.0073 44.9426 32.2049 42.6146 32.2049 42.6146Z" fill="white"/>
<path d="M39.0336 64.3659C35.5719 64.3093 32.2656 62.9195 29.8031 60.4859C29.2094 59.8534 29.2521 59.6517 29.2676 59.5741C29.3685 59.058 31.9836 42.731 32.0108 42.5641C32.0164 42.5328 32.0295 42.5032 32.049 42.478C32.0685 42.4528 32.0938 42.4326 32.1228 42.4193C32.1518 42.406 32.1835 42.3998 32.2153 42.4014C32.2472 42.403 32.2782 42.4122 32.3057 42.4283C32.3445 42.4516 36.1081 44.7292 39.3983 44.8339C42.6886 44.9387 48.1322 42.343 48.1865 42.3158C48.2141 42.3015 48.2447 42.2941 48.2758 42.2941C48.3068 42.2941 48.3374 42.3015 48.365 42.3158C48.3915 42.3312 48.414 42.3525 48.4308 42.3781C48.4477 42.4037 48.4583 42.4328 48.462 42.4632L50.4718 58.8446C50.4751 58.8699 50.4734 58.8956 50.4667 58.9203C50.4601 58.9449 50.4486 58.968 50.433 58.9882C47.9097 61.8946 44.4011 63.7656 40.5817 64.2417C40.069 64.3171 39.5518 64.3586 39.0336 64.3659ZM32.3522 42.925C31.9914 45.1715 29.7449 59.1783 29.6362 59.6711C29.7177 60.1522 34.2263 64.7151 40.5002 63.8809C44.1891 63.4152 47.5821 61.6222 50.045 58.8369L48.1128 42.7931C46.9954 43.3091 42.4131 45.3306 39.3867 45.2375C36.4495 45.1482 33.2563 43.4449 32.3522 42.925Z" fill="#263238"/>
<path d="M31.1185 51.461L42.2503 49.3076L32.2049 42.6146L31.1185 51.461Z" fill="#263238"/>
<path d="M31.1185 51.655C31.0701 51.6536 31.0236 51.6358 30.9866 51.6045C30.9649 51.583 30.9483 51.5567 30.9383 51.5278C30.9282 51.4989 30.9248 51.4681 30.9284 51.4377L32.0109 42.5913C32.0149 42.5585 32.0274 42.5272 32.0471 42.5007C32.0668 42.4742 32.0931 42.4532 32.1234 42.44C32.1528 42.4247 32.1854 42.4167 32.2185 42.4167C32.2516 42.4167 32.2842 42.4247 32.3136 42.44L42.355 49.1369C42.3876 49.1573 42.4132 49.1872 42.4284 49.2225C42.4437 49.2579 42.4478 49.297 42.4404 49.3347C42.4325 49.3725 42.4135 49.4071 42.3859 49.4341C42.3582 49.4611 42.3231 49.4791 42.2852 49.4861L31.1573 51.6395L31.1185 51.655ZM32.3601 42.9521L31.3436 51.2204L41.7458 49.2067L32.3601 42.9521Z" fill="#263238"/>
<path d="M26.3306 28.0762C26.3306 28.0762 24.4682 25.7172 23.6146 28.697C22.761 31.6769 26.4703 35.293 26.4703 35.293L26.3306 28.0762Z" fill="white"/>
<path d="M26.4548 35.4715C26.4088 35.4693 26.365 35.4515 26.3306 35.4211C26.1754 35.2698 22.5321 31.704 23.4245 28.6466C23.7077 27.6766 24.1345 27.1295 24.6932 27.0209C25.6012 26.8463 26.4586 27.9133 26.4936 27.9598C26.5207 27.9926 26.5357 28.0337 26.5362 28.0762L26.6604 35.2775C26.6603 35.3158 26.6493 35.3533 26.6287 35.3856C26.6081 35.4179 26.5787 35.4437 26.544 35.4599C26.515 35.4681 26.4849 35.472 26.4548 35.4715ZM24.9028 27.3856C24.8589 27.3816 24.8147 27.3816 24.7708 27.3856C24.3828 27.4632 24.0375 27.9327 23.8008 28.7397C23.1296 31.0444 25.3839 33.807 26.2685 34.7731L26.1521 28.1344C25.9154 27.8861 25.38 27.3856 24.8872 27.3856H24.9028Z" fill="#263238"/>
<path d="M53.0133 28.0762C53.0133 28.0762 54.8757 25.7172 55.7293 28.697C56.5829 31.6769 52.8737 35.293 52.8737 35.293L53.0133 28.0762Z" fill="white"/>
<path d="M52.8892 35.4715C52.8635 35.4755 52.8373 35.4755 52.8116 35.4715C52.776 35.4565 52.7457 35.4311 52.7249 35.3985C52.7041 35.3659 52.6938 35.3278 52.6952 35.2891L52.8194 28.0879C52.8204 28.0461 52.8339 28.0055 52.8582 27.9715C52.897 27.9249 53.7583 26.854 54.6585 27.0325C55.2211 27.1411 55.6479 27.6882 55.9311 28.6582C56.8196 31.7157 53.1763 35.2814 53.0211 35.4327C52.9835 35.4616 52.9365 35.4755 52.8892 35.4715ZM53.2035 28.1461L53.1026 34.7847C53.9834 33.8186 56.2415 31.0561 55.5703 28.7513C55.3336 27.9443 54.996 27.4748 54.5964 27.3972C54.061 27.2963 53.4479 27.8628 53.2035 28.1461Z" fill="#263238"/>
<path d="M32.1817 13.1692C32.1817 13.1692 26.8506 18.3491 26.0785 19.9011C25.3063 21.4531 25.6167 39.1381 26.4665 40.8531C27.3162 42.568 35.8134 49.1989 37.2024 49.7382C38.5915 50.2776 41.7614 50.8208 44.233 49.5831C46.7045 48.3453 52.6526 42.0132 53.2734 40.3913C53.8942 38.7695 53.1182 20.2153 52.7302 18.4499C52.3422 16.6845 43.0147 10.3097 39.0571 10.0032C35.0995 9.69665 32.1817 13.1692 32.1817 13.1692Z" fill="white"/>
<path d="M40.6865 50.4987C39.4718 50.5052 38.2653 50.3004 37.1208 49.8935C35.627 49.3115 27.1414 42.634 26.2801 40.9151C25.4187 39.1963 25.085 21.4181 25.8921 19.8041C26.6681 18.2521 31.7121 13.3283 32.0263 13.0373C32.2203 12.8084 35.1303 9.49879 39.0608 9.80919C42.8981 10.1118 52.4739 16.3742 52.9085 18.3801C53.2693 20.0485 54.0725 38.7695 53.4401 40.434C52.7766 42.18 46.7548 48.5083 44.3065 49.746C43.1735 50.271 41.9349 50.5286 40.6865 50.4987ZM38.5525 10.1778C34.9984 10.1778 32.3445 13.2624 32.3173 13.2818C32.263 13.3322 27.0018 18.4538 26.2529 19.9515C25.5041 21.4492 25.8339 39.1032 26.6409 40.7134C27.448 42.3236 35.8598 48.9506 37.276 49.5016C38.7659 50.0797 41.8233 50.5181 44.1513 49.3541C46.6462 48.1087 52.5244 41.7649 53.0948 40.2672C53.7194 38.6298 52.9046 20.0912 52.5438 18.4383C52.1829 16.7854 42.9369 10.4998 39.0414 10.2011C38.8823 10.2011 38.7232 10.1778 38.5641 10.1778H38.5525Z" fill="#263238"/>
<path d="M36.3721 10.0032C36.3721 10.0032 44.3571 17.2898 50.0995 17.5692L55.8458 17.8486C55.8458 17.8486 43.2358 16.1685 39.3131 7.62475C39.3131 7.62475 34.9714 3.99307 36.3721 10.0032Z" fill="#263238"/>
<path d="M55.8457 18.0426L50.1032 17.7632C44.357 17.4838 36.5815 10.4494 36.2517 10.1467C36.2236 10.1205 36.2034 10.0869 36.1935 10.0497C35.7317 8.06319 35.8326 6.89919 36.5039 6.48791C37.4971 5.87875 39.2548 7.31047 39.4488 7.47343C39.4721 7.49211 39.4907 7.51604 39.5031 7.54327C43.3365 15.893 55.7564 17.6313 55.8806 17.6584C55.9307 17.6643 55.9765 17.6895 56.0084 17.7286C56.0403 17.7677 56.0557 17.8177 56.0513 17.8679C56.0455 17.9177 56.021 17.9633 55.9828 17.9957C55.9447 18.0281 55.8957 18.0449 55.8457 18.0426ZM36.5465 9.89455C37.1984 10.4765 44.7217 17.1036 50.1265 17.3674L53.3702 17.5265C49.4902 16.5488 42.0367 13.922 39.1733 7.73727C38.6689 7.32211 37.3381 6.42583 36.7095 6.80995C36.3525 7.02723 36.0538 7.73339 36.5465 9.90231V9.89455Z" fill="#263238"/>
<path d="M41.4625 32.4451C41.4137 32.4453 41.3665 32.427 41.3306 32.3939C41.2946 32.3608 41.2724 32.3153 41.2685 32.2666L40.6516 24.464C40.6496 24.4385 40.6526 24.4128 40.6604 24.3885C40.6683 24.3642 40.6809 24.3417 40.6975 24.3222C40.714 24.3028 40.7343 24.2868 40.757 24.2751C40.7798 24.2635 40.8046 24.2565 40.8301 24.2544C40.8556 24.2524 40.8812 24.2554 40.9055 24.2633C40.9298 24.2711 40.9524 24.2837 40.9718 24.3003C40.9913 24.3169 41.0073 24.3371 41.0189 24.3599C41.0305 24.3826 41.0376 24.4074 41.0396 24.4329L41.6565 32.2356C41.6587 32.2611 41.6557 32.2867 41.6479 32.3111C41.64 32.3355 41.6275 32.358 41.6109 32.3775C41.5943 32.397 41.574 32.413 41.5512 32.4246C41.5284 32.4362 41.5036 32.4432 41.4781 32.4451H41.4625Z" fill="#263238"/>
<path d="M39.6739 36.1544C38.5953 36.1544 37.5632 34.9904 37.5205 34.9283C37.5024 34.9094 37.4882 34.8871 37.479 34.8626C37.4697 34.8381 37.4655 34.8119 37.4666 34.7858C37.4677 34.7596 37.4741 34.7339 37.4854 34.7103C37.4967 34.6867 37.5126 34.6656 37.5323 34.6483C37.5519 34.631 37.5749 34.6178 37.5998 34.6096C37.6246 34.6015 37.6509 34.5984 37.677 34.6006C37.7031 34.6029 37.7285 34.6104 37.7516 34.6227C37.7747 34.635 37.7951 34.6518 37.8115 34.6722C37.8115 34.6722 38.7738 35.7664 39.6739 35.7664C40.415 35.7664 41.5363 34.323 41.9088 33.7682C41.9225 33.7467 41.9404 33.7282 41.9615 33.7138C41.9825 33.6994 42.0062 33.6894 42.0312 33.6843C42.0561 33.6792 42.0819 33.6792 42.1068 33.6843C42.1318 33.6894 42.1555 33.6994 42.1765 33.7139C42.219 33.7423 42.2486 33.7864 42.2588 33.8365C42.269 33.8867 42.2589 33.9388 42.2308 33.9816C42.0834 34.2027 40.7526 36.1544 39.6739 36.1544Z" fill="#263238"/>
<path d="M38.4478 39.7317C38.2111 39.7317 37.9705 39.7317 37.73 39.7085C35.3399 39.5494 33.559 36.6471 33.4814 36.523C33.4681 36.5011 33.4593 36.4768 33.4555 36.4515C33.4516 36.4262 33.4528 36.4003 33.4589 36.3755C33.465 36.3506 33.476 36.3272 33.4912 36.3066C33.5063 36.2859 33.5254 36.2685 33.5473 36.2553C33.5692 36.242 33.5935 36.2332 33.6189 36.2294C33.6442 36.2255 33.67 36.2267 33.6949 36.2328C33.7197 36.2389 33.7431 36.2499 33.7638 36.2651C33.7844 36.2802 33.8018 36.2993 33.8151 36.3212C33.8151 36.3523 35.5688 39.173 37.7571 39.3205C39.3489 39.3744 40.9399 39.194 42.4791 38.785C42.5305 38.7706 42.5856 38.7772 42.6322 38.8034C42.6788 38.8296 42.713 38.8733 42.7274 38.9247C42.7418 38.9762 42.7352 39.0312 42.709 39.0778C42.6828 39.1244 42.6392 39.1586 42.5877 39.173C41.2353 39.5252 39.8452 39.7128 38.4478 39.7317Z" fill="#263238"/>
<path d="M41.7614 23.2146C41.7614 23.2146 44.4774 21.2047 45.5444 20.4986C46.6114 19.7924 50.1034 21.1155 50.1034 21.1155C50.1034 21.1155 47.4766 19.6488 46.0876 19.416C44.6985 19.1832 41.839 21.1931 41.6062 22.132C41.3734 23.071 40.6866 22.8266 41.7614 23.2146Z" fill="#263238"/>
<path d="M41.7612 23.3931C41.7394 23.3968 41.7171 23.3968 41.6953 23.3931C41.1831 23.2107 41.0318 23.1564 40.9852 23.0051C40.9767 22.9447 40.9836 22.8831 41.0053 22.8261C41.027 22.7691 41.0628 22.7186 41.1094 22.6792C41.2613 22.5167 41.3683 22.3174 41.4198 22.101C41.672 21.0884 44.6014 18.997 46.1185 19.2531C47.5269 19.4859 50.0916 20.9137 50.2002 20.9719C50.2426 20.9965 50.2744 21.0358 50.2894 21.0824C50.3045 21.129 50.3017 21.1795 50.2817 21.2242C50.2613 21.2688 50.2247 21.304 50.1793 21.3227C50.134 21.3414 50.0832 21.3422 50.0373 21.325C49.0944 20.9681 46.4716 20.161 45.6529 20.6887C44.5859 21.3716 41.9048 23.3659 41.8776 23.3853C41.8402 23.3983 41.8 23.4009 41.7612 23.3931ZM41.4314 22.8693L41.7302 22.9818C42.1919 22.6365 44.4734 20.9526 45.4395 20.3318C45.9943 19.9748 47.0536 20.0795 48.0313 20.2929C47.402 19.9869 46.7393 19.7552 46.0564 19.6023C44.7721 19.3928 42.0018 21.3406 41.7884 22.1631C41.7333 22.4303 41.6103 22.6788 41.4314 22.8848V22.8693Z" fill="#263238"/>
<path d="M36.1974 23.5832C36.0555 23.2467 35.8198 22.9581 35.5185 22.7517C35.2172 22.5453 34.863 22.4299 34.4979 22.4192C33.1865 22.3416 27.3898 23.8897 28.3947 23.8897C29.3996 23.8897 33.5706 23.8121 34.6531 23.8121C35.1782 23.8447 35.7043 23.7667 36.1974 23.5832Z" fill="#263238"/>
<path d="M28.3947 24.0876C28.3406 24.0951 28.2855 24.0875 28.2355 24.0656C28.1855 24.0437 28.1425 24.0083 28.1114 23.9634C28.0934 23.9307 28.084 23.894 28.084 23.8567C28.084 23.8194 28.0934 23.7827 28.1114 23.75C28.3481 23.362 33.427 22.1631 34.5018 22.2291C34.9047 22.2399 35.2958 22.3673 35.6278 22.596C35.9597 22.8246 36.2182 23.1446 36.3719 23.5172C36.3878 23.5618 36.3871 23.6106 36.37 23.6548C36.3529 23.6989 36.3206 23.7354 36.2788 23.7578C35.7575 23.9535 35.2014 24.0394 34.6453 24.01C34.0944 24.01 32.7441 24.01 31.4172 24.0488C30.0902 24.0876 28.8874 24.0876 28.3947 24.0876ZM34.3854 22.6171C33.4076 22.6171 30.6839 23.2728 29.2754 23.6918L31.4211 23.6608C32.748 23.6414 34.1021 23.622 34.6531 23.622C35.0834 23.6315 35.5129 23.5819 35.9296 23.4745C35.782 23.2188 35.5709 23.0054 35.3167 22.8552C35.0625 22.705 34.7737 22.623 34.4785 22.6171H34.3854Z" fill="#263238"/>
<path d="M49.4865 28.0025C48.3204 28.2669 47.128 28.3971 45.9324 28.3905C44.3804 28.3129 42.9952 27.8473 43.6044 28.5418C44.2135 29.2363 45.459 29.8571 47.3874 29.4691C49.3157 29.0811 50.0258 28.697 49.4865 28.0025Z" fill="#263238"/>
<path d="M35.5029 28.0025C34.3369 28.2669 33.1445 28.3971 31.9489 28.3905C30.3969 28.3129 29.0156 27.8473 29.6209 28.5418C30.2261 29.2363 31.4755 29.8571 33.4077 29.4691C35.34 29.0811 36.0306 28.697 35.5029 28.0025Z" fill="#263238"/>
<path d="M9.79395 72.5294C9.79395 72.5294 12.1219 59.7254 13.1773 58.4721C14.2327 57.2189 25.7563 47.7944 26.3887 47.1619C27.0211 46.5295 31.5685 39.6541 31.7819 40.5C31.9953 41.3458 31.2542 45.0473 29.8768 47.0533C28.4994 49.0593 26.6021 51.4959 26.6021 51.4959C26.6021 51.4959 33.7025 53.2923 34.0905 53.7153C34.4785 54.1382 36.9229 59.3995 37.0509 60.0552C37.276 61.1882 36.9501 62.4026 35.9956 62.488C35.1265 62.5617 29.4423 59.6323 29.4423 59.6323L24.9104 60.2531C24.9104 60.2531 21.6357 64.2689 19.4125 65.01C18.4154 65.3746 17.3903 65.6575 16.3473 65.8558L16.4559 73.6779L9.79395 72.5294Z" fill="white"/>
<path d="M16.456 73.8874H16.421L9.76296 72.7234C9.71131 72.7139 9.66537 72.6847 9.63492 72.6419C9.60691 72.5997 9.59583 72.5484 9.60388 72.4984C9.70088 71.9746 11.9513 59.6439 13.0299 58.3519C13.7361 57.5022 18.881 53.2109 22.6368 50.0797C24.538 48.4928 26.0434 47.2396 26.253 47.0262C26.4625 46.8128 27.0561 45.9824 27.7662 44.993C30.5287 41.1441 31.3474 40.1663 31.7548 40.2439C31.8073 40.2549 31.8554 40.2809 31.8933 40.3188C31.9312 40.3567 31.9573 40.4048 31.9682 40.4573C32.1971 41.373 31.4328 45.1327 30.0282 47.1697C28.9108 48.7954 27.4364 50.7238 26.9242 51.3834C28.5771 51.8063 33.8228 53.1721 34.2341 53.5795C34.6454 53.9869 37.1092 59.3335 37.245 60.0242C37.336 60.387 37.3537 60.7643 37.297 61.1341C37.2404 61.5038 37.1106 61.8586 36.9152 62.1775C36.8098 62.3212 36.675 62.4409 36.5198 62.5285C36.3646 62.6161 36.1925 62.6698 36.015 62.6858C35.1304 62.7634 30.195 60.2492 29.419 59.8379L25.0114 60.4471C24.5807 60.9709 21.6008 64.5017 19.4746 65.2078C18.517 65.5464 17.5385 65.8224 16.5452 66.0343L16.65 73.6895C16.6495 73.7182 16.6431 73.7465 16.6311 73.7726C16.619 73.7986 16.6017 73.8219 16.5801 73.8408C16.5447 73.8691 16.5012 73.8855 16.456 73.8874ZM10.0346 72.3703L16.2426 73.4451L16.1378 65.8558C16.1383 65.8084 16.1558 65.7627 16.1871 65.7271C16.2185 65.6915 16.2615 65.6683 16.3085 65.6618C17.3397 65.4651 18.3531 65.1848 19.3388 64.8237C21.4767 64.1098 24.7126 60.1677 24.7436 60.1289C24.7752 60.0913 24.8193 60.0665 24.8678 60.0591L29.4346 59.4422C29.4732 59.4348 29.5131 59.4417 29.5471 59.4616C31.7276 60.5829 35.4136 62.3522 35.9956 62.294C36.1193 62.283 36.2392 62.2454 36.347 62.1838C36.4549 62.1222 36.5481 62.038 36.6203 61.937C36.7831 61.6621 36.8899 61.3578 36.9345 61.0415C36.9791 60.7252 36.9607 60.4031 36.8803 60.094C36.7406 59.3956 34.3234 54.2003 33.9742 53.8511C33.6444 53.5601 29.2483 52.365 26.5595 51.6822C26.5284 51.6741 26.4998 51.6585 26.4763 51.6366C26.4527 51.6148 26.435 51.5875 26.4246 51.5571C26.4142 51.5267 26.4115 51.4942 26.4168 51.4626C26.422 51.4309 26.4351 51.401 26.4547 51.3756C26.4547 51.3485 28.3676 48.9235 29.7217 46.9447C31.0758 44.9659 31.7121 41.6407 31.619 40.6785C31.0292 41.113 29.1358 43.7553 28.0843 45.2181C27.3355 46.2618 26.7457 47.0844 26.5323 47.2978C26.3189 47.5112 24.8717 48.7178 22.889 50.3746C19.3543 53.3195 14.0154 57.7737 13.3287 58.5963C12.5022 59.5857 10.6942 68.6921 10.0346 72.3703Z" fill="#263238"/>
<path d="M37.0665 60.2531C37.0348 60.2539 37.0035 60.2464 36.9756 60.2315C36.9478 60.2165 36.9242 60.1945 36.9074 60.1677C35.6774 58.3558 33.6288 55.3992 33.3689 55.1936C33.1089 54.9879 29.8303 54.4952 26.9164 54.1033C26.865 54.0961 26.8185 54.0687 26.7872 54.0272C26.7559 53.9858 26.7424 53.9336 26.7496 53.8821C26.7568 53.8307 26.7841 53.7842 26.8256 53.7529C26.8671 53.7216 26.9193 53.7081 26.9707 53.7153C28.4296 53.9132 33.2253 54.5766 33.6133 54.8793C34.0013 55.1819 36.8997 59.4538 37.2256 59.9233C37.2403 59.9444 37.2506 59.9682 37.2561 59.9933C37.2615 60.0184 37.2618 60.0444 37.2572 60.0696C37.2525 60.0949 37.2428 60.119 37.2287 60.1405C37.2146 60.162 37.1964 60.1805 37.1751 60.1949C37.1452 60.2242 37.1075 60.2444 37.0665 60.2531Z" fill="#263238"/>
<path d="M36.8065 61.8555C36.7783 61.8555 36.7505 61.8493 36.725 61.8372C36.6995 61.8251 36.677 61.8075 36.6591 61.7857C35.8288 60.8273 34.1681 58.9377 33.8228 58.6467C33.5435 58.4217 30.2687 57.5836 27.3238 56.9085C27.274 56.8965 27.2309 56.8653 27.204 56.8217C27.1771 56.7781 27.1686 56.7256 27.1803 56.6757C27.1857 56.6508 27.1961 56.6272 27.2109 56.6064C27.2257 56.5855 27.2445 56.5679 27.2662 56.5545C27.2879 56.5411 27.3121 56.5322 27.3374 56.5284C27.3626 56.5245 27.3883 56.5258 27.4131 56.5321C28.4413 56.7649 33.6211 57.9639 34.0711 58.3519C34.5212 58.7399 36.8531 61.4171 36.954 61.5335C36.9709 61.5524 36.9838 61.5746 36.9919 61.5986C37.0001 61.6226 37.0034 61.648 37.0016 61.6733C36.9998 61.6987 36.9929 61.7233 36.9814 61.746C36.9699 61.7686 36.954 61.7887 36.9346 61.8051C36.8999 61.8376 36.8541 61.8556 36.8065 61.8555Z" fill="#263238"/>
<path d="M36.9308 110.631C36.9308 110.631 28.6276 109.079 28.2978 108.97C27.968 108.862 22.0898 107.089 21.3138 106.755C20.5378 106.421 11.1287 104.764 10.6864 105.428C10.2441 106.091 9.80179 109.968 9.68927 110.297C9.57675 110.627 8.69211 112.179 8.91327 113.068C9.03271 113.874 9.03271 114.694 8.91327 115.5C8.91327 115.5 8.80075 120.703 10.1277 120.816C11.4547 120.929 12.6769 115.943 12.6769 115.943C12.6769 115.943 14.5587 117.052 18.4309 117.274C22.3032 117.495 26.0706 115.613 26.0706 115.613L36.3759 118.065L36.9308 110.631Z" fill="white"/>
<path d="M10.182 121.01H10.1238C8.68824 120.89 8.71153 116.397 8.72705 115.496C8.84439 114.707 8.84439 113.904 8.72705 113.114C8.53305 112.338 9.07237 111.174 9.36337 110.565C9.42933 110.418 9.48364 110.301 9.50692 110.239C9.5302 110.177 9.60393 109.7 9.67377 109.219C9.94537 107.43 10.2131 105.785 10.5235 105.319C11.1055 104.45 20.821 106.332 21.3875 106.576C21.954 106.821 25.5973 107.942 27.3394 108.478L28.3443 108.784C28.5965 108.866 33.6328 109.82 36.954 110.441C37.0013 110.449 37.0437 110.475 37.0731 110.513C37.1025 110.551 37.1168 110.599 37.1131 110.646L36.5699 118.065C36.5685 118.093 36.5607 118.121 36.5473 118.146C36.5339 118.17 36.5151 118.192 36.4923 118.209C36.47 118.226 36.444 118.237 36.4164 118.243C36.3888 118.248 36.3604 118.247 36.3332 118.24L26.1056 115.822C25.5856 116.067 22.0393 117.677 18.4309 117.471C15.2648 117.289 13.4257 116.532 12.8166 116.234C12.5062 117.433 11.4741 121.01 10.182 121.01ZM11.4857 105.459C11.2682 105.436 11.0485 105.467 10.8455 105.548C10.5662 105.967 10.2402 108.121 10.0695 109.277C9.97252 109.933 9.92208 110.251 9.88716 110.359C9.85224 110.468 9.8018 110.561 9.7242 110.728C9.47588 111.263 8.94821 112.385 9.11505 113.021C9.24075 113.852 9.24075 114.697 9.11505 115.528C9.07237 117.592 9.36725 120.572 10.1588 120.622C11.0124 120.676 12.0444 117.762 12.4868 115.9C12.4945 115.871 12.5086 115.843 12.528 115.82C12.5475 115.796 12.5718 115.777 12.5993 115.764C12.6264 115.751 12.6563 115.744 12.6866 115.744C12.7169 115.744 12.7467 115.751 12.7739 115.764C12.7739 115.764 14.6712 116.851 18.4426 117.068C22.2139 117.285 25.9465 115.446 25.9853 115.427C26.0269 115.413 26.0717 115.413 26.1133 115.427L36.2013 117.809L36.7251 110.794C35.3283 110.534 28.5538 109.265 28.2357 109.157L27.2385 108.85C25.3528 108.272 21.8492 107.197 21.2439 106.937C20.4873 106.607 13.674 105.459 11.4857 105.459Z" fill="#263238"/>
<path d="M8.21477 70.2712L19.3465 72.3082L18.9313 79.2651C18.9313 79.2651 21.3951 80.4291 22.144 87.3006C22.8928 94.172 25.0385 110.088 24.503 111.267C23.9676 112.447 20.6463 117.592 12.929 117.914C5.21165 118.236 1.03289 111.163 0.28405 108.908C-0.46479 106.654 3.50057 91.91 3.71397 90.6257C3.92737 89.3414 4.99825 80.5377 5.96437 79.0517C6.55982 78.1333 7.28072 77.3027 8.10613 76.584L8.21477 70.2712Z" fill="#48E5C2"/>
<path d="M12.4169 118.123C4.73835 118.123 0.776864 110.949 0.101744 108.978C-0.503536 107.166 1.73911 97.9899 2.94191 93.0701C3.25231 91.7975 3.47735 90.8779 3.52391 90.6063C3.57047 90.3347 3.62479 89.9273 3.71015 89.322C4.12143 86.3732 4.98278 80.2351 5.80146 78.9624C6.39037 78.0518 7.10193 77.2267 7.91606 76.5103L8.02082 70.2751C8.02079 70.2469 8.02704 70.219 8.03912 70.1935C8.0512 70.168 8.06881 70.1455 8.09067 70.1277C8.11288 70.1102 8.13857 70.0977 8.16601 70.091C8.19344 70.0843 8.22199 70.0836 8.24974 70.0889L19.3931 72.122C19.4404 72.1305 19.4828 72.1562 19.5122 72.1942C19.5416 72.2322 19.5558 72.2797 19.5522 72.3276L19.1331 79.1719C19.6492 79.5056 21.6707 81.1779 22.338 87.2967C22.5243 89.0116 22.8036 91.3241 23.114 93.7724C24.2509 103.209 25.0889 110.499 24.6971 111.364C24.666 111.426 21.6901 117.759 12.9523 118.119L12.4169 118.123ZM8.40495 70.504L8.30019 76.5956C8.30022 76.6238 8.29397 76.6517 8.28189 76.6772C8.26981 76.7027 8.2522 76.7252 8.23035 76.7431C7.42101 77.4492 6.71331 78.264 6.12738 79.1642C5.35138 80.3631 4.47063 86.6759 4.09427 89.3686C4.00891 89.9777 3.94295 90.4356 3.90415 90.6645C3.85759 90.9516 3.63255 91.8751 3.31827 93.1516C2.20859 97.6951 -0.100011 107.147 0.470349 108.858C1.12219 110.798 5.14575 118.053 12.9213 117.724C19.9751 117.433 23.5447 112.912 24.3285 111.194C24.7165 110.359 23.5525 100.795 22.7144 93.8112C22.4195 91.359 22.1401 89.0465 21.9384 87.3316C21.2089 80.658 18.8538 79.4591 18.8344 79.4474C18.8002 79.4302 18.7718 79.4035 18.7525 79.3704C18.7332 79.3373 18.7239 79.2994 18.7257 79.2612L19.1448 72.4673L8.40495 70.504Z" fill="#263238"/>
<path d="M17.0184 78.6093C16.3881 78.6066 15.7584 78.5665 15.1328 78.4891C15.0819 78.4832 15.0354 78.4575 15.0034 78.4175C14.9715 78.3775 14.9566 78.3266 14.962 78.2757C14.9688 78.2245 14.9954 78.178 15.0359 78.1461C15.0765 78.1142 15.128 78.0994 15.1793 78.1049C15.7896 78.1792 16.4037 78.2181 17.0184 78.2213C17.0699 78.2213 17.1192 78.2418 17.1556 78.2782C17.192 78.3145 17.2124 78.3639 17.2124 78.4153C17.2124 78.4668 17.192 78.5161 17.1556 78.5525C17.1192 78.5889 17.0699 78.6093 17.0184 78.6093Z" fill="#263238"/>
<path d="M12.537 78.0429H12.4944C10.9862 77.7085 9.49891 77.2862 8.04012 76.778C7.99313 76.7595 7.95522 76.7234 7.93443 76.6773C7.91365 76.6313 7.91162 76.579 7.9288 76.5315C7.94598 76.484 7.981 76.4451 8.02642 76.423C8.07184 76.4009 8.12408 76.3974 8.17204 76.4133C9.61412 76.916 11.0846 77.3331 12.5758 77.6626C12.6009 77.6681 12.6245 77.6785 12.6455 77.6932C12.6665 77.7079 12.6844 77.7267 12.6981 77.7483C12.7118 77.7699 12.7211 77.7941 12.7254 77.8193C12.7297 77.8446 12.729 77.8704 12.7233 77.8954C12.7136 77.9375 12.6899 77.975 12.656 78.0018C12.6222 78.0286 12.5802 78.0431 12.537 78.0429Z" fill="#263238"/>
<path d="M69.4763 73.7671L68.3705 102.328C68.3705 102.328 67.1521 102.44 66.7098 102.991C66.4151 103.373 66.1554 103.781 65.9338 104.21C65.9338 104.21 54.7555 104.652 49.4399 106.204C46.389 107.072 43.425 108.22 40.5858 109.634L35.7125 109.529L34.7153 122.368L41.2493 122.589C41.2493 122.589 44.458 124.471 59.0701 125.802C73.6822 127.133 80.4373 127.462 81.9854 125.689C83.5335 123.916 84.2008 121.15 84.422 119.714C84.6432 118.278 87.301 109.417 87.301 96.5738C87.301 83.731 75.2342 65.1458 72.5764 60.9282C69.9186 56.7106 67.1444 57.0482 65.2703 57.4983" fill="#48E5C2"/>
<path d="M75.7889 127.094C72.0835 127.094 66.6593 126.683 59.0545 125.992C45.296 124.739 41.641 123.016 41.2065 122.779L34.723 122.558C34.6964 122.558 34.6702 122.553 34.6459 122.542C34.6216 122.531 34.6 122.515 34.5823 122.496C34.5647 122.476 34.5515 122.452 34.5436 122.427C34.5358 122.402 34.5334 122.375 34.5367 122.349L35.5184 109.529C35.5214 109.479 35.5438 109.433 35.5808 109.399C35.6178 109.366 35.6665 109.348 35.7163 109.351L40.5391 109.459C43.3787 108.054 46.3396 106.909 49.3855 106.037C54.3752 104.582 64.6261 104.097 65.8134 104.039C66.027 103.63 66.2763 103.24 66.5584 102.875C66.9464 102.39 67.8155 102.215 68.1841 102.161L69.2821 73.7632C69.2821 73.7374 69.2873 73.7118 69.2976 73.6882C69.308 73.6645 69.3231 73.6432 69.3421 73.6257C69.361 73.6082 69.3834 73.5948 69.4079 73.5864C69.4323 73.578 69.4582 73.5748 69.4839 73.577C69.5094 73.578 69.5344 73.584 69.5576 73.5947C69.5807 73.6054 69.6016 73.6205 69.6189 73.6392C69.6361 73.658 69.6496 73.6799 69.6584 73.7039C69.6672 73.7278 69.6712 73.7532 69.6701 73.7787L68.5643 102.339C68.5627 102.386 68.5441 102.431 68.512 102.465C68.4799 102.5 68.4364 102.521 68.3897 102.526C68.0716 102.553 67.1831 102.716 66.861 103.115C66.5766 103.488 66.3247 103.883 66.1083 104.299C66.0932 104.331 66.0697 104.358 66.0402 104.377C66.0108 104.396 65.9766 104.407 65.9415 104.407C65.8328 104.407 54.7244 104.865 49.4941 106.394C46.4571 107.263 43.5052 108.406 40.6749 109.808C40.6448 109.823 40.6116 109.831 40.5779 109.832L35.8909 109.727L34.9247 122.182L41.253 122.395C41.2856 122.398 41.3173 122.407 41.3461 122.422C41.3772 122.422 44.7373 124.304 59.0894 125.608C73.6394 126.931 80.3751 127.237 81.8417 125.561C83.514 123.652 84.0921 120.579 84.2318 119.683C84.2667 119.439 84.3676 119.02 84.515 118.379C86.2333 111.238 87.1032 103.919 87.1069 96.5737C87.1069 88.3714 82.2607 76.5685 72.7082 61.4947L72.4133 61.0329C69.6546 56.6641 66.7213 57.3547 65.3168 57.6845C65.2664 57.6963 65.2134 57.6878 65.1692 57.661C65.1249 57.6341 65.0929 57.5911 65.0801 57.5409C65.0744 57.516 65.0737 57.4901 65.078 57.4648C65.0823 57.4396 65.0916 57.4155 65.1053 57.3938C65.119 57.3722 65.1369 57.3534 65.1579 57.3387C65.1788 57.324 65.2025 57.3136 65.2275 57.3081C67.5051 56.7727 70.1823 56.7727 72.7431 60.8234L73.0341 61.289C82.6293 76.421 87.4949 88.2977 87.4949 96.5737C87.4901 103.949 86.6176 111.298 84.8953 118.469C84.7517 119.074 84.6508 119.512 84.6159 119.741C84.4723 120.665 83.8748 123.827 82.1327 125.817C81.3528 126.706 79.3779 127.094 75.7889 127.094Z" fill="#263238"/>
<path d="M68.3704 102.522C68.3364 102.522 68.3028 102.514 68.2734 102.497C68.244 102.479 68.2198 102.455 68.2035 102.425C68.1811 102.387 68.1723 102.342 68.1786 102.298C68.185 102.255 68.2061 102.214 68.2385 102.184L74.6599 96.209C74.6776 96.191 74.6987 96.1766 74.722 96.1668C74.7453 96.157 74.7704 96.152 74.7957 96.152C74.8209 96.152 74.846 96.157 74.8693 96.1668C74.8926 96.1766 74.9138 96.191 74.9315 96.209C74.9496 96.2271 74.9641 96.2485 74.9739 96.2722C74.9838 96.2958 74.9888 96.3212 74.9888 96.3468C74.9888 96.3724 74.9838 96.3977 74.9739 96.4214C74.9641 96.445 74.9496 96.4665 74.9315 96.4845L69.1115 101.917L75.1216 100.171C75.173 100.156 75.2281 100.163 75.2747 100.189C75.3212 100.215 75.3555 100.259 75.3699 100.31C75.3843 100.362 75.3777 100.417 75.3515 100.463C75.3253 100.51 75.2817 100.544 75.2302 100.559L68.4363 102.53L68.3704 102.522Z" fill="#263238"/>
<path d="M77.2904 99.9338C77.239 99.9405 77.187 99.9265 77.1459 99.8948C77.1048 99.8632 77.0779 99.8165 77.0712 99.7651C77.0645 99.7136 77.0786 99.6616 77.1102 99.6205C77.1419 99.5794 77.1885 99.5525 77.24 99.5458L79.3856 98.925C79.4101 98.9174 79.4358 98.9147 79.4613 98.9172C79.4868 98.9197 79.5116 98.9274 79.534 98.9397C79.5565 98.952 79.5763 98.9688 79.5921 98.9889C79.6079 99.0091 79.6195 99.0322 79.6262 99.057C79.6406 99.1064 79.6348 99.1594 79.6101 99.2046C79.5853 99.2497 79.5437 99.2831 79.4943 99.2975L77.3448 99.9183C77.3281 99.9276 77.3095 99.9329 77.2904 99.9338Z" fill="#263238"/>
<path d="M75.8976 106.064H75.8278C73.0109 104.978 65.992 104.419 65.9182 104.415C65.8928 104.413 65.8679 104.406 65.8452 104.395C65.8224 104.383 65.8022 104.367 65.7856 104.347C65.769 104.328 65.7564 104.305 65.7486 104.281C65.7407 104.257 65.7377 104.231 65.7398 104.206C65.7418 104.18 65.7488 104.155 65.7605 104.133C65.7721 104.11 65.7881 104.09 65.8075 104.073C65.827 104.057 65.8495 104.044 65.8739 104.036C65.8982 104.028 65.9238 104.025 65.9493 104.027C66.2403 104.051 73.0962 104.598 75.9674 105.7C75.9929 105.704 76.0172 105.714 76.039 105.728C76.0608 105.742 76.0796 105.76 76.0944 105.781C76.1092 105.802 76.1196 105.826 76.1251 105.852C76.1306 105.877 76.1311 105.903 76.1265 105.928C76.1219 105.954 76.1124 105.978 76.0984 106C76.0844 106.022 76.0663 106.041 76.045 106.055C76.0237 106.07 75.9998 106.081 75.9745 106.086C75.9492 106.092 75.9231 106.092 75.8976 106.088V106.064Z" fill="#263238"/>
<path d="M77.8919 111.822C77.8618 111.822 77.8322 111.815 77.8053 111.801C77.7784 111.788 77.755 111.768 77.7367 111.745C77.4457 111.357 77.1275 111.003 76.79 110.65C76.7588 110.613 76.7431 110.564 76.7459 110.516C76.7488 110.467 76.77 110.421 76.8054 110.387C76.8407 110.353 76.8876 110.334 76.9365 110.333C76.9855 110.332 77.0329 110.35 77.0693 110.383C77.4128 110.741 77.7379 111.117 78.0432 111.508C78.0749 111.548 78.0895 111.599 78.0837 111.65C78.0778 111.701 78.0521 111.747 78.0122 111.779C77.9776 111.806 77.9355 111.821 77.8919 111.822Z" fill="#263238"/>
<path d="M75.5756 109.459C75.5308 109.458 75.4874 109.443 75.4514 109.417C73.4813 107.821 71.2085 106.641 68.7701 105.948C68.7446 105.942 68.7205 105.931 68.6992 105.916C68.6779 105.901 68.6598 105.882 68.6459 105.859C68.6321 105.837 68.6227 105.813 68.6184 105.787C68.614 105.761 68.6148 105.735 68.6207 105.709C68.6265 105.684 68.6373 105.66 68.6525 105.638C68.6677 105.617 68.6869 105.599 68.709 105.585C68.7312 105.571 68.7559 105.562 68.7817 105.558C68.8074 105.553 68.8338 105.554 68.8593 105.56C71.3559 106.265 73.6832 107.47 75.6997 109.102C75.7313 109.128 75.7541 109.162 75.7651 109.201C75.776 109.24 75.7746 109.281 75.7609 109.319C75.7472 109.357 75.722 109.39 75.6888 109.413C75.6556 109.436 75.616 109.448 75.5756 109.448V109.459Z" fill="#263238"/>
<path d="M40.5857 121.786C40.5343 121.786 40.4849 121.766 40.4486 121.729C40.4122 121.693 40.3917 121.643 40.3917 121.592L40.2986 110.856C40.2981 110.831 40.3026 110.805 40.3119 110.781C40.3212 110.758 40.335 110.736 40.3527 110.718C40.3703 110.699 40.3914 110.685 40.4148 110.674C40.4381 110.664 40.4633 110.659 40.4887 110.658C40.5402 110.658 40.5895 110.679 40.6259 110.715C40.6623 110.751 40.6827 110.801 40.6827 110.852L40.7953 121.588C40.7953 121.64 40.775 121.69 40.7387 121.727C40.7024 121.764 40.6531 121.785 40.6013 121.786H40.5857Z" fill="#263238"/>
<path d="M36.2672 112.815C36.2177 112.816 36.1701 112.797 36.134 112.763C36.098 112.729 36.0762 112.682 36.0732 112.633C36.0717 112.608 36.0752 112.582 36.0835 112.559C36.0919 112.535 36.105 112.513 36.1219 112.494C36.1389 112.475 36.1595 112.46 36.1825 112.449C36.2054 112.438 36.2303 112.432 36.2556 112.431L38.1374 112.319C38.1629 112.317 38.1884 112.321 38.2126 112.329C38.2367 112.337 38.259 112.35 38.2781 112.367C38.2972 112.384 38.3128 112.405 38.3239 112.428C38.3351 112.451 38.3416 112.476 38.343 112.501C38.3452 112.552 38.3274 112.602 38.2934 112.641C38.2594 112.679 38.2118 112.703 38.1607 112.707L36.2789 112.815H36.2672Z" fill="#263238"/>
</svg>
