<svg width="191" height="191" viewBox="0 0 191 191" fill="none" xmlns="http://www.w3.org/2000/svg">
<circle cx="95.5" cy="95.5" r="95.5" fill="#2872E0"/>
<path d="M102.704 23.9095C102.704 23.9095 102.704 17.448 91.6116 18.7403C80.5194 20.0326 75.8714 29.8326 72.52 31.896C69.1686 33.9594 62.9742 35.7729 62.7157 38.8615C62.4572 41.9501 65.3003 43.2467 62.4572 45.5686C59.6142 47.8904 55.2548 49.9667 56.2671 53.0639C57.2794 56.1612 60.144 59.2541 58.8517 61.3218C57.5594 63.3895 53.9496 65.4485 57.301 67.7833C60.6523 70.118 62.2031 70.622 62.2031 73.715C62.2031 76.8079 60.9108 78.8842 64.0123 79.9094C67.1139 80.9346 68.9101 78.8756 70.7194 82.7439C72.5286 86.6122 74.3292 87.646 77.4264 86.8706C80.5237 86.0952 84.9046 84.8072 86.4726 85.8411C88.0406 86.8749 92.9341 89.718 94.9846 88.1629C97.035 86.6078 98.8615 84.286 101.95 85.5783C105.039 86.8706 107.628 88.6755 108.916 86.3537C110.204 84.0319 108.916 83.5149 113.818 82.4768C118.72 81.4386 120.525 81.7057 120.525 77.579C120.525 73.4522 120.266 72.4097 122.588 70.6134C124.91 68.8171 126.973 69.5796 126.202 65.1944C125.431 60.8092 123.88 59.7753 124.652 55.3901C125.423 51.0049 123.359 49.4584 121.813 48.1661C120.266 46.8738 118.461 44.5563 118.978 42.2344C119.495 39.9126 123.364 39.6498 119.491 35.5274C115.618 31.4049 113.818 32.6886 113.029 29.5914C112.241 26.4942 109.669 19.7828 102.704 23.9095Z" fill="#263238" stroke="#263238" stroke-width="0.430768" stroke-linecap="round" stroke-linejoin="round"/>
<path d="M92.8005 31.6763C91.211 34.192 89.9833 37.0308 87.4245 39.4301C83.7285 42.8763 74.2602 45.8917 73.7993 49.131C73.3384 52.3704 74.9538 54.2098 71.723 56.9796C68.4922 59.7495 63.4092 60.4258 63.4092 63.2172C63.4092 66.0085 64.7919 66.9131 64.1027 68.9894" stroke="#616161" stroke-width="0.430768" stroke-miterlimit="10"/>
<path d="M99.6671 28.5748C99.6671 28.5748 98.5126 25.5594 95.2775 28.5748C95.0277 28.8074 94.7908 29.0486 94.5668 29.2941" stroke="#616161" stroke-width="0.430768" stroke-miterlimit="10"/>
<path d="M73.5797 41.7735C70.7366 42.4627 68.4923 42.9581 68.2597 44.9741C67.7945 48.8984 68.488 51.4356 65.7182 52.5944C62.9483 53.7532 59.2567 55.6098 60.4068 57.9058C61.557 60.2018 61.7896 60.9212 61.5613 61.8301" stroke="#616161" stroke-width="0.430768" stroke-miterlimit="10"/>
<path d="M99.1931 24.8788C99.1931 24.8788 92.7315 20.7262 89.2854 24.4178C85.8392 28.1095 87.4374 32.7317 82.126 37.8147C80.7771 39.0708 79.1849 40.037 77.4479 40.6535" stroke="#616161" stroke-width="0.430768" stroke-miterlimit="10"/>
<path d="M121.666 57.6301C122.054 58.2319 122.589 58.7243 123.221 59.0602" stroke="#616161" stroke-width="0.430768" stroke-miterlimit="10"/>
<path d="M103.824 30.664C103.824 30.664 109.596 28.816 110.979 32.0467C112.362 35.2775 113.06 41.0541 115.601 41.9803C118.143 42.9064 119.293 44.2892 119.293 49.3679C119.29 51.0048 119.534 52.6328 120.017 54.1968" stroke="#616161" stroke-width="0.430768" stroke-miterlimit="10"/>
<path d="M66.4117 71.7593C68.2597 68.7439 70.797 69.9156 71.0296 66.6805C71.2622 63.4455 69.4142 62.5236 71.2579 60.4473C73.1016 58.371 76.1083 57.4319 76.1083 57.4319" stroke="#616161" stroke-width="0.430768" stroke-miterlimit="10"/>
<path d="M68.9489 78.2294C68.0956 77.5228 67.3548 76.6906 66.752 75.7611" stroke="#616161" stroke-width="0.430768" stroke-miterlimit="10"/>
<path d="M132.888 175.083C132.888 175.083 133.659 164.508 129.011 153.928C124.363 143.349 123.316 142.586 123.316 139.489C123.316 136.392 126.426 132.778 126.943 125.812C127.46 118.847 127.202 115.474 127.202 115.474C127.202 115.474 138.294 133.015 146.035 134.048C153.776 135.082 158.42 127.858 155.581 118.054C152.742 108.25 140.357 100.255 135.46 93.8017C130.562 87.3488 119.461 87.3402 113.788 87.3402C108.114 87.3402 105.276 85.2768 104.242 81.4085C103.208 77.5402 103.212 69.7777 103.212 69.7777C103.212 69.7777 96.5009 73.9045 85.1502 69.2608C85.1502 69.2608 86.184 83.4503 84.8917 85.5137C83.5994 87.5771 81.8074 89.6792 74.0665 89.6792C66.3256 89.6792 59.877 91.23 56.2672 94.8484C52.6573 98.4669 37.6924 112.906 33.8241 118.584C29.9558 124.261 32.0149 130.451 36.6586 132.773C41.3023 135.095 45.946 133.027 49.3016 129.935C52.6573 126.842 63.2327 117.033 63.2327 117.033C63.2327 117.033 63.2327 122.969 66.0714 131.481C68.9102 139.993 71.2407 138.963 69.1644 145.154C67.0881 151.344 62.9742 153.153 61.6862 161.148C60.9147 165.75 60.5687 170.413 60.6524 175.079" fill="#48E5C2"/>
<mask id="mask0_13_391" style="mask-type:luminance" maskUnits="userSpaceOnUse" x="31" y="69" width="126" height="107">
<path d="M132.888 175.083C132.888 175.083 133.659 164.508 129.011 153.928C124.363 143.349 123.316 142.586 123.316 139.489C123.316 136.392 126.426 132.778 126.943 125.812C127.46 118.847 127.202 115.474 127.202 115.474C127.202 115.474 138.294 133.015 146.035 134.048C153.776 135.082 158.42 127.858 155.581 118.054C152.742 108.25 140.357 100.255 135.46 93.8017C130.562 87.3488 119.461 87.3402 113.788 87.3402C108.114 87.3402 105.276 85.2768 104.242 81.4085C103.208 77.5402 103.212 69.7777 103.212 69.7777C103.212 69.7777 96.5009 73.9045 85.1502 69.2608C85.1502 69.2608 86.184 83.4503 84.8917 85.5137C83.5994 87.5771 81.8074 89.6792 74.0665 89.6792C66.3256 89.6792 59.877 91.23 56.2672 94.8484C52.6573 98.4669 37.6924 112.906 33.8241 118.584C29.9558 124.261 32.0149 130.451 36.6586 132.773C41.3023 135.095 45.946 133.027 49.3016 129.935C52.6573 126.842 63.2327 117.033 63.2327 117.033C63.2327 117.033 63.2327 122.969 66.0714 131.481C68.9102 139.993 71.2407 138.963 69.1644 145.154C67.0881 151.344 62.9742 153.153 61.6862 161.148C60.9147 165.75 60.5687 170.413 60.6524 175.079" fill="white"/>
</mask>
<g mask="url(#mask0_13_391)">
<g opacity="0.2">
<path d="M115.959 95.43C115.782 95.43 115.136 95.8608 115.959 97.1143C116.781 95.8694 116.135 95.43 115.959 95.43Z" fill="black"/>
<path d="M136.636 95.43C136.459 95.43 135.813 95.8608 136.636 97.1143C137.458 95.8694 136.812 95.43 136.636 95.43Z" fill="black"/>
<path d="M136.636 105.768C136.459 105.768 135.813 106.199 136.636 107.453C137.458 106.208 136.812 105.768 136.636 105.768Z" fill="black"/>
<path d="M115.959 105.768C115.782 105.768 115.136 106.199 115.959 107.453C116.781 106.208 116.135 105.768 115.959 105.768Z" fill="black"/>
<path d="M126.297 100.599C126.12 100.599 125.474 101.03 126.297 102.284C127.12 101.039 126.474 100.599 126.297 100.599Z" fill="black"/>
<path d="M126.297 90.2608C126.12 90.2608 125.474 90.6915 126.297 91.9451C127.12 90.7002 126.474 90.2608 126.297 90.2608Z" fill="black"/>
<path d="M116.424 97.3727C117.914 97.4546 117.966 96.6749 117.88 96.5112C117.794 96.3475 117.066 96.0331 116.424 97.3727Z" fill="black"/>
<path d="M138.363 97.0755L137.79 96.4854C137.476 96.7087 137.231 97.0163 137.084 97.3727C137.533 97.4465 137.993 97.3396 138.363 97.0755Z" fill="black"/>
<path d="M126.762 102.542C128.253 102.624 128.305 101.844 128.218 101.68C128.132 101.517 127.404 101.202 126.762 102.542Z" fill="black"/>
<path d="M126.762 92.2035C128.253 92.2854 128.305 91.5057 128.218 91.342C128.132 91.1783 127.404 90.8638 126.762 92.2035Z" fill="black"/>
<path d="M134.732 96.5242C134.646 96.6749 134.702 97.4546 136.188 97.3857C135.529 96.0331 134.822 96.3691 134.732 96.5242Z" fill="black"/>
<path d="M134.732 106.863C134.701 106.972 134.707 107.088 134.747 107.194C134.787 107.3 134.86 107.391 134.956 107.453C135.322 107.684 135.759 107.775 136.188 107.711C136.147 107.622 136.101 107.536 136.05 107.453C135.434 106.419 134.818 106.716 134.732 106.863Z" fill="black"/>
<path d="M124.393 101.693C124.307 101.844 124.363 102.624 125.849 102.555C125.19 101.202 124.484 101.538 124.393 101.693Z" fill="black"/>
<path d="M124.393 91.3549C124.307 91.5057 124.363 92.2854 125.849 92.2165C125.19 90.8639 124.484 91.1999 124.393 91.3549Z" fill="black"/>
<path d="M115.959 126.445C115.782 126.445 115.136 126.876 115.959 128.13C116.781 126.885 116.135 126.445 115.959 126.445Z" fill="black"/>
<path d="M136.636 126.445C136.506 126.445 136.136 126.678 136.252 127.277C136.433 127.471 136.614 127.664 136.799 127.854C137.359 126.82 136.799 126.445 136.636 126.445Z" fill="black"/>
<path d="M115.959 136.784C115.782 136.784 115.136 137.215 115.959 138.468C116.781 137.223 116.135 136.784 115.959 136.784Z" fill="black"/>
<path d="M146.974 131.615C146.797 131.615 146.151 132.045 146.974 133.299C147.797 132.054 147.15 131.615 146.974 131.615Z" fill="black"/>
<path d="M115.959 116.107C115.782 116.107 115.136 116.538 115.959 117.791C116.781 116.546 116.135 116.107 115.959 116.107Z" fill="black"/>
<path d="M136.636 116.107C136.459 116.107 135.813 116.538 136.636 117.791C137.458 116.546 136.812 116.107 136.636 116.107Z" fill="black"/>
<path d="M126.297 121.276C126.12 121.276 125.474 121.707 126.297 122.96C127.12 121.715 126.474 121.276 126.297 121.276Z" fill="black"/>
<path d="M146.974 121.276C146.797 121.276 146.151 121.707 146.974 122.96C147.797 121.715 147.15 121.276 146.974 121.276Z" fill="black"/>
<path d="M126.297 110.938C126.12 110.938 125.474 111.368 126.297 112.622C127.12 111.377 126.474 110.938 126.297 110.938Z" fill="black"/>
<path d="M146.974 110.938C146.797 110.938 146.151 111.368 146.974 112.622C147.797 111.377 147.15 110.938 146.974 110.938Z" fill="black"/>
<path d="M116.424 128.388C117.914 128.47 117.966 127.69 117.88 127.527C117.794 127.363 117.066 127.048 116.424 128.388Z" fill="black"/>
<path d="M137.165 128.233L137.32 128.392C138.574 128.392 138.613 127.682 138.54 127.531C138.466 127.38 137.799 127.079 137.165 128.233Z" fill="black"/>
<path d="M117.535 137.723C117.347 137.719 117.163 137.783 117.018 137.904C116.931 137.973 116.85 138.051 116.777 138.136C116.691 138.24 116.613 138.351 116.545 138.468C116.546 138.477 116.546 138.485 116.545 138.494C116.506 138.563 116.463 138.64 116.424 138.726C116.852 138.791 117.29 138.7 117.656 138.468C117.687 138.444 117.715 138.418 117.742 138.39C117.785 138.344 117.821 138.292 117.85 138.235C117.892 138.186 117.917 138.125 117.923 138.06C117.929 137.995 117.915 137.93 117.882 137.874C117.849 137.818 117.8 137.773 117.741 137.746C117.682 137.719 117.616 137.711 117.553 137.723H117.535Z" fill="black"/>
<path d="M147.439 133.557C148.925 133.639 148.981 132.859 148.895 132.696C148.809 132.532 148.081 132.218 147.439 133.557Z" fill="black"/>
<path d="M116.424 118.05C117.914 118.131 117.966 117.352 117.88 117.188C117.794 117.024 117.066 116.71 116.424 118.05Z" fill="black"/>
<path d="M138.54 117.201C138.449 117.046 137.743 116.71 137.084 118.063C138.57 118.131 138.626 117.352 138.54 117.201Z" fill="black"/>
<path d="M126.762 123.219C126.887 123.225 127.012 123.225 127.137 123.219C127.137 123.003 127.159 122.788 127.167 122.59C127.004 122.78 126.868 122.992 126.762 123.219Z" fill="black"/>
<path d="M147.439 123.219C148.925 123.301 148.981 122.521 148.895 122.357C148.809 122.194 148.081 121.879 147.439 123.219Z" fill="black"/>
<path d="M126.762 112.88C128.253 112.962 128.305 112.183 128.218 112.019C128.132 111.855 127.404 111.541 126.762 112.88Z" fill="black"/>
<path d="M147.439 112.88C148.925 112.962 148.981 112.183 148.895 112.019C148.809 111.855 148.081 111.541 147.439 112.88Z" fill="black"/>
<path d="M125.164 133.523L125.401 132.881C124.902 132.364 124.462 132.588 124.393 132.709C124.324 132.829 124.346 133.372 125.164 133.523Z" fill="black"/>
<path d="M155.409 127.539C155.376 127.663 155.387 127.793 155.44 127.909C155.493 128.025 155.583 128.12 155.697 128.177C155.788 127.927 155.865 127.669 155.938 127.406C155.847 127.375 155.748 127.371 155.654 127.395C155.56 127.418 155.475 127.469 155.409 127.539Z" fill="black"/>
<path d="M145.07 132.709C144.98 132.859 145.04 133.639 146.526 133.57C145.867 132.218 145.16 132.554 145.07 132.709Z" fill="black"/>
<path d="M134.732 117.201C134.646 117.352 134.702 118.131 136.188 118.063C135.529 116.71 134.822 117.046 134.732 117.201Z" fill="black"/>
<path d="M124.393 122.37C124.307 122.521 124.363 123.301 125.849 123.232C125.19 121.879 124.484 122.215 124.393 122.37Z" fill="black"/>
<path d="M145.07 122.37C144.98 122.521 145.04 123.301 146.526 123.232C145.867 121.879 145.16 122.215 145.07 122.37Z" fill="black"/>
<path d="M124.393 112.032C124.307 112.183 124.363 112.962 125.849 112.893C125.19 111.541 124.484 111.877 124.393 112.032Z" fill="black"/>
<path d="M145.07 112.032C144.98 112.183 145.04 112.962 146.526 112.893C145.867 111.541 145.16 111.877 145.07 112.032Z" fill="black"/>
<path d="M138.316 107.453C138.411 107.391 138.484 107.3 138.524 107.194C138.564 107.088 138.57 106.972 138.54 106.863C138.453 106.716 137.837 106.432 137.221 107.453C137.17 107.536 137.124 107.622 137.084 107.711C137.512 107.776 137.949 107.684 138.316 107.453Z" fill="black"/>
<path d="M117.639 107.453C117.734 107.391 117.807 107.3 117.847 107.194C117.888 107.088 117.893 106.972 117.863 106.863C117.777 106.716 117.161 106.432 116.545 107.453C116.493 107.536 116.447 107.622 116.407 107.711C116.835 107.776 117.273 107.684 117.639 107.453Z" fill="black"/>
<path d="M115.959 157.461C115.782 157.461 115.136 157.891 115.959 159.145C116.781 157.9 116.135 157.461 115.959 157.461Z" fill="black"/>
<path d="M115.959 167.799C115.782 167.799 115.136 168.23 115.959 169.483C116.781 168.238 116.135 167.799 115.959 167.799Z" fill="black"/>
<path d="M126.297 162.63C126.12 162.63 125.474 163.061 126.297 164.314C127.12 163.069 126.474 162.63 126.297 162.63Z" fill="black"/>
<path d="M115.959 147.122C115.782 147.122 115.136 147.553 115.959 148.806C116.781 147.562 116.135 147.122 115.959 147.122Z" fill="black"/>
<path d="M126.297 152.291C126.12 152.291 125.474 152.722 126.297 153.976C127.12 152.731 126.474 152.291 126.297 152.291Z" fill="black"/>
<path d="M116.424 159.403C117.914 159.485 117.966 158.706 117.88 158.542C117.794 158.378 117.066 158.064 116.424 159.403Z" fill="black"/>
<path d="M117.535 168.738H117.445C117.334 168.746 117.226 168.78 117.13 168.837L117.018 168.915C116.827 169.072 116.666 169.263 116.545 169.479C116.493 169.562 116.447 169.649 116.407 169.737C116.835 169.802 117.273 169.711 117.639 169.479C117.734 169.417 117.807 169.327 117.847 169.221C117.888 169.114 117.893 168.998 117.863 168.889C117.822 168.842 117.772 168.804 117.716 168.778C117.659 168.752 117.598 168.738 117.535 168.738Z" fill="black"/>
<path d="M126.762 164.573C128.253 164.654 128.305 163.875 128.218 163.711C128.132 163.547 127.404 163.233 126.762 164.573Z" fill="black"/>
<path d="M116.424 149.065C117.914 149.147 117.966 148.367 117.88 148.203C117.794 148.04 117.066 147.725 116.424 149.065Z" fill="black"/>
<path d="M126.762 154.234C128.253 154.316 128.305 153.536 128.218 153.373C128.132 153.209 127.404 152.894 126.762 154.234Z" fill="black"/>
<path d="M124.393 163.724C124.307 163.875 124.363 164.654 125.849 164.586C125.19 163.233 124.484 163.569 124.393 163.724Z" fill="black"/>
<path d="M124.393 153.386C124.307 153.536 124.363 154.316 125.849 154.247C125.19 152.894 124.484 153.23 124.393 153.386Z" fill="black"/>
<path d="M126.297 172.968C126.12 172.968 125.474 173.399 126.297 174.653C127.12 173.408 126.474 172.968 126.297 172.968Z" fill="black"/>
<path d="M126.762 174.911C128.253 174.993 128.305 174.213 128.218 174.049C128.132 173.886 127.404 173.571 126.762 174.911Z" fill="black"/>
<path d="M124.393 174.062C124.307 174.213 124.363 174.993 125.849 174.924C125.19 173.571 124.484 173.907 124.393 174.062Z" fill="black"/>
<path d="M95.2818 74.7531C95.1052 74.7531 94.4591 75.1839 95.2818 76.4374C96.1046 75.1925 95.4584 74.7531 95.2818 74.7531Z" fill="black"/>
<path d="M85.1891 69.7261C85.1891 69.9587 85.2235 70.2817 85.2494 70.6867C85.3313 70.5373 85.3691 70.3677 85.3584 70.1976C85.3477 70.0276 85.289 69.8641 85.1891 69.7261Z" fill="black"/>
<path d="M96.8585 75.6922C96.67 75.6884 96.4865 75.7526 96.3415 75.8731C96.2538 75.9426 96.173 76.0206 96.1003 76.1057C96.0138 76.2097 95.936 76.3206 95.8677 76.4374V76.4633C95.8289 76.5322 95.7858 76.6097 95.7471 76.6959C96.1755 76.7608 96.6129 76.669 96.9791 76.4374C97.0097 76.4138 97.0385 76.3879 97.0652 76.3599C97.1082 76.3135 97.1445 76.2613 97.1729 76.2048C97.2033 76.1509 97.2218 76.091 97.227 76.0293C97.2322 75.9676 97.224 75.9055 97.2031 75.8473C97.1612 75.7969 97.1084 75.7568 97.0487 75.7299C96.989 75.7031 96.9239 75.6902 96.8585 75.6922Z" fill="black"/>
<path d="M85.4086 71.5267C86.899 71.6085 86.9507 70.8288 86.8646 70.6651C86.7784 70.5014 86.0504 70.187 85.4086 71.5267Z" fill="black"/>
<path d="M75.0013 95.9081C74.9936 95.8422 74.9747 95.7781 74.9453 95.7186C74.9328 95.6918 74.9184 95.6659 74.9022 95.6411C74.8748 95.5991 74.8414 95.5614 74.8031 95.5291C74.7722 95.5024 74.7373 95.4806 74.6997 95.4645C74.6732 95.4505 74.6436 95.4432 74.6136 95.4432C74.5836 95.4432 74.554 95.4505 74.5274 95.4645C74.3293 95.5506 74.0062 95.8952 74.368 96.6965C74.4398 96.8456 74.5218 96.9895 74.6136 97.1272C74.7054 96.9895 74.7874 96.8456 74.8591 96.6965C74.9607 96.4943 75.0166 96.2722 75.0228 96.046C75.0251 96.0058 75.0251 95.9656 75.0228 95.9254L75.0013 95.9081Z" fill="black"/>
<path d="M95.2818 95.43C95.1052 95.43 94.4591 95.8608 95.2818 97.1143C96.1046 95.8694 95.4584 95.43 95.2818 95.43Z" fill="black"/>
<path d="M95.2818 105.768C95.1052 105.768 94.4591 106.199 95.2818 107.453C96.1046 106.208 95.4584 105.768 95.2818 105.768Z" fill="black"/>
<path d="M75.0013 106.247C74.9936 106.181 74.9747 106.117 74.9453 106.057C74.9328 106.03 74.9184 106.004 74.9022 105.98C74.8748 105.938 74.8414 105.9 74.8031 105.868C74.7722 105.841 74.7373 105.819 74.6997 105.803C74.6732 105.789 74.6436 105.782 74.6136 105.782C74.5836 105.782 74.554 105.789 74.5274 105.803C74.3293 105.889 74.0062 106.234 74.368 107.035C74.4398 107.184 74.5218 107.328 74.6136 107.466C74.7054 107.328 74.7874 107.184 74.8591 107.035C74.9607 106.833 75.0166 106.611 75.0228 106.384C75.0251 106.344 75.0251 106.304 75.0228 106.264L75.0013 106.247Z" fill="black"/>
<path d="M84.9433 100.599C84.7667 100.599 84.1206 101.03 84.9433 102.284C85.7661 101.039 85.1199 100.599 84.9433 100.599Z" fill="black"/>
<path d="M105.62 100.599C105.444 100.599 104.797 101.03 105.62 102.284C106.443 101.039 105.797 100.599 105.62 100.599Z" fill="black"/>
<path d="M95.2818 85.0916C95.1052 85.0916 94.4591 85.5223 95.2818 86.7759C96.1046 85.5309 95.4584 85.0916 95.2818 85.0916Z" fill="black"/>
<path d="M84.9433 90.2608C84.7667 90.2608 84.1206 90.6915 84.9433 91.9451C85.7661 90.7002 85.1199 90.2608 84.9433 90.2608Z" fill="black"/>
<path d="M105.62 90.2608C105.444 90.2608 104.797 90.6915 105.62 91.9451C106.443 90.7002 105.797 90.2608 105.62 90.2608Z" fill="black"/>
<path d="M75.0702 97.3727C76.5606 97.4546 76.6123 96.6749 76.5262 96.5112C76.44 96.3475 75.712 96.0331 75.0702 97.3727Z" fill="black"/>
<path d="M95.7471 97.3727C97.2332 97.4546 97.2892 96.6749 97.2031 96.5112C97.1169 96.3475 96.3889 96.0331 95.7471 97.3727Z" fill="black"/>
<path d="M85.4086 102.542C86.899 102.624 86.9507 101.844 86.8646 101.68C86.7784 101.517 86.0504 101.202 85.4086 102.542Z" fill="black"/>
<path d="M106.086 102.542C107.572 102.624 107.628 101.844 107.542 101.68C107.455 101.517 106.727 101.202 106.086 102.542Z" fill="black"/>
<path d="M95.7471 87.0343C97.2332 87.1162 97.2892 86.3365 97.2031 86.1728C97.1169 86.0091 96.3889 85.6946 95.7471 87.0343Z" fill="black"/>
<path d="M85.4086 92.2035C86.899 92.2854 86.9507 91.5057 86.8646 91.342C86.7784 91.1783 86.0504 90.8638 85.4086 92.2035Z" fill="black"/>
<path d="M106.086 92.2035C107.572 92.2854 107.628 91.5057 107.542 91.342C107.455 91.1783 106.727 90.8638 106.086 92.2035Z" fill="black"/>
<path d="M86.8474 81.0165C86.7612 80.87 86.1323 80.5857 85.5077 81.6411C85.5077 81.7186 85.5077 81.7919 85.5077 81.8651C86.8775 81.9254 86.9335 81.163 86.8474 81.0165Z" fill="black"/>
<path d="M93.3779 96.5242C93.2918 96.6749 93.3478 97.4546 94.8339 97.3857C94.1749 96.0331 93.4684 96.3691 93.3779 96.5242Z" fill="black"/>
<path d="M93.3778 106.863C93.3476 106.972 93.353 107.088 93.3933 107.194C93.4336 107.3 93.5066 107.391 93.6018 107.453C93.9683 107.684 94.4054 107.775 94.8338 107.711C94.7931 107.622 94.7471 107.536 94.6959 107.453C94.0799 106.419 93.4639 106.716 93.3778 106.863Z" fill="black"/>
<path d="M83.0393 101.693C82.9532 101.844 83.0092 102.624 84.4953 102.555C83.8362 101.202 83.1298 101.538 83.0393 101.693Z" fill="black"/>
<path d="M114.055 96.5242C113.964 96.6749 114.024 97.4546 115.511 97.3857C114.852 96.0331 114.145 96.3691 114.055 96.5242Z" fill="black"/>
<path d="M115.373 107.453C114.757 106.419 114.141 106.716 114.055 106.863C114.024 106.972 114.03 107.088 114.07 107.194C114.11 107.3 114.183 107.391 114.279 107.453C114.645 107.684 115.082 107.776 115.511 107.711C115.47 107.622 115.424 107.536 115.373 107.453Z" fill="black"/>
<path d="M103.716 101.693C103.626 101.844 103.686 102.624 105.172 102.555C104.513 101.202 103.807 101.538 103.716 101.693Z" fill="black"/>
<path d="M93.3779 86.1857C93.2918 86.3365 93.3478 87.1162 94.8339 87.0473C94.1749 85.6946 93.4684 86.0306 93.3779 86.1857Z" fill="black"/>
<path d="M83.0393 91.3549C82.9532 91.5057 83.0092 92.2854 84.4953 92.2165C83.8362 90.8639 83.1298 91.1999 83.0393 91.3549Z" fill="black"/>
<path d="M103.716 91.3549C103.626 91.5057 103.686 92.2854 105.172 92.2165C104.513 90.8639 103.807 91.1999 103.716 91.3549Z" fill="black"/>
<path d="M104.362 81.8005C104.324 81.6799 104.285 81.5636 104.25 81.4386C104.216 81.3137 104.156 81.0639 104.113 80.8614C104.039 80.8531 103.964 80.8629 103.895 80.89C103.826 80.917 103.765 80.9604 103.716 81.0165C103.647 81.1328 103.669 81.6239 104.362 81.8005Z" fill="black"/>
<path d="M94.6961 76.4374C94.6279 76.3206 94.5501 76.2097 94.4635 76.1057C94.392 76.0195 94.3111 75.9414 94.2223 75.8731C94.0773 75.7526 93.8938 75.6884 93.7054 75.6922C93.6428 75.6927 93.5811 75.7069 93.5246 75.7336C93.468 75.7604 93.418 75.7992 93.378 75.8473C93.357 75.9055 93.3489 75.9676 93.3541 76.0293C93.3593 76.091 93.3777 76.1509 93.4081 76.2048C93.4366 76.2613 93.4728 76.3135 93.5158 76.3599L93.602 76.4374C93.9685 76.6683 94.4056 76.76 94.834 76.6959C94.7952 76.6097 94.7521 76.5322 94.7134 76.4633L94.6961 76.4374Z" fill="black"/>
<path d="M75.0013 126.923C74.9936 126.858 74.9747 126.793 74.9453 126.734C74.9328 126.707 74.9184 126.681 74.9022 126.656C74.8748 126.614 74.8414 126.577 74.8031 126.544C74.7722 126.518 74.7373 126.496 74.6997 126.48C74.6732 126.466 74.6436 126.459 74.6136 126.459C74.5836 126.459 74.554 126.466 74.5274 126.48C74.3293 126.566 74.0062 126.911 74.368 127.712C74.4398 127.861 74.5218 128.005 74.6136 128.143C74.7054 128.005 74.7874 127.861 74.8591 127.712C74.9607 127.51 75.0166 127.288 75.0228 127.061C75.0251 127.021 75.0251 126.981 75.0228 126.941L75.0013 126.923Z" fill="black"/>
<path d="M95.2818 126.445C95.1052 126.445 94.4591 126.876 95.2818 128.13C96.1046 126.885 95.4584 126.445 95.2818 126.445Z" fill="black"/>
<path d="M95.2818 136.784C95.1052 136.784 94.4591 137.215 95.2818 138.468C96.1046 137.223 95.4584 136.784 95.2818 136.784Z" fill="black"/>
<path d="M75.0013 137.262C74.9936 137.196 74.9747 137.132 74.9453 137.072C74.9328 137.046 74.9184 137.02 74.9022 136.995C74.8748 136.953 74.8414 136.915 74.8031 136.883C74.7722 136.856 74.7373 136.834 74.6997 136.818C74.6733 136.804 74.6437 136.796 74.6136 136.796C74.5835 136.796 74.5539 136.804 74.5274 136.818C74.3293 136.904 74.0062 137.249 74.368 138.05C74.4398 138.199 74.5218 138.343 74.6136 138.481C74.7054 138.343 74.7874 138.199 74.8591 138.05C74.9607 137.848 75.0166 137.626 75.0228 137.4C75.0251 137.36 75.0251 137.319 75.0228 137.279L75.0013 137.262Z" fill="black"/>
<path d="M84.9433 131.615C84.7667 131.615 84.1206 132.045 84.9433 133.299C85.7661 132.054 85.1199 131.615 84.9433 131.615Z" fill="black"/>
<path d="M105.62 131.615C105.444 131.615 104.797 132.045 105.62 133.299C106.443 132.054 105.797 131.615 105.62 131.615Z" fill="black"/>
<path d="M75.0013 116.585C74.9936 116.519 74.9747 116.455 74.9453 116.395C74.9328 116.369 74.9184 116.343 74.9022 116.318C74.8748 116.276 74.8414 116.238 74.8031 116.206C74.7722 116.179 74.7373 116.157 74.6997 116.141C74.6732 116.127 74.6436 116.12 74.6136 116.12C74.5836 116.12 74.554 116.127 74.5274 116.141C74.3293 116.227 74.0062 116.572 74.368 117.373C74.4398 117.522 74.5218 117.666 74.6136 117.804C74.7054 117.666 74.7874 117.522 74.8591 117.373C74.9607 117.171 75.0166 116.949 75.0228 116.723C75.0251 116.683 75.0251 116.642 75.0228 116.602L75.0013 116.585Z" fill="black"/>
<path d="M95.2818 116.107C95.1052 116.107 94.4591 116.538 95.2818 117.791C96.1046 116.546 95.4584 116.107 95.2818 116.107Z" fill="black"/>
<path d="M84.9433 121.276C84.7667 121.276 84.1206 121.707 84.9433 122.96C85.7661 121.715 85.1199 121.276 84.9433 121.276Z" fill="black"/>
<path d="M105.62 121.276C105.444 121.276 104.797 121.707 105.62 122.96C106.443 121.715 105.797 121.276 105.62 121.276Z" fill="black"/>
<path d="M84.9433 110.938C84.7667 110.938 84.1206 111.368 84.9433 112.622C85.7661 111.377 85.1199 110.938 84.9433 110.938Z" fill="black"/>
<path d="M105.62 110.938C105.444 110.938 104.797 111.368 105.62 112.622C106.443 111.377 105.797 110.938 105.62 110.938Z" fill="black"/>
<path d="M75.0702 128.388C76.5606 128.47 76.6123 127.69 76.5262 127.527C76.44 127.363 75.712 127.048 75.0702 128.388Z" fill="black"/>
<path d="M95.7471 128.388C97.2332 128.47 97.2892 127.69 97.2031 127.527C97.1169 127.363 96.3889 127.048 95.7471 128.388Z" fill="black"/>
<path d="M96.8585 137.723C96.67 137.719 96.4865 137.783 96.3415 137.904C96.2538 137.973 96.173 138.051 96.1003 138.136C96.0138 138.24 95.936 138.351 95.8677 138.468V138.494C95.8289 138.563 95.7858 138.64 95.7471 138.726C96.1755 138.791 96.6129 138.7 96.9791 138.468C97.0097 138.444 97.0385 138.418 97.0652 138.39C97.1082 138.344 97.1445 138.292 97.1729 138.235C97.2033 138.181 97.2218 138.122 97.227 138.06C97.2322 137.998 97.224 137.936 97.2031 137.878C97.1612 137.828 97.1084 137.787 97.0487 137.761C96.989 137.734 96.9239 137.721 96.8585 137.723Z" fill="black"/>
<path d="M76.1816 137.723C75.9931 137.719 75.8096 137.783 75.6647 137.904C75.5769 137.973 75.4961 138.051 75.4234 138.136C75.3369 138.24 75.2591 138.351 75.1908 138.468V138.494C75.152 138.563 75.109 138.64 75.0702 138.726C75.4986 138.791 75.936 138.7 76.3022 138.468C76.3328 138.444 76.3616 138.418 76.3883 138.39C76.4314 138.344 76.4676 138.292 76.496 138.235C76.538 138.186 76.5637 138.125 76.5695 138.06C76.5752 137.995 76.5609 137.93 76.5283 137.874C76.4957 137.818 76.4466 137.773 76.3876 137.746C76.3286 137.719 76.2626 137.711 76.1988 137.723H76.1816Z" fill="black"/>
<path d="M85.4086 133.557C86.899 133.639 86.9507 132.859 86.8646 132.696C86.7784 132.532 86.0504 132.218 85.4086 133.557Z" fill="black"/>
<path d="M106.086 133.557C107.572 133.639 107.628 132.859 107.542 132.696C107.455 132.532 106.727 132.218 106.086 133.557Z" fill="black"/>
<path d="M75.0702 118.05C76.5606 118.131 76.6123 117.352 76.5262 117.188C76.44 117.024 75.712 116.71 75.0702 118.05Z" fill="black"/>
<path d="M95.7471 118.05C97.2332 118.131 97.2892 117.352 97.2031 117.188C97.1169 117.024 96.3889 116.71 95.7471 118.05Z" fill="black"/>
<path d="M85.4086 123.219C86.899 123.301 86.9507 122.521 86.8646 122.357C86.7784 122.194 86.0504 121.879 85.4086 123.219Z" fill="black"/>
<path d="M106.086 123.219C107.572 123.301 107.628 122.521 107.542 122.357C107.455 122.194 106.727 121.879 106.086 123.219Z" fill="black"/>
<path d="M85.4086 112.88C86.899 112.962 86.9507 112.183 86.8646 112.019C86.7784 111.855 86.0504 111.541 85.4086 112.88Z" fill="black"/>
<path d="M106.086 112.88C107.572 112.962 107.628 112.183 107.542 112.019C107.455 111.855 106.727 111.541 106.086 112.88Z" fill="black"/>
<path d="M93.3779 127.539C93.2918 127.69 93.3478 128.47 94.8339 128.401C94.1749 127.048 93.4684 127.384 93.3779 127.539Z" fill="black"/>
<path d="M83.0393 132.709C82.9532 132.859 83.0092 133.639 84.4953 133.57C83.8362 132.218 83.1298 132.554 83.0393 132.709Z" fill="black"/>
<path d="M114.055 127.539C113.964 127.69 114.024 128.47 115.511 128.401C114.852 127.048 114.145 127.384 114.055 127.539Z" fill="black"/>
<path d="M103.716 132.709C103.626 132.859 103.686 133.639 105.172 133.57C104.513 132.218 103.807 132.554 103.716 132.709Z" fill="black"/>
<path d="M77.0475 139.76C77.0475 139.76 88.2475 142.634 102.316 131.722C116.385 120.811 121.847 125.114 121.27 132.868C120.693 140.622 108.636 147.803 103.466 148.664C94.9674 150.082 87.3859 152.399 77.0475 139.76Z" fill="black"/>
<path d="M93.3779 117.201C93.2918 117.352 93.3478 118.131 94.8339 118.063C94.1749 116.71 93.4684 117.046 93.3779 117.201Z" fill="black"/>
<path d="M83.0393 122.37C82.9532 122.521 83.0092 123.301 84.4953 123.232C83.8362 121.879 83.1298 122.215 83.0393 122.37Z" fill="black"/>
<path d="M114.055 117.201C113.964 117.352 114.024 118.131 115.511 118.063C114.852 116.71 114.145 117.046 114.055 117.201Z" fill="black"/>
<path d="M103.716 122.37C103.626 122.521 103.686 123.301 105.172 123.232C104.513 121.879 103.807 122.215 103.716 122.37Z" fill="black"/>
<path d="M83.0393 112.032C82.9532 112.183 83.0092 112.962 84.4953 112.893C83.8362 111.541 83.1298 111.877 83.0393 112.032Z" fill="black"/>
<path d="M103.716 112.032C103.626 112.183 103.686 112.962 105.172 112.893C104.513 111.541 103.807 111.877 103.716 112.032Z" fill="black"/>
<path d="M96.962 107.453C97.0572 107.391 97.1302 107.3 97.1705 107.194C97.2107 107.088 97.2162 106.972 97.186 106.863C97.0998 106.716 96.4838 106.432 95.8678 107.453C95.8167 107.536 95.7706 107.622 95.73 107.711C96.1584 107.776 96.5958 107.684 96.962 107.453Z" fill="black"/>
<path d="M76.2849 107.453C76.38 107.391 76.4531 107.3 76.4933 107.194C76.5336 107.088 76.5391 106.972 76.5088 106.863C76.4227 106.716 75.8067 106.432 75.1907 107.453C75.1395 107.536 75.0935 107.622 75.0529 107.711C75.4812 107.776 75.9187 107.684 76.2849 107.453Z" fill="black"/>
<path d="M75.0013 157.939C74.9936 157.873 74.9747 157.809 74.9453 157.749C74.9328 157.722 74.9184 157.696 74.9022 157.672C74.8748 157.63 74.8414 157.592 74.8031 157.56C74.7722 157.533 74.7373 157.511 74.6997 157.495C74.6733 157.481 74.6437 157.473 74.6136 157.473C74.5835 157.473 74.5539 157.481 74.5274 157.495C74.3293 157.581 74.0062 157.926 74.368 158.727C74.4398 158.876 74.5218 159.02 74.6136 159.158C74.7054 159.02 74.7874 158.876 74.8591 158.727C74.9607 158.525 75.0166 158.303 75.0228 158.077C75.0251 158.036 75.0251 157.996 75.0228 157.956L75.0013 157.939Z" fill="black"/>
<path d="M95.2818 157.461C95.1052 157.461 94.4591 157.891 95.2818 159.145C96.1046 157.9 95.4584 157.461 95.2818 157.461Z" fill="black"/>
<path d="M95.2818 167.799C95.1052 167.799 94.4591 168.23 95.2818 169.483C96.1046 168.238 95.4584 167.799 95.2818 167.799Z" fill="black"/>
<path d="M75.0013 168.277C74.9936 168.211 74.9747 168.147 74.9453 168.088C74.9328 168.061 74.9184 168.035 74.9022 168.01C74.8748 167.968 74.8414 167.93 74.8031 167.898C74.7722 167.871 74.7373 167.85 74.6997 167.833C74.6733 167.819 74.6437 167.812 74.6136 167.812C74.5835 167.812 74.5539 167.819 74.5274 167.833C74.3293 167.92 74.0062 168.264 74.368 169.066C74.4398 169.215 74.5218 169.359 74.6136 169.496C74.7054 169.359 74.7874 169.215 74.8591 169.066C74.9607 168.863 75.0166 168.641 75.0228 168.415C75.0251 168.375 75.0251 168.335 75.0228 168.294L75.0013 168.277Z" fill="black"/>
<path d="M84.9433 162.63C84.7667 162.63 84.1206 163.061 84.9433 164.314C85.7661 163.069 85.1199 162.63 84.9433 162.63Z" fill="black"/>
<path d="M105.62 162.63C105.444 162.63 104.797 163.061 105.62 164.314C106.443 163.069 105.797 162.63 105.62 162.63Z" fill="black"/>
<path d="M75.0013 147.6C74.9936 147.534 74.9747 147.47 74.9453 147.411C74.9328 147.384 74.9184 147.358 74.9022 147.333C74.8748 147.291 74.8414 147.254 74.8031 147.221C74.7722 147.195 74.7373 147.173 74.6997 147.157C74.6733 147.142 74.6437 147.135 74.6136 147.135C74.5835 147.135 74.5539 147.142 74.5274 147.157C74.3293 147.243 74.0062 147.587 74.368 148.389C74.4398 148.538 74.5218 148.682 74.6136 148.819C74.7054 148.682 74.7874 148.538 74.8591 148.389C74.9607 148.186 75.0166 147.964 75.0228 147.738C75.0251 147.698 75.0251 147.658 75.0228 147.618L75.0013 147.6Z" fill="black"/>
<path d="M95.2818 147.122C95.1052 147.122 94.4591 147.553 95.2818 148.806C96.1046 147.562 95.4584 147.122 95.2818 147.122Z" fill="black"/>
<path d="M84.9433 152.291C84.7667 152.291 84.1206 152.722 84.9433 153.976C85.7661 152.731 85.1199 152.291 84.9433 152.291Z" fill="black"/>
<path d="M105.62 152.291C105.444 152.291 104.797 152.722 105.62 153.976C106.443 152.731 105.797 152.291 105.62 152.291Z" fill="black"/>
<path d="M84.9433 141.953C84.7667 141.953 84.1206 142.384 84.9433 143.637C85.7661 142.392 85.1199 141.953 84.9433 141.953Z" fill="black"/>
<path d="M105.62 141.953C105.444 141.953 104.797 142.384 105.62 143.637C106.443 142.392 105.797 141.953 105.62 141.953Z" fill="black"/>
<path d="M75.0702 159.403C76.5606 159.485 76.6123 158.706 76.5262 158.542C76.44 158.378 75.712 158.064 75.0702 159.403Z" fill="black"/>
<path d="M95.7471 159.403C97.2332 159.485 97.2892 158.706 97.2031 158.542C97.1169 158.378 96.3889 158.064 95.7471 159.403Z" fill="black"/>
<path d="M96.8586 168.738H96.7681C96.657 168.746 96.5493 168.78 96.4537 168.837L96.3417 168.915C96.15 169.072 95.9893 169.263 95.8678 169.479C95.8167 169.562 95.7706 169.649 95.73 169.737C96.1584 169.802 96.5958 169.711 96.962 169.479C97.0572 169.417 97.1302 169.327 97.1705 169.221C97.2107 169.114 97.2162 168.998 97.186 168.889C97.1455 168.842 97.0953 168.804 97.0388 168.778C96.9823 168.752 96.9208 168.738 96.8586 168.738Z" fill="black"/>
<path d="M76.1815 168.738H76.091C75.9799 168.746 75.8722 168.78 75.7765 168.837L75.6645 168.915C75.4728 169.072 75.3121 169.263 75.1907 169.479C75.1395 169.562 75.0935 169.649 75.0529 169.737C75.4812 169.802 75.9187 169.711 76.2849 169.479C76.38 169.417 76.4531 169.327 76.4933 169.221C76.5336 169.114 76.5391 168.998 76.5088 168.889C76.4684 168.842 76.4182 168.804 76.3617 168.778C76.3052 168.752 76.2437 168.738 76.1815 168.738Z" fill="black"/>
<path d="M85.4086 164.573C86.899 164.654 86.9507 163.875 86.8646 163.711C86.7784 163.547 86.0504 163.233 85.4086 164.573Z" fill="black"/>
<path d="M106.086 164.573C107.572 164.654 107.628 163.875 107.542 163.711C107.455 163.547 106.727 163.233 106.086 164.573Z" fill="black"/>
<path d="M75.0702 149.065C76.5606 149.147 76.6123 148.367 76.5262 148.203C76.44 148.04 75.712 147.725 75.0702 149.065Z" fill="black"/>
<path d="M95.7471 149.065C97.2332 149.147 97.2892 148.367 97.2031 148.203C97.1169 148.04 96.3889 147.725 95.7471 149.065Z" fill="black"/>
<path d="M85.4086 154.234C86.899 154.316 86.9507 153.536 86.8646 153.373C86.7784 153.209 86.0504 152.894 85.4086 154.234Z" fill="black"/>
<path d="M106.086 154.234C107.572 154.316 107.628 153.536 107.542 153.373C107.455 153.209 106.727 152.894 106.086 154.234Z" fill="black"/>
<path d="M85.4086 143.896C86.899 143.978 86.9507 143.198 86.8646 143.034C86.7784 142.87 86.0504 142.556 85.4086 143.896Z" fill="black"/>
<path d="M106.086 143.896C107.572 143.978 107.628 143.198 107.542 143.034C107.455 142.87 106.727 142.556 106.086 143.896Z" fill="black"/>
<path d="M93.3779 158.555C93.2918 158.706 93.3478 159.485 94.8339 159.416C94.1749 158.064 93.4684 158.4 93.3779 158.555Z" fill="black"/>
<path d="M94.2221 168.941L94.1101 168.863C94.0147 168.805 93.9069 168.771 93.7956 168.764H93.7052C93.6426 168.765 93.5809 168.779 93.5244 168.805C93.4678 168.832 93.4178 168.871 93.3778 168.919C93.3476 169.028 93.353 169.145 93.3933 169.251C93.4336 169.357 93.5066 169.447 93.6018 169.509C93.9683 169.74 94.4054 169.832 94.8338 169.768C94.7931 169.679 94.7471 169.592 94.6959 169.509C94.5763 169.291 94.4154 169.098 94.2221 168.941Z" fill="black"/>
<path d="M83.0393 163.724C82.9532 163.875 83.0092 164.654 84.4953 164.586C83.8362 163.233 83.1298 163.569 83.0393 163.724Z" fill="black"/>
<path d="M114.055 158.555C113.964 158.706 114.024 159.485 115.511 159.416C114.852 158.064 114.145 158.4 114.055 158.555Z" fill="black"/>
<path d="M115.373 169.483C115.251 169.267 115.091 169.076 114.899 168.919L114.787 168.841C114.691 168.784 114.584 168.751 114.473 168.742H114.382C114.319 168.743 114.258 168.757 114.201 168.784C114.145 168.811 114.095 168.849 114.055 168.898C114.024 169.007 114.03 169.123 114.07 169.229C114.11 169.335 114.183 169.426 114.279 169.488C114.645 169.719 115.082 169.811 115.511 169.746C115.47 169.657 115.424 169.571 115.373 169.488V169.483Z" fill="black"/>
<path d="M103.716 163.724C103.626 163.875 103.686 164.654 105.172 164.586C104.513 163.233 103.807 163.569 103.716 163.724Z" fill="black"/>
<path d="M93.3779 148.216C93.2918 148.367 93.3478 149.147 94.8339 149.078C94.1749 147.725 93.4684 148.061 93.3779 148.216Z" fill="black"/>
<path d="M83.0393 153.386C82.9532 153.536 83.0092 154.316 84.4953 154.247C83.8362 152.894 83.1298 153.23 83.0393 153.386Z" fill="black"/>
<path d="M114.055 148.216C113.964 148.367 114.024 149.147 115.511 149.078C114.852 147.725 114.145 148.061 114.055 148.216Z" fill="black"/>
<path d="M103.716 153.386C103.626 153.536 103.686 154.316 105.172 154.247C104.513 152.894 103.807 153.23 103.716 153.386Z" fill="black"/>
<path d="M83.0393 143.047C82.9532 143.198 83.0092 143.978 84.4953 143.909C83.8362 142.556 83.1298 142.892 83.0393 143.047Z" fill="black"/>
<path d="M103.716 143.047C103.626 143.198 103.686 143.978 105.172 143.909C104.513 142.556 103.807 142.892 103.716 143.047Z" fill="black"/>
<path d="M94.6961 138.468C94.6279 138.351 94.5501 138.24 94.4635 138.136C94.392 138.05 94.3111 137.972 94.2223 137.904C94.0773 137.783 93.8938 137.719 93.7054 137.723C93.6428 137.723 93.5811 137.737 93.5246 137.764C93.468 137.791 93.418 137.83 93.378 137.878C93.357 137.936 93.3489 137.998 93.3541 138.06C93.3593 138.122 93.3777 138.181 93.4081 138.235C93.4366 138.292 93.4728 138.344 93.5158 138.39L93.602 138.468C93.9685 138.699 94.4056 138.791 94.834 138.726C94.7952 138.64 94.7521 138.563 94.7134 138.494L94.6961 138.468Z" fill="black"/>
<path d="M115.373 138.468C115.305 138.351 115.227 138.24 115.14 138.136C115.067 138.051 114.987 137.973 114.899 137.904C114.754 137.783 114.57 137.719 114.382 137.723C114.319 137.723 114.258 137.737 114.201 137.764C114.145 137.791 114.095 137.83 114.055 137.878C114.034 137.936 114.025 137.998 114.031 138.06C114.036 138.122 114.054 138.181 114.085 138.235C114.113 138.292 114.149 138.344 114.192 138.39C114.219 138.418 114.248 138.444 114.279 138.468C114.645 138.7 115.082 138.791 115.511 138.726C115.472 138.64 115.429 138.563 115.39 138.494C115.383 138.486 115.377 138.478 115.373 138.468Z" fill="black"/>
<path d="M84.9433 172.968C84.7667 172.968 84.1206 173.399 84.9433 174.653C85.7661 173.408 85.1199 172.968 84.9433 172.968Z" fill="black"/>
<path d="M105.62 172.968C105.444 172.968 104.797 173.399 105.62 174.653C106.443 173.408 105.797 172.968 105.62 172.968Z" fill="black"/>
<path d="M85.4086 174.911C86.899 174.993 86.9507 174.213 86.8646 174.049C86.7784 173.886 86.0504 173.571 85.4086 174.911Z" fill="black"/>
<path d="M106.086 174.911C107.572 174.993 107.628 174.213 107.542 174.049C107.455 173.886 106.727 173.571 106.086 174.911Z" fill="black"/>
<path d="M83.0393 174.062C82.9532 174.213 83.0092 174.993 84.4953 174.924C83.8362 173.571 83.1298 173.907 83.0393 174.062Z" fill="black"/>
<path d="M103.716 174.062C103.626 174.213 103.686 174.993 105.172 174.924C104.513 173.571 103.807 173.907 103.716 174.062Z" fill="black"/>
<path d="M53.928 105.768C53.7513 105.768 53.1052 106.199 53.928 107.453C54.7507 106.208 54.1046 105.768 53.928 105.768Z" fill="black"/>
<path d="M64.2667 100.599C64.0901 100.599 63.4439 101.03 64.2667 102.284C65.0895 101.039 64.4433 100.599 64.2667 100.599Z" fill="black"/>
<path d="M64.6457 90.6571L63.8574 90.8595C63.8838 91.2538 64.0261 91.6315 64.2667 91.9451C64.6673 91.342 64.7319 90.9242 64.6457 90.6571Z" fill="black"/>
<path d="M54.3933 97.3727C55.8795 97.4546 55.9355 96.6749 55.8493 96.5112C55.7632 96.3475 55.0352 96.0331 54.3933 97.3727Z" fill="black"/>
<path d="M64.7317 102.542C66.2178 102.624 66.2738 101.844 66.1877 101.68C66.1015 101.517 65.3735 101.202 64.7317 102.542Z" fill="black"/>
<path d="M64.7317 92.2035C66.2178 92.2854 66.2738 91.5057 66.1877 91.342C66.1015 91.1783 65.3735 90.8638 64.7317 92.2035Z" fill="black"/>
<path d="M52.0241 106.863C51.9939 106.972 51.9994 107.088 52.0396 107.194C52.0799 107.3 52.153 107.391 52.2481 107.453C52.6146 107.684 53.0518 107.775 53.4801 107.711C53.4395 107.622 53.3935 107.536 53.3423 107.453C52.7263 106.419 52.1103 106.716 52.0241 106.863Z" fill="black"/>
<path d="M72.7011 96.5242C72.6107 96.6749 72.671 97.4546 74.1571 97.3857C73.498 96.0331 72.7916 96.3691 72.7011 96.5242Z" fill="black"/>
<path d="M74.0191 107.453C73.4031 106.419 72.7871 106.716 72.7009 106.863C72.6707 106.972 72.6761 107.088 72.7164 107.194C72.7567 107.3 72.8297 107.391 72.9249 107.453C73.2911 107.684 73.7285 107.776 74.1569 107.711C74.1163 107.622 74.0702 107.536 74.0191 107.453Z" fill="black"/>
<path d="M62.3624 101.693C62.2719 101.844 62.3322 102.624 63.8184 102.555C63.1593 101.202 62.4528 101.538 62.3624 101.693Z" fill="black"/>
<path d="M62.6768 91.2042L62.4528 91.2731C62.4171 91.2935 62.3863 91.3214 62.3624 91.3549C62.2719 91.5057 62.3322 92.2854 63.8184 92.2165C63.4005 91.3506 62.9655 91.1783 62.6768 91.2042Z" fill="black"/>
<path d="M33.2511 126.445C33.0745 126.445 32.4283 126.876 33.2511 128.13C34.0738 126.885 33.4277 126.445 33.2511 126.445Z" fill="black"/>
<path d="M43.5897 131.615C43.4131 131.615 42.7669 132.045 43.5897 133.299C44.4125 132.054 43.7663 131.615 43.5897 131.615Z" fill="black"/>
<path d="M53.928 116.107C53.7513 116.107 53.1052 116.538 53.928 117.791C54.7507 116.546 54.1046 116.107 53.928 116.107Z" fill="black"/>
<path d="M43.5897 121.276C43.4131 121.276 42.7669 121.707 43.5897 122.96C44.4125 121.715 43.7663 121.276 43.5897 121.276Z" fill="black"/>
<path d="M64.2667 121.276C64.0901 121.276 63.4439 121.707 64.2667 122.96C65.0895 121.715 64.4433 121.276 64.2667 121.276Z" fill="black"/>
<path d="M43.5897 110.938C43.4131 110.938 42.7669 111.368 43.5897 112.622C44.4125 111.377 43.7663 110.938 43.5897 110.938Z" fill="black"/>
<path d="M64.2667 110.938C64.0901 110.938 63.4439 111.368 64.2667 112.622C65.0895 111.377 64.4433 110.938 64.2667 110.938Z" fill="black"/>
<path d="M33.7163 128.388C35.2068 128.47 35.2628 127.69 35.1723 127.527C35.0818 127.363 34.3582 127.048 33.7163 128.388Z" fill="black"/>
<path d="M44.2919 133.118C44.6753 132.976 45.05 132.816 45.4205 132.635C45.2396 132.515 44.7743 132.433 44.2919 133.118Z" fill="black"/>
<path d="M35.1552 117.201C35.1044 117.136 35.0329 117.091 34.9527 117.072C34.6856 117.412 34.4315 117.735 34.2118 118.041C35.1983 117.938 35.2327 117.335 35.1552 117.201Z" fill="black"/>
<path d="M54.3933 118.05C55.8795 118.131 55.9355 117.352 55.8493 117.188C55.7632 117.024 55.0352 116.71 54.3933 118.05Z" fill="black"/>
<path d="M44.0548 123.219C45.5453 123.301 45.597 122.521 45.5108 122.357C45.4247 122.194 44.6967 121.879 44.0548 123.219Z" fill="black"/>
<path d="M64.7317 123.219C66.2178 123.301 66.2738 122.521 66.1877 122.357C66.1015 122.194 65.3735 121.879 64.7317 123.219Z" fill="black"/>
<path d="M44.0548 112.88C45.5453 112.962 45.597 112.183 45.5108 112.019C45.4247 111.855 44.6967 111.541 44.0548 112.88Z" fill="black"/>
<path d="M64.7317 112.88C66.2178 112.962 66.2738 112.183 66.1877 112.019C66.1015 111.855 65.3735 111.541 64.7317 112.88Z" fill="black"/>
<path d="M41.6857 132.709C41.6038 132.847 41.6469 133.501 42.7798 133.57L43.1029 133.497C42.4568 132.235 41.7761 132.558 41.6857 132.709Z" fill="black"/>
<path d="M72.7011 127.539C72.6107 127.69 72.671 128.47 74.1571 128.401C73.498 127.048 72.7916 127.384 72.7011 127.539Z" fill="black"/>
<path d="M52.0242 117.201C51.938 117.352 51.994 118.131 53.4802 118.063C52.8211 116.71 52.1146 117.046 52.0242 117.201Z" fill="black"/>
<path d="M41.6857 122.37C41.5995 122.521 41.6555 123.301 43.1417 123.232C42.4826 121.879 41.7761 122.215 41.6857 122.37Z" fill="black"/>
<path d="M72.7011 117.201C72.6107 117.352 72.671 118.131 74.1571 118.063C73.498 116.71 72.7916 117.046 72.7011 117.201Z" fill="black"/>
<path d="M41.6857 112.032C41.5995 112.183 41.6555 112.962 43.1417 112.893C42.4826 111.541 41.7761 111.877 41.6857 112.032Z" fill="black"/>
<path d="M62.3624 112.032C62.2719 112.183 62.3322 112.962 63.8184 112.893C63.1593 111.541 62.4528 111.877 62.3624 112.032Z" fill="black"/>
<path d="M55.608 107.453C55.7032 107.391 55.7762 107.3 55.8165 107.194C55.8567 107.088 55.8622 106.972 55.832 106.863C55.7458 106.716 55.1298 106.432 54.5138 107.453C54.4627 107.536 54.4166 107.622 54.376 107.711C54.8044 107.776 55.2418 107.684 55.608 107.453Z" fill="black"/>
<path d="M64.2667 162.63C64.0901 162.63 63.4439 163.061 64.2667 164.314C65.0895 163.069 64.4433 162.63 64.2667 162.63Z" fill="black"/>
<path d="M64.598 153.321L64.2362 153.928L64.2664 153.976C64.4057 153.773 64.5173 153.553 64.598 153.321Z" fill="black"/>
<path d="M64.7317 164.573C66.2178 164.654 66.2738 163.875 66.1877 163.711C66.1015 163.547 65.3735 163.233 64.7317 164.573Z" fill="black"/>
<path d="M64.7317 154.234C66.2178 154.316 66.2738 153.536 66.1877 153.373C66.1015 153.209 65.3735 152.894 64.7317 154.234Z" fill="black"/>
<path d="M72.7011 158.555C72.6107 158.706 72.671 159.485 74.1571 159.416C73.498 158.064 72.7916 158.4 72.7011 158.555Z" fill="black"/>
<path d="M74.0191 169.483C73.8976 169.267 73.7369 169.076 73.5452 168.919L73.4332 168.841C73.3375 168.784 73.2299 168.751 73.1187 168.742H73.0283C72.9657 168.743 72.904 168.757 72.8475 168.784C72.791 168.811 72.7409 168.849 72.7009 168.898C72.6707 169.007 72.6761 169.123 72.7164 169.229C72.7567 169.335 72.8297 169.426 72.9249 169.488C73.2911 169.719 73.7285 169.811 74.1569 169.746C74.1163 169.657 74.0702 169.571 74.0191 169.488V169.483Z" fill="black"/>
<path d="M62.3624 163.724C62.2719 163.875 62.3322 164.654 63.8184 164.586C63.1593 163.233 62.4528 163.569 62.3624 163.724Z" fill="black"/>
<path d="M72.7011 148.216C72.6107 148.367 72.671 149.147 74.1571 149.078C73.498 147.725 72.7916 148.061 72.7011 148.216Z" fill="black"/>
<path d="M74.0191 138.468C73.9509 138.351 73.8731 138.24 73.7865 138.136C73.7139 138.051 73.6331 137.973 73.5453 137.904C73.4003 137.783 73.2168 137.719 73.0284 137.723C72.9658 137.723 72.9041 137.737 72.8476 137.764C72.791 137.791 72.741 137.83 72.701 137.878C72.68 137.936 72.6719 137.998 72.6771 138.06C72.6823 138.122 72.7007 138.181 72.7311 138.235C72.7596 138.292 72.7958 138.344 72.8388 138.39C72.8656 138.418 72.8944 138.444 72.925 138.468C73.2912 138.7 73.7286 138.791 74.157 138.726C74.1182 138.64 74.0751 138.563 74.0364 138.494L74.0191 138.468Z" fill="black"/>
<path d="M64.2667 172.968C64.0901 172.968 63.4439 173.399 64.2667 174.653C65.0895 173.408 64.4433 172.968 64.2667 172.968Z" fill="black"/>
<path d="M64.7317 174.911C66.2178 174.993 66.2738 174.213 66.1877 174.049C66.1015 173.886 65.3735 173.571 64.7317 174.911Z" fill="black"/>
<path d="M62.3624 174.062C62.2719 174.213 62.3322 174.993 63.8184 174.924C63.1593 173.571 62.4528 173.907 62.3624 174.062Z" fill="black"/>
<path d="M32.2389 127.608C32.3245 127.875 32.4237 128.136 32.5361 128.392H32.8032C32.6724 128.094 32.4801 127.827 32.2389 127.608Z" fill="black"/>
</g>
</g>
<path d="M132.888 175.083C132.888 175.083 133.659 164.508 129.011 153.928C124.363 143.349 123.316 142.586 123.316 139.489C123.316 136.392 126.426 132.778 126.943 125.812C127.46 118.847 127.202 115.474 127.202 115.474C127.202 115.474 138.294 133.015 146.035 134.048C153.776 135.082 158.42 127.858 155.581 118.054C152.742 108.25 140.357 100.255 135.46 93.8017C130.562 87.3488 119.461 87.3402 113.788 87.3402C108.114 87.3402 105.276 85.2768 104.242 81.4085C103.208 77.5402 103.212 69.7777 103.212 69.7777C103.212 69.7777 96.5009 73.9045 85.1502 69.2608C85.1502 69.2608 86.184 83.4503 84.8917 85.5137C83.5994 87.5771 81.8074 89.6792 74.0665 89.6792C66.3256 89.6792 59.877 91.23 56.2672 94.8484C52.6573 98.4669 37.6924 112.906 33.8241 118.584C29.9558 124.261 32.0149 130.451 36.6586 132.773C41.3023 135.095 45.946 133.027 49.3016 129.935C52.6573 126.842 63.2327 117.033 63.2327 117.033C63.2327 117.033 63.2327 122.969 66.0714 131.481C68.9102 139.993 71.2407 138.963 69.1644 145.154C67.0881 151.344 62.9742 153.153 61.6862 161.148C60.9147 165.75 60.5687 170.413 60.6524 175.079" stroke="#263238" stroke-width="0.430768" stroke-linecap="round" stroke-linejoin="round"/>
<path d="M63.2327 117.037C63.4443 114.247 64.0162 111.496 64.9342 108.853L63.2327 117.037Z" fill="white"/>
<path d="M63.2327 117.037C63.4443 114.247 64.0162 111.496 64.9342 108.853" stroke="#263238" stroke-width="0.430768" stroke-linecap="round" stroke-linejoin="round"/>
<path d="M127.193 115.491C126.625 113.35 125.835 111.274 124.837 109.296" stroke="#263238" stroke-width="0.430768" stroke-linecap="round" stroke-linejoin="round"/>
<path d="M89.2985 144.085L105.547 138.877" stroke="#263238" stroke-width="0.430768" stroke-linecap="round" stroke-linejoin="round"/>
<path d="M96.6559 139.795C100.452 138.267 104.413 137.187 108.459 136.577" stroke="#263238" stroke-width="0.430768" stroke-linecap="round" stroke-linejoin="round"/>
<path d="M92.1243 106.979C104.996 109.46 109.962 97.1229 111.69 87.2626C107.404 86.7888 105.146 84.7943 104.25 81.4386C103.221 77.5617 103.221 69.8079 103.221 69.8079C103.221 69.8079 96.5095 73.9347 85.1587 69.291C85.1587 69.291 86.1926 83.4805 84.9003 85.5439C84.0043 86.9826 82.8498 88.4214 79.6191 89.158C79.5027 93.5863 80.3944 104.713 92.1243 106.979Z" fill="#B2B2B2"/>
<mask id="mask1_13_391" style="mask-type:luminance" maskUnits="userSpaceOnUse" x="79" y="69" width="33" height="39">
<path d="M92.1243 106.979C104.996 109.46 109.962 97.1229 111.69 87.2626C107.404 86.7888 105.146 84.7943 104.25 81.4386C103.221 77.5617 103.221 69.8079 103.221 69.8079C103.221 69.8079 96.5095 73.9347 85.1587 69.291C85.1587 69.291 86.1926 83.4805 84.9003 85.5439C84.0043 86.9826 82.8498 88.4214 79.6191 89.158C79.5027 93.5863 80.3944 104.713 92.1243 106.979Z" fill="white"/>
</mask>
<g mask="url(#mask1_13_391)">
<path opacity="0.2" d="M103.97 80.1636C103.221 76.0885 103.221 69.8251 103.221 69.8251C103.221 69.8251 96.5094 73.9519 85.1587 69.3082C85.1587 69.3082 85.5895 75.2399 85.5464 79.9913C95.3162 83.3857 100.968 81.947 103.97 80.1636Z" fill="black"/>
</g>
<path d="M92.1243 106.979C104.996 109.46 109.962 97.1229 111.69 87.2626C107.404 86.7888 105.146 84.7943 104.25 81.4386C103.221 77.5617 103.221 69.8079 103.221 69.8079C103.221 69.8079 96.5095 73.9347 85.1587 69.291C85.1587 69.291 86.1926 83.4805 84.9003 85.5439C84.0043 86.9826 82.8498 88.4214 79.6191 89.158C79.5027 93.5863 80.3944 104.713 92.1243 106.979Z" stroke="#263238" stroke-width="0.430768" stroke-linecap="round" stroke-linejoin="round"/>
<path d="M111.586 64.8799C113.352 64.8799 114.783 63.4489 114.783 61.6836C114.783 59.9183 113.352 58.4873 111.586 58.4873C109.821 58.4873 108.39 59.9183 108.39 61.6836C108.39 63.4489 109.821 64.8799 111.586 64.8799Z" fill="#48E5C2" stroke="#263238" stroke-width="0.430768" stroke-linecap="round" stroke-linejoin="round"/>
<path d="M77.4437 64.8799C79.209 64.8799 80.64 63.4489 80.64 61.6836C80.64 59.9183 79.209 58.4873 77.4437 58.4873C75.6785 58.4873 74.2474 59.9183 74.2474 61.6836C74.2474 63.4489 75.6785 64.8799 77.4437 64.8799Z" fill="#48E5C2" stroke="#263238" stroke-width="0.430768" stroke-linecap="round" stroke-linejoin="round"/>
<path d="M111.293 50.7895C111.293 50.7895 112.892 45.8486 114.783 47.5932C116.674 49.3378 114.201 56.019 112.892 57.6172C111.582 59.2153 110.277 59.2153 110.423 57.0356C110.57 54.8559 111.293 50.7895 111.293 50.7895Z" fill="#B2B2B2" stroke="#263238" stroke-width="0.430768" stroke-linecap="round" stroke-linejoin="round"/>
<path d="M78.2534 55.7605C78.2534 55.7605 78.6842 67.3008 87.1789 72.9611C95.6737 78.6214 101.984 75.3562 105.469 70.566C108.954 65.7759 111.134 60.9858 111.134 54.0202C111.134 47.0547 111.995 44.0006 109.609 39.6455C107.223 35.2904 98.9389 33.1151 98.9389 33.1151C95.4976 37.4098 91.7885 41.4829 87.8337 45.3101C81.299 51.6209 78.2534 55.7605 78.2534 55.7605Z" fill="#B2B2B2"/>
<mask id="mask2_13_391" style="mask-type:luminance" maskUnits="userSpaceOnUse" x="78" y="33" width="34" height="43">
<path d="M78.2534 55.7605C78.2534 55.7605 78.6842 67.3008 87.1789 72.9611C95.6737 78.6214 101.984 75.3562 105.469 70.566C108.954 65.7759 111.134 60.9858 111.134 54.0202C111.134 47.0547 111.995 44.0006 109.609 39.6455C107.223 35.2904 98.9389 33.1151 98.9389 33.1151C95.4976 37.4098 91.7885 41.4829 87.8337 45.3101C81.299 51.6209 78.2534 55.7605 78.2534 55.7605Z" fill="white"/>
</mask>
<g mask="url(#mask2_13_391)">
<path opacity="0.2" d="M98.9389 33.1151C95.4976 37.4098 91.7885 41.4829 87.8337 45.3101C81.299 51.6209 78.2534 55.7605 78.2534 55.7605C78.4112 58.0091 78.8556 60.2283 79.5759 62.3642C91.0515 53.5852 97.3192 37.8104 98.9863 33.128L98.9389 33.1151Z" fill="black"/>
</g>
<path d="M78.2534 55.7605C78.2534 55.7605 78.6842 67.3008 87.1789 72.9611C95.6737 78.6214 101.984 75.3562 105.469 70.566C108.954 65.7759 111.134 60.9858 111.134 54.0202C111.134 47.0547 111.995 44.0006 109.609 39.6455C107.223 35.2904 98.9389 33.1151 98.9389 33.1151C95.4976 37.4098 91.7885 41.4829 87.8337 45.3101C81.299 51.6209 78.2534 55.7605 78.2534 55.7605Z" stroke="#263238" stroke-width="0.430768" stroke-linecap="round" stroke-linejoin="round"/>
<path d="M86.2875 54.4036L91.1767 54.8603" stroke="#263238" stroke-width="0.430768" stroke-linecap="round" stroke-linejoin="round"/>
<path d="M101.106 54.2486C101.106 54.2486 104.315 53.6369 105.844 54.2486" stroke="#263238" stroke-width="0.430768" stroke-linecap="round" stroke-linejoin="round"/>
<path d="M90.5175 52.1679C90.5175 53.331 89.9963 54.2744 89.3544 54.2744C88.7126 54.2744 88.1957 53.331 88.1957 52.1679C88.1957 51.0049 88.7126 50.0615 89.3544 50.0615C89.9963 50.0615 90.5175 51.0049 90.5175 52.1679Z" fill="#263238"/>
<path d="M93.1323 59.5255C93.9124 60.0149 94.8304 60.2375 95.748 60.1598C96.6656 60.0821 97.533 59.7083 98.2197 59.0947" stroke="#263238" stroke-width="0.430768" stroke-linecap="round" stroke-linejoin="round"/>
<path d="M94.4548 64.4448C94.4548 64.4448 98.9564 66.3359 101.571 60.2319" stroke="#263238" stroke-width="0.430768" stroke-linecap="round" stroke-linejoin="round"/>
<path d="M100.253 52.2412C100.253 52.2412 103.014 50.3501 105.775 51.5132" stroke="#263238" stroke-width="0.861536" stroke-linecap="round" stroke-linejoin="round"/>
<path d="M99.3828 47.4639C99.3828 47.4639 102.433 44.4141 106.646 46.8824" stroke="#263238" stroke-width="0.861536" stroke-linecap="round" stroke-linejoin="round"/>
<path d="M92.8436 45.5556C92.8436 45.5556 90.2288 42.9409 86.5931 45.4135" stroke="#263238" stroke-width="0.861536" stroke-linecap="round" stroke-linejoin="round"/>
<path d="M33.8241 118.588C33.8241 118.588 29.1804 123.757 29.1804 129.163C29.1804 134.57 32.2733 139.502 40.8112 147.221C49.349 154.941 57.3182 160.635 60.6739 162.445C64.0296 164.254 67.3809 161.928 67.3809 161.928C67.3809 161.928 72.9292 167.472 73.5711 166.184C74.2129 164.896 71.6369 162.957 71.12 162.186C70.6663 161.574 70.1478 161.012 69.5736 160.51C69.5736 160.51 72.2831 160.894 73.3169 161.803C74.3508 162.712 76.0222 164.254 76.7975 164.125C77.5729 163.995 77.5729 163.349 76.4098 161.803C75.4722 160.592 74.3396 159.545 73.0585 158.706C72.2831 158.193 69.7028 156.771 69.7028 156.771C69.7028 156.771 73.4419 156.513 74.7342 157.288C76.0265 158.064 79.5071 160.386 79.7655 159.352C80.024 158.318 80.024 157.676 78.7317 156.513C77.4394 155.35 74.8548 153.928 73.3169 153.674C72.2568 153.479 71.2191 153.178 70.2197 152.774C70.2197 152.774 73.1877 151.74 74.2172 151.74C75.2468 151.74 79.3865 153.803 80.5366 153.549C81.6868 153.295 81.0535 152.257 80.1532 151.611C79.2529 150.965 75.2511 149.418 73.5711 149.289C71.8911 149.16 62.4788 152.386 61.32 152.386C60.1613 152.386 57.1933 148.259 54.0961 142.711C50.9988 137.163 49.8401 128.522 43.2622 125.558" fill="#48E5C2"/>
<mask id="mask3_13_391" style="mask-type:luminance" maskUnits="userSpaceOnUse" x="29" y="118" width="53" height="49">
<path d="M33.8241 118.588C33.8241 118.588 29.1804 123.757 29.1804 129.163C29.1804 134.57 32.2733 139.502 40.8112 147.221C49.349 154.941 57.3182 160.635 60.6739 162.445C64.0296 164.254 67.3809 161.928 67.3809 161.928C67.3809 161.928 72.9292 167.472 73.5711 166.184C74.2129 164.896 71.6369 162.957 71.12 162.186C70.6663 161.574 70.1478 161.012 69.5736 160.51C69.5736 160.51 72.2831 160.894 73.3169 161.803C74.3508 162.712 76.0222 164.254 76.7975 164.125C77.5729 163.995 77.5729 163.349 76.4098 161.803C75.4722 160.592 74.3396 159.545 73.0585 158.706C72.2831 158.193 69.7028 156.771 69.7028 156.771C69.7028 156.771 73.4419 156.513 74.7342 157.288C76.0265 158.064 79.5071 160.386 79.7655 159.352C80.024 158.318 80.024 157.676 78.7317 156.513C77.4394 155.35 74.8548 153.928 73.3169 153.674C72.2568 153.479 71.2191 153.178 70.2197 152.774C70.2197 152.774 73.1877 151.74 74.2172 151.74C75.2468 151.74 79.3865 153.803 80.5366 153.549C81.6868 153.295 81.0535 152.257 80.1532 151.611C79.2529 150.965 75.2511 149.418 73.5711 149.289C71.8911 149.16 62.4788 152.386 61.32 152.386C60.1613 152.386 57.1933 148.259 54.0961 142.711C50.9988 137.163 49.8401 128.522 43.2622 125.558" fill="white"/>
</mask>
<g mask="url(#mask3_13_391)">
<g opacity="0.2">
<path d="M33.251 136.784C33.4276 136.784 34.0737 137.215 33.251 138.468C34.0737 137.223 33.4276 136.784 33.251 136.784Z" fill="black"/>
<path d="M43.5896 131.615C43.413 131.615 42.7668 132.045 43.5896 133.299C44.4123 132.054 43.7662 131.615 43.5896 131.615Z" fill="black"/>
<path d="M35.155 127.539C35.0645 127.384 34.358 127.048 33.699 128.401C35.1894 128.47 35.2454 127.69 35.155 127.539Z" fill="black"/>
<path d="M35.0086 138.39C35.0516 138.344 35.0878 138.292 35.1162 138.235C35.1582 138.186 35.1839 138.125 35.1897 138.06C35.1954 137.995 35.1811 137.93 35.1485 137.874C35.1159 137.818 35.0668 137.773 35.0078 137.746C34.9488 137.719 34.8828 137.711 34.819 137.723C34.6306 137.719 34.447 137.783 34.3021 137.904C34.2143 137.973 34.1335 138.051 34.0609 138.136C33.9743 138.24 33.8965 138.351 33.8282 138.468H34.9224C34.953 138.444 34.9818 138.418 35.0086 138.39Z" fill="black"/>
<path d="M45.4936 132.709C45.4031 132.554 44.6967 132.218 44.0376 133.57C45.5281 133.639 45.5797 132.859 45.4936 132.709Z" fill="black"/>
<path d="M43.1414 133.557C42.4823 132.218 41.7758 132.554 41.6854 132.696C41.5949 132.838 41.6552 133.639 43.1414 133.557Z" fill="black"/>
<path d="M33.251 126.445V128.13C34.0737 126.885 33.4276 126.445 33.251 126.445Z" fill="black"/>
<path d="M33.251 136.784V138.468C34.0737 137.223 33.4276 136.784 33.251 136.784Z" fill="black"/>
<path d="M53.928 157.461C53.8516 157.476 53.7804 157.511 53.7209 157.561C53.6615 157.612 53.6156 157.676 53.5876 157.749L54.3156 158.283C54.4233 157.689 54.0572 157.461 53.928 157.461Z" fill="black"/>
<path d="M64.2663 162.63C64.1577 162.656 64.0605 162.717 63.9892 162.803C63.9178 162.89 63.876 162.996 63.87 163.108C64.1287 163.088 64.3861 163.053 64.6411 163.005C64.6205 162.913 64.5744 162.829 64.508 162.763C64.4417 162.697 64.3578 162.65 64.2663 162.63Z" fill="black"/>
<path d="M53.9278 147.122C53.7512 147.122 53.1051 147.553 53.9278 148.806C54.7506 147.562 54.1044 147.122 53.9278 147.122Z" fill="black"/>
<path d="M64.2665 153.976C65.0893 152.731 64.4431 152.291 64.2665 152.291C64.0899 152.291 63.4394 152.731 64.2665 153.976Z" fill="black"/>
<path d="M43.5895 143.637C44.4123 142.392 43.7661 141.953 43.5895 141.953C43.4129 141.953 42.7624 142.392 43.5895 143.637Z" fill="black"/>
<path d="M55.8319 158.555C55.763 158.438 55.3495 158.219 54.8713 158.68C55.104 158.852 55.3366 159.016 55.5649 159.175C55.6729 159.117 55.7581 159.024 55.8066 158.912C55.8551 158.799 55.8641 158.673 55.8319 158.555Z" fill="black"/>
<path d="M54.3932 149.065C55.8793 149.147 55.9353 148.367 55.8492 148.203C55.763 148.04 55.035 147.725 54.3932 149.065Z" fill="black"/>
<path d="M64.7316 154.234C66.2177 154.316 66.2737 153.536 66.1876 153.373C66.1014 153.209 65.3734 152.894 64.7316 154.234Z" fill="black"/>
<path d="M44.0547 143.896C45.5451 143.978 45.5968 143.198 45.5107 143.034C45.4245 142.87 44.6965 142.556 44.0547 143.896Z" fill="black"/>
<path d="M74.0061 159.408C73.6357 159.115 73.2953 158.878 73.0369 158.701L72.7353 158.512L72.7009 158.555C72.6147 158.701 72.6707 159.429 74.0061 159.408Z" fill="black"/>
<path d="M53.4801 149.065C52.821 147.725 52.1146 148.061 52.0241 148.203C51.9337 148.346 51.994 149.147 53.4801 149.065Z" fill="black"/>
<path d="M62.3623 153.386C62.2718 153.536 62.3321 154.316 63.8183 154.247C63.1592 152.894 62.4527 153.23 62.3623 153.386Z" fill="black"/>
<path d="M41.6856 143.047C41.5994 143.198 41.6554 143.978 43.1416 143.909C42.4825 142.556 41.776 142.892 41.6856 143.047Z" fill="black"/>
<path d="M34.931 138.468H33.8368C33.838 138.477 33.838 138.485 33.8368 138.494C33.798 138.563 33.755 138.64 33.7162 138.726C34.1389 138.787 34.5695 138.696 34.931 138.468Z" fill="black"/>
<path d="M33.2509 126.445C33.0743 126.445 32.4282 126.876 33.2509 128.13V126.445Z" fill="black"/>
<path d="M33.2511 138.468V136.784C33.0745 136.784 32.4241 137.223 33.2511 138.468Z" fill="black"/>
<path d="M32.8031 128.388C32.144 127.048 31.4376 127.384 31.3471 127.527C31.2567 127.669 31.317 128.47 32.8031 128.388Z" fill="black"/>
<path d="M32.424 138.136C32.3513 138.051 32.2705 137.973 32.1827 137.904L32.1526 137.882C32.2861 138.076 32.4197 138.274 32.5834 138.468H32.6781C32.603 138.35 32.518 138.239 32.424 138.136Z" fill="black"/>
<path d="M32.6824 138.494C32.6812 138.485 32.6812 138.477 32.6824 138.468H32.5876L32.7772 138.726H32.8203C32.7643 138.64 32.7212 138.563 32.6824 138.494Z" fill="black"/>
</g>
</g>
<path d="M33.8241 118.588C33.8241 118.588 29.1804 123.757 29.1804 129.163C29.1804 134.57 32.2733 139.502 40.8112 147.221C49.349 154.941 57.3182 160.635 60.6739 162.445C64.0296 164.254 67.3809 161.928 67.3809 161.928C67.3809 161.928 72.9292 167.472 73.5711 166.184C74.2129 164.896 71.6369 162.957 71.12 162.186C70.6663 161.574 70.1478 161.012 69.5736 160.51C69.5736 160.51 72.2831 160.894 73.3169 161.803C74.3508 162.712 76.0222 164.254 76.7975 164.125C77.5729 163.995 77.5729 163.349 76.4098 161.803C75.4722 160.592 74.3396 159.545 73.0585 158.706C72.2831 158.193 69.7028 156.771 69.7028 156.771C69.7028 156.771 73.4419 156.513 74.7342 157.288C76.0265 158.064 79.5071 160.386 79.7655 159.352C80.024 158.318 80.024 157.676 78.7317 156.513C77.4394 155.35 74.8548 153.928 73.3169 153.674C72.2568 153.479 71.2191 153.178 70.2197 152.774C70.2197 152.774 73.1877 151.74 74.2172 151.74C75.2468 151.74 79.3865 153.803 80.5366 153.549C81.6868 153.295 81.0535 152.257 80.1532 151.611C79.2529 150.965 75.2511 149.418 73.5711 149.289C71.8911 149.16 62.4788 152.386 61.32 152.386C60.1613 152.386 57.1933 148.259 54.0961 142.711C50.9988 137.163 49.8401 128.522 43.2622 125.558" stroke="#263238" stroke-width="0.430768" stroke-linecap="round" stroke-linejoin="round"/>
<path d="M80.1317 151.606C79.2271 150.965 75.2296 149.414 73.5496 149.285C71.8696 149.155 62.4573 152.382 61.2985 152.382C60.1398 152.382 57.1718 148.255 54.0746 142.707C52.3515 139.627 51.2315 135.591 49.4438 132.106C39.9669 130.813 35.9048 136.353 34.0266 140.338C36.1177 142.79 38.3776 145.093 40.7897 147.23C49.3017 154.984 57.2967 160.644 60.6524 162.453C64.0081 164.262 67.3595 161.936 67.3595 161.936C67.3595 161.936 72.9077 167.48 73.5496 166.192C74.1914 164.904 71.6154 162.966 71.0985 162.195C70.6448 161.582 70.1263 161.02 69.5521 160.519C69.5521 160.519 72.2616 160.902 73.2954 161.811C74.3293 162.72 76.0007 164.262 76.7761 164.133C77.5514 164.004 77.5514 163.358 76.3884 161.811C75.4507 160.6 74.3181 159.554 73.037 158.714C72.2616 158.202 69.6813 156.78 69.6813 156.78C69.6813 156.78 73.4204 156.522 74.7127 157.297C76.005 158.072 79.4856 160.394 79.744 159.36C80.0025 158.326 80.0025 157.685 78.7102 156.522C77.4179 155.358 74.8333 153.937 73.2954 153.683C72.2353 153.488 71.1977 153.186 70.1982 152.782C70.1982 152.782 73.1662 151.749 74.1957 151.749C75.2253 151.749 79.365 153.812 80.5151 153.558C81.6653 153.304 81.032 152.253 80.1317 151.606Z" fill="#B2B2B2" stroke="#263238" stroke-width="0.430768" stroke-linecap="round" stroke-linejoin="round"/>
<path d="M136.136 123.43C135.059 120.97 135.981 115.586 137.058 107.896C138.135 100.207 139.212 92.3629 139.212 88.2103C139.212 84.0577 139.897 78.3026 138.544 76.446C137.191 74.5894 132.268 69.5537 131.902 67.219C131.535 64.8842 134.852 61.3131 134.852 61.3131C134.852 61.3131 135.839 59.4651 136.7 60.4516C137.562 61.4381 137.191 62.6658 136.7 64.3888C136.209 66.1119 135.714 67.4645 135.714 67.4645C135.714 67.4645 140.022 68.8171 141.129 68.0805C142.236 67.3439 142.137 63.131 142.059 61.0676C141.9 57.0442 140.289 58.763 139.173 60.667C138.634 61.5802 135.481 61.0375 137.325 58.6984C139.169 56.3593 140.883 54.2959 142.606 56.1439C144.329 57.9919 145.557 61.5587 145.557 61.5587C145.557 61.5587 146.789 55.6959 147.909 52.2498C149.029 48.8036 151.036 47.4381 151.76 47.6793C152.484 47.9206 152.402 49.1224 151.678 50.8067C150.954 52.491 149.352 57.139 148.951 58.6639C148.551 60.1888 148.473 61.9507 149.274 61.7913C150.076 61.6319 152.88 56.7384 153.685 54.6535C154.491 52.5686 155.689 50.6473 157.05 49.7642C158.411 48.8812 159.535 50.0055 158.975 51.4486C157.863 54.0582 156.6 56.6011 155.193 59.0645C154.309 60.6566 153.558 62.3193 152.949 64.0356C154.269 62.6285 155.661 61.2899 157.119 60.0252C159.044 58.4227 161.129 58.1039 161.767 58.6639C162.404 59.2239 161.849 59.3058 160.246 60.5895C158.644 61.8731 156.249 63.4024 154.332 66.5211C152.847 68.808 151.687 71.29 150.885 73.8959C150.29 75.6065 149.51 77.2473 148.559 78.7894C148.559 78.7894 150.063 90.9974 152.669 97.7131C155.275 104.429 159.884 114.25 158.48 121.267C157.076 128.285 154.37 131.89 150.562 132.993C149.458 133.315 148.294 133.375 147.163 133.166C146.032 132.957 144.965 132.486 144.049 131.791" fill="#48E5C2"/>
<mask id="mask4_13_391" style="mask-type:luminance" maskUnits="userSpaceOnUse" x="131" y="47" width="32" height="87">
<path d="M136.136 123.43C135.059 120.97 135.981 115.586 137.058 107.896C138.135 100.207 139.212 92.3629 139.212 88.2103C139.212 84.0577 139.897 78.3026 138.544 76.446C137.191 74.5894 132.268 69.5537 131.902 67.219C131.535 64.8842 134.852 61.3131 134.852 61.3131C134.852 61.3131 135.839 59.4651 136.7 60.4516C137.562 61.4381 137.191 62.6658 136.7 64.3888C136.209 66.1119 135.714 67.4645 135.714 67.4645C135.714 67.4645 140.022 68.8171 141.129 68.0805C142.236 67.3439 142.137 63.131 142.059 61.0676C141.9 57.0442 140.289 58.763 139.173 60.667C138.634 61.5802 135.481 61.0375 137.325 58.6984C139.169 56.3593 140.883 54.2959 142.606 56.1439C144.329 57.9919 145.557 61.5587 145.557 61.5587C145.557 61.5587 146.789 55.6959 147.909 52.2498C149.029 48.8036 151.036 47.4381 151.76 47.6793C152.484 47.9206 152.402 49.1224 151.678 50.8067C150.954 52.491 149.352 57.139 148.951 58.6639C148.551 60.1888 148.473 61.9507 149.274 61.7913C150.076 61.6319 152.88 56.7384 153.685 54.6535C154.491 52.5686 155.689 50.6473 157.05 49.7642C158.411 48.8812 159.535 50.0055 158.975 51.4486C157.863 54.0582 156.6 56.6011 155.193 59.0645C154.309 60.6566 153.558 62.3193 152.949 64.0356C154.269 62.6285 155.661 61.2899 157.119 60.0252C159.044 58.4227 161.129 58.1039 161.767 58.6639C162.404 59.2239 161.849 59.3058 160.246 60.5895C158.644 61.8731 156.249 63.4024 154.332 66.5211C152.847 68.808 151.687 71.29 150.885 73.8959C150.29 75.6065 149.51 77.2473 148.559 78.7894C148.559 78.7894 150.063 90.9974 152.669 97.7131C155.275 104.429 159.884 114.25 158.48 121.267C157.076 128.285 154.37 131.89 150.562 132.993C149.458 133.315 148.294 133.375 147.163 133.166C146.032 132.957 144.965 132.486 144.049 131.791" fill="white"/>
</mask>
<g mask="url(#mask4_13_391)">
<g opacity="0.2">
<path d="M157.312 54.0762C157.39 54.0932 157.462 54.1293 157.522 54.1812C157.583 54.2331 157.629 54.2992 157.657 54.3735C157.63 54.2985 157.584 54.2319 157.524 54.1798C157.463 54.1278 157.391 54.0921 157.312 54.0762Z" fill="black"/>
<path d="M157.312 54.0762V55.0842L157.657 54.3735C157.629 54.2992 157.583 54.2331 157.522 54.1812C157.462 54.1293 157.39 54.0932 157.312 54.0762Z" fill="black"/>
<path d="M158.721 117.938C158.721 117.65 158.708 117.363 158.682 117.076C158.415 117.145 158.079 117.399 157.76 118.054C158.085 118.082 158.412 118.043 158.721 117.938Z" fill="black"/>
<path d="M157.312 116.107V117.791C158.135 116.546 157.489 116.107 157.312 116.107Z" fill="black"/>
<path d="M136.636 64.4147C136.485 64.4147 136.011 64.7291 136.347 65.5605C136.455 65.2116 136.571 64.8282 136.687 64.4233L136.636 64.4147Z" fill="black"/>
<path d="M146.974 71.2682C147.797 70.0233 147.151 69.5839 146.974 69.5839C146.797 69.5839 146.147 70.0233 146.974 71.2682Z" fill="black"/>
<path d="M157.132 55.4504L157.312 55.0842V54.0762C157.149 54.0762 156.602 54.4467 157.132 55.4504Z" fill="black"/>
<path d="M146.974 59.2455C146.797 59.2455 146.151 59.6762 146.974 60.9298C147.797 59.6848 147.151 59.2455 146.974 59.2455Z" fill="black"/>
<path d="M138.509 76.2048C138.54 76.1509 138.558 76.091 138.563 76.0293C138.569 75.9676 138.56 75.9055 138.54 75.8473C138.499 75.7992 138.449 75.7604 138.393 75.7336C138.336 75.7069 138.275 75.6927 138.212 75.6922C138.132 75.69 138.052 75.7017 137.975 75.7266C138.152 75.942 138.311 76.1359 138.44 76.3082C138.468 76.2769 138.491 76.2421 138.509 76.2048Z" fill="black"/>
<path d="M148.878 70.678C148.787 70.523 148.081 70.187 147.422 71.5396C148.908 71.6085 148.964 70.8288 148.878 70.678Z" fill="black"/>
<path d="M148.667 60.9211C148.65 60.6845 148.65 60.447 148.667 60.2104C148.391 60.1242 147.887 60.2104 147.409 61.1882C147.847 61.2591 148.296 61.1639 148.667 60.9211Z" fill="black"/>
<path d="M148.891 50.0485C148.775 50.2424 148.667 50.4535 148.555 50.6732C148.671 50.6195 148.767 50.5296 148.827 50.417C148.888 50.3043 148.91 50.175 148.891 50.0485Z" fill="black"/>
<path d="M134.732 65.5088C134.645 65.6553 134.701 66.4048 136.093 66.3704L136.132 66.2584C135.49 65.0436 134.822 65.3581 134.732 65.5088Z" fill="black"/>
<path d="M145.07 70.678C144.98 70.8288 145.04 71.6085 146.526 71.5396C145.867 70.187 145.16 70.523 145.07 70.678Z" fill="black"/>
<path d="M155.409 55.1704C155.322 55.3212 155.378 56.0965 156.847 56.0319C156.201 54.6836 155.499 55.0153 155.409 55.1704Z" fill="black"/>
<path d="M146.526 61.1882C146.378 60.8418 146.136 60.5435 145.828 60.3267C145.759 60.6498 145.699 60.9211 145.656 61.1279C145.94 61.1986 146.235 61.219 146.526 61.1882Z" fill="black"/>
<path d="M145.333 60.9599C145.264 60.779 145.178 60.5679 145.079 60.331C145.044 60.4491 145.05 60.5755 145.096 60.6896C145.143 60.8037 145.226 60.899 145.333 60.9599Z" fill="black"/>
<path d="M146.974 102.284C147.797 101.039 147.151 100.599 146.974 100.599C146.797 100.599 146.147 101.039 146.974 102.284Z" fill="black"/>
<path d="M146.974 90.2608C146.797 90.2608 146.151 90.6915 146.974 91.9451C147.797 90.7002 147.151 90.2608 146.974 90.2608Z" fill="black"/>
<path d="M146.974 79.9223C146.797 79.9223 146.151 80.3531 146.974 81.6066C147.797 80.3617 147.151 79.9223 146.974 79.9223Z" fill="black"/>
<path d="M138.557 96.5715C138.557 96.662 138.535 96.7567 138.522 96.8472C138.561 96.7608 138.573 96.6648 138.557 96.5715Z" fill="black"/>
<path d="M138.54 106.863C138.454 106.716 137.838 106.432 137.222 107.453H138.316C138.411 107.391 138.484 107.3 138.524 107.194C138.564 107.088 138.57 106.972 138.54 106.863Z" fill="black"/>
<path d="M147.439 102.542C148.925 102.624 148.981 101.844 148.895 101.68C148.809 101.517 148.081 101.202 147.439 102.542Z" fill="black"/>
<path d="M148.878 91.3549C148.787 91.1998 148.081 90.8638 147.422 92.2165C148.908 92.2854 148.964 91.5057 148.878 91.3549Z" fill="black"/>
<path d="M147.439 81.8651C148.533 81.9254 148.852 81.5205 148.908 81.2405L148.869 80.9863C148.706 80.8269 148.042 80.6029 147.439 81.8651Z" fill="black"/>
<path d="M156.231 106.871C155.801 106.574 155.469 106.755 155.409 106.871C155.378 106.981 155.384 107.097 155.424 107.203C155.464 107.309 155.537 107.4 155.633 107.461H156.434L156.231 106.871Z" fill="black"/>
<path d="M145.07 101.693C144.98 101.844 145.04 102.624 146.526 102.555C145.867 101.202 145.16 101.538 145.07 101.693Z" fill="black"/>
<path d="M145.07 91.3549C144.98 91.5057 145.04 92.2854 146.526 92.2165C145.867 90.8638 145.16 91.1998 145.07 91.3549Z" fill="black"/>
<path d="M145.07 81.0165C144.98 81.1672 145.04 81.9469 146.526 81.878C145.867 80.5254 145.16 80.8614 145.07 81.0165Z" fill="black"/>
<path d="M146.974 131.615C146.806 131.615 146.22 132.011 146.853 133.105L147.069 133.148C147.741 132.019 147.142 131.615 146.974 131.615Z" fill="black"/>
<path d="M136.636 117.791C137.458 116.546 136.812 116.107 136.636 116.107C136.459 116.107 135.808 116.546 136.636 117.791Z" fill="black"/>
<path d="M157.312 116.107C157.136 116.107 156.49 116.538 157.312 117.791V116.107Z" fill="black"/>
<path d="M146.974 122.96C147.797 121.715 147.151 121.276 146.974 121.276C146.797 121.276 146.147 121.715 146.974 122.96Z" fill="black"/>
<path d="M146.974 110.938C146.797 110.938 146.151 111.368 146.974 112.622C147.797 111.377 147.151 110.938 146.974 110.938Z" fill="black"/>
<path d="M148.878 132.709C148.796 132.567 148.206 132.278 147.586 133.23C147.94 133.275 148.297 133.294 148.654 133.286C148.747 133.225 148.819 133.137 148.859 133.033C148.9 132.93 148.906 132.816 148.878 132.709Z" fill="black"/>
<path d="M137.101 118.05C138.587 118.131 138.643 117.352 138.557 117.188C138.471 117.024 137.743 116.71 137.101 118.05Z" fill="black"/>
<path d="M147.439 123.219C148.925 123.301 148.981 122.521 148.895 122.357C148.809 122.194 148.081 121.879 147.439 123.219Z" fill="black"/>
<path d="M148.878 112.032C148.787 111.877 148.081 111.541 147.422 112.893C148.908 112.962 148.964 112.183 148.878 112.032Z" fill="black"/>
<path d="M155.409 127.539C155.34 127.656 155.361 128.143 156.05 128.323C156.167 128.117 156.283 127.893 156.391 127.69C155.904 127.199 155.477 127.419 155.409 127.539Z" fill="black"/>
<path d="M145.315 132.567C145.561 132.683 145.813 132.786 146.069 132.877C145.982 132.764 145.866 132.675 145.734 132.621C145.601 132.567 145.457 132.548 145.315 132.567Z" fill="black"/>
<path d="M136.187 118.05C136.088 117.832 135.959 117.629 135.804 117.447C135.804 117.649 135.77 117.847 135.757 118.045C135.9 118.056 136.044 118.057 136.187 118.05Z" fill="black"/>
<path d="M156.864 118.05C156.205 116.71 155.499 117.046 155.408 117.188C155.318 117.33 155.378 118.131 156.864 118.05Z" fill="black"/>
<path d="M145.07 122.37C144.98 122.521 145.04 123.301 146.526 123.232C145.867 121.879 145.16 122.215 145.07 122.37Z" fill="black"/>
<path d="M145.07 112.032C144.98 112.183 145.04 112.962 146.526 112.893C145.867 111.541 145.16 111.877 145.07 112.032Z" fill="black"/>
<path d="M137.221 107.453C137.174 107.53 137.131 107.616 137.084 107.707C137.512 107.772 137.949 107.68 138.316 107.448H137.221V107.453Z" fill="black"/>
<path d="M156.434 107.453H155.624C155.887 107.629 156.199 107.72 156.516 107.711L156.434 107.453Z" fill="black"/>
</g>
</g>
<path d="M136.136 123.43C135.059 120.97 135.981 115.586 137.058 107.896C138.135 100.207 139.212 92.3629 139.212 88.2103C139.212 84.0577 139.897 78.3026 138.544 76.446C137.191 74.5894 132.268 69.5537 131.902 67.219C131.535 64.8842 134.852 61.3131 134.852 61.3131C134.852 61.3131 135.839 59.4651 136.7 60.4516C137.562 61.4381 137.191 62.6658 136.7 64.3888C136.209 66.1119 135.714 67.4645 135.714 67.4645C135.714 67.4645 140.022 68.8171 141.129 68.0805C142.236 67.3439 142.137 63.131 142.059 61.0676C141.9 57.0442 140.289 58.763 139.173 60.667C138.634 61.5802 135.481 61.0375 137.325 58.6984C139.169 56.3593 140.883 54.2959 142.606 56.1439C144.329 57.9919 145.557 61.5587 145.557 61.5587C145.557 61.5587 146.789 55.6959 147.909 52.2498C149.029 48.8036 151.036 47.4381 151.76 47.6793C152.484 47.9206 152.402 49.1224 151.678 50.8067C150.954 52.491 149.352 57.139 148.951 58.6639C148.551 60.1888 148.473 61.9507 149.274 61.7913C150.076 61.6319 152.88 56.7384 153.685 54.6535C154.491 52.5686 155.689 50.6473 157.05 49.7642C158.411 48.8812 159.535 50.0055 158.975 51.4486C157.863 54.0582 156.6 56.6011 155.193 59.0645C154.309 60.6566 153.558 62.3193 152.949 64.0356C154.269 62.6285 155.661 61.2899 157.119 60.0252C159.044 58.4227 161.129 58.1039 161.767 58.6639C162.404 59.2239 161.849 59.3058 160.246 60.5895C158.644 61.8731 156.249 63.4024 154.332 66.5211C152.847 68.808 151.687 71.29 150.885 73.8959C150.29 75.6065 149.51 77.2473 148.559 78.7894C148.559 78.7894 150.063 90.9974 152.669 97.7131C155.275 104.429 159.884 114.25 158.48 121.267C157.076 128.285 154.37 131.89 150.562 132.993C149.458 133.315 148.294 133.375 147.163 133.166C146.032 132.957 144.965 132.486 144.049 131.791" stroke="#263238" stroke-width="0.430768" stroke-linecap="round" stroke-linejoin="round"/>
<path d="M154.331 66.5211C156.257 63.3938 158.665 61.8688 160.267 60.5895C161.87 59.3101 162.421 59.2239 161.788 58.6639C161.155 58.1039 159.066 58.4227 157.14 60.0252C155.683 61.2899 154.291 62.6285 152.97 64.0356C153.573 62.32 154.316 60.6573 155.193 59.0645C156.596 56.6009 157.854 54.0579 158.962 51.4486C159.522 50.0055 158.402 48.864 157.037 49.7643C155.671 50.6646 154.474 52.5686 153.672 54.6535C152.871 56.7384 150.063 61.6319 149.261 61.7913C148.46 61.9507 148.538 60.1845 148.938 58.6639C149.339 57.1433 150.946 52.491 151.665 50.8067C152.384 49.1224 152.466 47.9206 151.747 47.6793C151.027 47.4381 149.02 48.7993 147.896 52.2498C146.771 55.7002 145.544 61.5587 145.544 61.5587C145.544 61.5587 144.316 57.9876 142.593 56.1439C140.87 54.3002 139.147 56.3593 137.312 58.6984C135.477 61.0375 138.604 61.5802 139.16 60.667C140.276 58.763 141.887 57.0442 142.046 61.0676C142.124 63.131 142.223 67.3396 141.116 68.0805C140.008 68.8214 135.701 67.4645 135.701 67.4645C135.701 67.4645 136.192 66.1119 136.687 64.3888C137.183 62.6658 137.549 61.4338 136.687 60.4516C135.826 59.4695 134.839 61.3132 134.839 61.3132C134.839 61.3132 131.518 64.8799 131.888 67.219C132.259 69.5581 137.178 74.598 138.531 76.446C139.884 78.294 139.199 84.0577 139.199 88.2103C139.199 92.3629 138.122 100.207 137.045 107.896C137.045 108 137.015 108.095 137.002 108.194C138.703 109.981 142.171 112.544 148.034 112.346C151.962 112.213 154.745 110.236 156.627 108.06C155.378 104.343 153.81 100.737 152.647 97.7217C150.041 91.006 148.538 78.798 148.538 78.798C149.488 77.2559 150.268 75.6151 150.864 73.9045C151.672 71.2944 152.839 68.8095 154.331 66.5211Z" fill="#B2B2B2" stroke="#263238" stroke-width="0.430768" stroke-linecap="round" stroke-linejoin="round"/>
<path d="M142.537 78.307C142.537 78.307 141.818 75.2614 142.86 73.3359C143.408 72.241 144.312 71.3647 145.423 70.8504" stroke="#263238" stroke-width="0.430768" stroke-linecap="round" stroke-linejoin="round"/>
<ellipse cx="96.3843" cy="177.736" rx="40.6759" ry="10.6111" fill="#2872E0"/>
</svg>
